<?xml version="1.0" standalone="no"?>
<!DOCTYPE svg PUBLIC "-//W3C//DTD SVG 20010904//EN"
 "http://www.w3.org/TR/2001/REC-SVG-20010904/DTD/svg10.dtd">
<svg version="1.0" xmlns="http://www.w3.org/2000/svg"
 width="100.000000pt" height="100.000000pt" viewBox="0 0 100.000000 100.000000"
 preserveAspectRatio="xMidYMid meet">
<metadata>
Created by potrace 1.13, written by Peter Selinger 2001-2015
</metadata>
<g transform="translate(0.000000,100.000000) scale(0.100000,-0.100000)"
 stroke="none">
<path d="M60 780 c-18 -18 -20 -33 -20 -165 l0 -144 50 25 c50 25 50 25 50 74
0 74 22 85 170 85 135 0 170 -13 170 -65 0 -23 4 -30 20 -30 16 0 20 7 20 30
0 52 35 65 170 65 148 0 170 -11 170 -86 0 -38 4 -51 18 -56 9 -3 29 -15 44
-25 14 -10 29 -18 32 -18 3 0 6 65 6 145 0 132 -2 147 -20 165 -19 19 -33 20
-440 20 -407 0 -421 -1 -440 -20z"/>
<path d="M255 505 c-165 -30 -237 -87 -250 -199 l-6 -46 502 0 501 0 -5 44
c-13 104 -66 153 -207 193 -73 20 -435 26 -535 8z"/>
<path d="M0 110 l0 -110 70 0 70 0 0 48 c0 26 5 53 12 60 9 9 101 12 354 12
383 0 354 6 354 -76 l0 -44 70 0 70 0 0 110 0 110 -500 0 -500 0 0 -110z"/>
</g>
</svg>
