<?xml version="1.0" standalone="no"?>
<!DOCTYPE svg PUBLIC "-//W3C//DTD SVG 20010904//EN"
 "http://www.w3.org/TR/2001/REC-SVG-20010904/DTD/svg10.dtd">
<svg version="1.0" xmlns="http://www.w3.org/2000/svg"
 width="100.000000pt" height="100.000000pt" viewBox="0 0 100.000000 100.000000"
 preserveAspectRatio="xMidYMid meet">
<metadata>
Created by potrace 1.13, written by Peter Selinger 2001-2015
</metadata>
<g transform="translate(0.000000,100.000000) scale(0.100000,-0.100000)"
 stroke="none">
<path d="M183 980 c-27 -24 -25 -17 -27 -102 -1 -65 -2 -68 -38 -95 -49 -37
-77 -74 -99 -134 -28 -73 -25 -94 15 -113 100 -47 293 -47 393 1 25 12 33 21
33 42 -2 65 -60 168 -117 205 -18 12 -33 24 -33 27 0 3 42 10 93 14 50 4 107
8 124 10 19 2 37 -3 44 -11 6 -8 22 -14 34 -14 17 0 53 -33 132 -121 141 -158
141 -143 17 -359 -84 -146 -112 -194 -122 -209 -1 -3 -48 -5 -103 -6 -114 -1
-138 -14 -142 -76 l-2 -34 267 -3 c248 -2 267 -1 270 15 7 31 -13 73 -41 86
-14 8 -54 13 -89 12 -55 -1 -63 1 -59 16 3 10 44 85 92 169 75 129 93 154 126
171 44 22 57 55 39 98 -11 28 -41 48 -70 47 -8 -1 -48 36 -87 82 -40 46 -89
100 -108 120 -24 26 -35 46 -35 68 0 36 -35 74 -70 74 -13 0 -40 -11 -59 -24
-28 -19 -55 -25 -122 -30 -47 -4 -95 -8 -106 -10 -17 -4 -22 2 -27 33 -7 45
-22 60 -68 67 -25 4 -39 0 -55 -16z"/>
</g>
</svg>
