<?xml version="1.0" standalone="no"?>
<!DOCTYPE svg PUBLIC "-//W3C//DTD SVG 20010904//EN"
 "http://www.w3.org/TR/2001/REC-SVG-20010904/DTD/svg10.dtd">
<svg version="1.0" xmlns="http://www.w3.org/2000/svg"
 width="100.000000pt" height="100.000000pt" viewBox="0 0 100.000000 100.000000"
 preserveAspectRatio="xMidYMid meet">
<metadata>
Created by potrace 1.13, written by Peter Selinger 2001-2015
</metadata>
<g transform="translate(0.000000,100.000000) scale(0.100000,-0.100000)"
 stroke="none">
<path d="M226 973 c-3 -16 -8 -53 -11 -83 -4 -30 -8 -66 -10 -80 -19 -120 -13
-150 43 -204 l30 -28 -5 -268 c-5 -262 -4 -269 16 -289 26 -26 81 -28 112 -2
25 20 24 -14 16 410 l-3 144 44 51 44 51 -7 68 c-3 37 -8 75 -10 85 -1 9 -6
40 -9 67 -12 91 -16 105 -36 105 -18 0 -19 -9 -19 -127 0 -72 -5 -131 -10
-136 -21 -21 -22 -11 -36 183 -2 30 -4 61 -4 68 -1 6 -12 12 -26 12 -19 0 -25
-5 -26 -22 -1 -51 -10 -204 -13 -223 -2 -11 -9 -20 -17 -20 -11 0 -15 27 -17
133 -2 122 -4 132 -21 132 -13 0 -21 -9 -25 -27z"/>
<path d="M623 973 c-5 -15 -9 -229 -9 -481 l1 -454 25 -20 c19 -15 34 -19 64
-15 21 3 44 11 50 17 6 6 11 45 10 93 0 82 -2 97 -25 258 -12 85 -12 85 18
160 39 95 45 119 48 203 4 77 -11 128 -51 184 -32 44 -62 69 -96 77 -22 6 -27
2 -35 -22z"/>
</g>
</svg>
