<?xml version="1.0" standalone="no"?>
<!DOCTYPE svg PUBLIC "-//W3C//DTD SVG 20010904//EN"
 "http://www.w3.org/TR/2001/REC-SVG-20010904/DTD/svg10.dtd">
<svg version="1.0" xmlns="http://www.w3.org/2000/svg"
 width="100.000000pt" height="100.000000pt" viewBox="0 0 100.000000 100.000000"
 preserveAspectRatio="xMidYMid meet">
<metadata>
Created by potrace 1.13, written by Peter Selinger 2001-2015
</metadata>
<g transform="translate(0.000000,100.000000) scale(0.100000,-0.100000)"
 stroke="none">
<path d="M445 920 c-27 -3 -60 -11 -72 -18 -23 -13 -39 -53 -34 -84 1 -12 -4
-18 -16 -19 -18 0 -35 -3 -100 -14 -19 -3 -42 -18 -59 -38 -14 -18 -45 -41
-68 -52 -44 -22 -58 -53 -33 -74 11 -9 31 -9 78 -2 35 5 87 12 114 16 28 3
100 13 160 21 128 17 179 24 220 29 17 2 64 9 105 15 41 5 88 11 103 12 38 3
57 27 46 56 -7 17 -16 22 -46 22 -26 0 -53 10 -82 30 -41 28 -50 30 -100 25
-31 -4 -63 -9 -73 -11 -12 -3 -18 3 -23 25 -11 53 -44 70 -120 61z"/>
<path d="M84 563 c-19 -20 -18 -29 9 -55 16 -17 22 -35 22 -65 0 -24 -3 -43
-7 -43 -3 0 -18 14 -31 31 -20 26 -29 31 -51 25 -19 -5 -26 -13 -26 -31 0 -30
54 -93 86 -101 13 -3 25 -9 25 -13 1 -3 2 -64 3 -135 2 -127 2 -129 29 -152
l28 -24 324 0 c340 0 368 3 382 44 4 12 8 75 9 141 1 66 2 123 3 126 0 4 12
10 25 13 29 7 86 70 86 94 -1 45 -52 57 -74 17 -11 -20 -26 -35 -37 -35 -3 0
-5 21 -4 46 0 36 5 50 21 61 27 18 21 59 -10 66 -11 3 -196 5 -409 5 -323 -1
-391 -3 -403 -15z"/>
</g>
</svg>
