<?xml version="1.0" standalone="no"?>
<!DOCTYPE svg PUBLIC "-//W3C//DTD SVG 20010904//EN"
 "http://www.w3.org/TR/2001/REC-SVG-20010904/DTD/svg10.dtd">
<svg version="1.0" xmlns="http://www.w3.org/2000/svg"
 width="100.000000pt" height="100.000000pt" viewBox="0 0 100.000000 100.000000"
 preserveAspectRatio="xMidYMid meet">
<metadata>
Created by potrace 1.13, written by Peter Selinger 2001-2015
</metadata>
<g transform="translate(0.000000,100.000000) scale(0.100000,-0.100000)"
 stroke="none">
<path d="M242 763 c-13 -3 -43 -23 -66 -46 -33 -32 -45 -52 -51 -86 -8 -48 1
-61 46 -61 55 0 99 -66 99 -148 0 -16 8 -40 19 -53 18 -22 24 -23 187 -24 164
-1 217 4 237 24 6 6 14 36 18 68 4 31 13 67 20 79 12 24 57 49 102 59 21 4 27
11 27 31 0 66 -58 135 -130 154 -37 10 -454 12 -508 3z"/>
<path d="M64 524 c-59 -29 -80 -106 -45 -163 8 -13 33 -32 55 -42 l40 -18 1
-64 c1 -76 17 -120 51 -137 15 -8 24 -22 24 -37 0 -23 5 -25 55 -25 58 0 65 2
65 21 0 17 12 18 190 18 178 0 190 -1 190 -18 0 -19 6 -21 55 -21 59 0 65 2
65 23 0 11 13 32 30 45 35 30 47 69 45 142 l-2 53 43 18 c44 20 74 61 74 101
0 69 -70 128 -135 116 -49 -9 -91 -57 -93 -106 -3 -50 -26 -106 -48 -114 -22
-8 -424 -9 -446 -1 -22 9 -48 65 -48 105 0 43 -27 86 -66 105 -40 19 -61 19
-100 -1z"/>
</g>
</svg>
