<?xml version="1.0" standalone="no"?>
<!DOCTYPE svg PUBLIC "-//W3C//DTD SVG 20010904//EN"
 "http://www.w3.org/TR/2001/REC-SVG-20010904/DTD/svg10.dtd">
<svg version="1.0" xmlns="http://www.w3.org/2000/svg"
 width="100.000000pt" height="100.000000pt" viewBox="0 0 100.000000 100.000000"
 preserveAspectRatio="xMidYMid meet">
<metadata>
Created by potrace 1.13, written by Peter Selinger 2001-2015
</metadata>
<g transform="translate(0.000000,100.000000) scale(0.100000,-0.100000)"
 stroke="none">
<path d="M250 817 l-245 -143 -3 -297 -2 -297 500 0 500 0 0 295 0 295 -40 25
c-22 14 -57 35 -78 46 -20 11 -53 29 -72 41 -94 55 -207 120 -220 129 -23 14
-89 49 -92 49 -2 0 -113 -65 -248 -143z m100 -214 c30 -17 50 -51 50 -84 0
-29 -30 -78 -52 -85 -22 -7 -24 -24 -3 -24 41 0 97 -61 110 -118 l7 -32 -162
0 -162 0 8 32 c12 57 68 118 108 118 22 0 20 17 -2 24 -22 7 -52 57 -52 86 0
12 8 35 17 50 29 50 83 63 133 33z m400 0 c30 -17 50 -51 50 -84 0 -29 -30
-78 -52 -85 -22 -7 -24 -24 -3 -24 41 0 97 -61 110 -118 l7 -32 -162 0 -162 0
6 32 c9 44 48 92 92 113 l37 17 -26 16 c-47 29 -59 83 -30 132 29 50 83 63
133 33z"/>
</g>
</svg>
