<?xml version="1.0" standalone="no"?>
<!DOCTYPE svg PUBLIC "-//W3C//DTD SVG 20010904//EN"
 "http://www.w3.org/TR/2001/REC-SVG-20010904/DTD/svg10.dtd">
<svg version="1.0" xmlns="http://www.w3.org/2000/svg"
 width="100.000000pt" height="100.000000pt" viewBox="0 0 100.000000 100.000000"
 preserveAspectRatio="xMidYMid meet">
<metadata>
Created by potrace 1.13, written by Peter Selinger 2001-2015
</metadata>
<g transform="translate(0.000000,100.000000) scale(0.100000,-0.100000)"
 stroke="none">
<path d="M745 986 c-36 -16 -70 -52 -79 -83 -4 -13 -20 -30 -36 -39 -28 -17
-50 -52 -50 -79 0 -12 21 -15 114 -15 112 0 115 1 111 21 -6 28 -33 69 -51 76
-37 14 5 53 56 53 67 0 74 -23 75 -217 l0 -163 -25 -1 c-14 0 -207 0 -430 0
-263 -1 -409 -4 -417 -11 -20 -16 -16 -85 5 -100 15 -10 19 -27 20 -83 1 -39
8 -86 16 -106 16 -39 74 -95 113 -110 20 -7 22 -12 14 -28 -6 -10 -21 -21 -35
-25 -28 -7 -39 -38 -22 -62 30 -40 119 12 140 81 6 19 15 20 236 20 l230 0 10
-29 c22 -63 99 -106 134 -76 21 16 10 63 -15 66 -5 1 -13 2 -19 3 -5 0 -14 10
-20 21 -9 17 -6 22 22 34 81 37 118 101 120 207 1 60 5 77 20 87 26 19 26 98
0 106 -17 6 -19 20 -19 174 0 187 -10 224 -64 263 -37 26 -115 34 -154 15z
m139 -634 c-1 -79 -16 -111 -67 -143 -30 -18 -50 -19 -319 -18 -257 2 -291 4
-317 20 -48 29 -63 62 -65 137 l-2 67 50 5 c28 3 202 4 386 3 l335 -2 -1 -69z"/>
</g>
</svg>
