<?xml version="1.0" standalone="no"?>
<!DOCTYPE svg PUBLIC "-//W3C//DTD SVG 20010904//EN"
 "http://www.w3.org/TR/2001/REC-SVG-20010904/DTD/svg10.dtd">
<svg version="1.0" xmlns="http://www.w3.org/2000/svg"
 width="100.000000pt" height="100.000000pt" viewBox="0 0 100.000000 100.000000"
 preserveAspectRatio="xMidYMid meet">
<metadata>
Created by potrace 1.13, written by Peter Selinger 2001-2015
</metadata>
<g transform="translate(0.000000,100.000000) scale(0.100000,-0.100000)"
 stroke="none">
<path d="M9 828 c-5 -9 -9 -158 -9 -332 0 -249 3 -317 13 -328 11 -11 106 -13
491 -13 412 0 478 2 486 15 13 20 13 640 0 660 -8 13 -74 15 -491 15 -441 0
-482 -1 -490 -17z m912 -80 c1 -27 1 -435 0 -461 -1 -16 -26 -17 -422 -15
l-422 3 1 225 c0 124 1 235 1 248 l1 22 420 0 420 0 1 -22z"/>
<path d="M371 110 c-15 -9 -32 -50 -26 -60 7 -11 1 -12 -110 -11 -92 0 -115
-5 -115 -25 0 -12 58 -14 387 -14 379 0 386 0 369 19 -14 15 -31 19 -89 19
-138 1 -136 0 -132 21 2 11 -2 27 -10 37 -11 16 -30 18 -139 19 -70 0 -130 -2
-135 -5z"/>
</g>
</svg>
