<?xml version="1.0" encoding="UTF-8" standalone="no"?>
<!-- Generator: Adobe Illustrator 18.1.1, SVG Export Plug-In . SVG Version: 6.00 Build 0)  -->

<svg
   xmlns:dc="http://purl.org/dc/elements/1.1/"
   xmlns:cc="http://creativecommons.org/ns#"
   xmlns:rdf="http://www.w3.org/1999/02/22-rdf-syntax-ns#"
   xmlns:svg="http://www.w3.org/2000/svg"
   xmlns="http://www.w3.org/2000/svg"
   xmlns:sodipodi="http://sodipodi.sourceforge.net/DTD/sodipodi-0.dtd"
   xmlns:inkscape="http://www.inkscape.org/namespaces/inkscape"
   version="1.1"
   id="Capa_1"
   x="0px"
   y="0px"
   viewBox="0 0 76 76"
   style="enable-background:new 0 0 76 76;"
   xml:space="preserve"
   inkscape:version="0.48.4 r9939"
   width="100%"
   height="100%"
   sodipodi:docname="back.svg"><metadata
     id="metadata39"><rdf:RDF><cc:Work
         rdf:about=""><dc:format>image/svg+xml</dc:format><dc:type
           rdf:resource="http://purl.org/dc/dcmitype/StillImage" /><dc:title /></cc:Work></rdf:RDF></metadata><defs
     id="defs37" /><sodipodi:namedview
     pagecolor="#ffffff"
     bordercolor="#666666"
     borderopacity="1"
     objecttolerance="10"
     gridtolerance="10"
     guidetolerance="10"
     inkscape:pageopacity="0"
     inkscape:pageshadow="2"
     inkscape:window-width="1855"
     inkscape:window-height="941"
     id="namedview35"
     showgrid="false"
     inkscape:zoom="3.1052632"
     inkscape:cx="-71.043103"
     inkscape:cy="34.768878"
     inkscape:window-x="63"
     inkscape:window-y="24"
     inkscape:window-maximized="0"
     inkscape:current-layer="Capa_1" /><path
     inkscape:connector-curvature="0"
     style="fill:#ffffff;fill-opacity:1"
     d="m 45.9,55.9 c -0.4,0.4 -0.9,0.6 -1.4,0.6 -0.5,0 -1,-0.2 -1.4,-0.6 L 26.1,39 c -0.8,-0.8 -0.8,-2 0,-2.8 L 42.2,20.1 c 0.8,-0.8 2.1,-0.8 2.8,0 0.8,0.8 0.8,2 0,2.8 L 30.4,37.6 45.9,53.1 c 0.7,0.8 0.7,2 0,2.8 z M 76,38 C 76,59 59,76 38,76 17,76 0,59 0,38 0,17 17,0 38,0 59,0 76,17 76,38 z m -4,0 C 72,19.2 56.8,4 38,4 19.2,4 4,19.2 4,38 4,56.8 19.2,72 38,72 56.8,72 72,56.8 72,38 z"
     id="Left_Arrow" /><g
     id="g5"
     style="fill:#ffffff" /><g
     id="g7"
     style="fill:#ffffff" /><g
     id="g9"
     style="fill:#ffffff" /><g
     id="g11"
     style="fill:#ffffff" /><g
     id="g13"
     style="fill:#ffffff" /><g
     id="g15"
     style="fill:#ffffff" /><g
     id="g17"
     style="fill:#ffffff" /><g
     id="g19"
     style="fill:#ffffff" /><g
     id="g21"
     style="fill:#ffffff" /><g
     id="g23"
     style="fill:#ffffff" /><g
     id="g25"
     style="fill:#ffffff" /><g
     id="g27"
     style="fill:#ffffff" /><g
     id="g29"
     style="fill:#ffffff" /><g
     id="g31"
     style="fill:#ffffff" /><g
     id="g33"
     style="fill:#ffffff" /></svg>