<?xml version="1.0" encoding="UTF-8" standalone="no"?>
<!-- Generator: Adobe Illustrator 16.0.0, SVG Export Plug-In . SVG Version: 6.00 Build 0)  -->

<svg
   xmlns:dc="http://purl.org/dc/elements/1.1/"
   xmlns:cc="http://creativecommons.org/ns#"
   xmlns:rdf="http://www.w3.org/1999/02/22-rdf-syntax-ns#"
   xmlns:svg="http://www.w3.org/2000/svg"
   xmlns="http://www.w3.org/2000/svg"
   xmlns:sodipodi="http://sodipodi.sourceforge.net/DTD/sodipodi-0.dtd"
   xmlns:inkscape="http://www.inkscape.org/namespaces/inkscape"
   version="1.1"
   id="Capa_1"
   x="0px"
   y="0px"
   width="44.238px"
   height="44.238px"
   viewBox="0 0 44.238 44.238"
   style="enable-background:new 0 0 44.238 44.238;"
   xml:space="preserve"
   inkscape:version="0.48.4 r9939"
   sodipodi:docname="menubar.svg"><metadata
     id="metadata55"><rdf:RDF><cc:Work
         rdf:about=""><dc:format>image/svg+xml</dc:format><dc:type
           rdf:resource="http://purl.org/dc/dcmitype/StillImage" /><dc:title></dc:title></cc:Work></rdf:RDF></metadata><defs
     id="defs53" /><sodipodi:namedview
     pagecolor="#000000"
     bordercolor="#666666"
     borderopacity="1"
     objecttolerance="10"
     gridtolerance="10"
     guidetolerance="10"
     inkscape:pageopacity="0.54509804"
     inkscape:pageshadow="2"
     inkscape:window-width="927"
     inkscape:window-height="941"
     id="namedview51"
     showgrid="false"
     inkscape:zoom="5.3347802"
     inkscape:cx="22.988394"
     inkscape:cy="22.118999"
     inkscape:window-x="65"
     inkscape:window-y="24"
     inkscape:window-maximized="0"
     inkscape:current-layer="Capa_1" /><g
     id="g9"
     style="fill:#ffffff;fill-opacity:1"
     transform="matrix(1.6147095,0,0,3.6908558,-13.596145,-60.351532)"><path
       d="M 31.432,23.206 H 12.805 c -0.414,0 -0.75,-0.336 -0.75,-0.75 0,-0.414 0.336,-0.75 0.75,-0.75 h 18.626 c 0.414,0 0.75,0.336 0.75,0.75 0,0.414 -0.335,0.75 -0.749,0.75 z"
       id="path11"
       inkscape:connector-curvature="0"
       style="fill:#ffffff;fill-opacity:1" /></g><g
     id="g13"
     style="fill:#ffffff;fill-opacity:1"
     transform="matrix(1.6147095,0,0,3.6908558,-13.596145,-50.351532)"><path
       d="M 31.432,17.17 H 12.805 c -0.414,0 -0.75,-0.336 -0.75,-0.75 0,-0.414 0.336,-0.75 0.75,-0.75 h 18.626 c 0.414,0 0.75,0.336 0.75,0.75 0,0.414 -0.335,0.75 -0.749,0.75 z"
       id="path15"
       inkscape:connector-curvature="0"
       style="fill:#ffffff;fill-opacity:1" /></g><g
     id="g17"
     style="fill:#ffffff;fill-opacity:1"
     transform="matrix(1.6147095,0,0,3.6908558,-13.596145,-70.351532)"><path
       d="M 31.432,29.254 H 12.805 c -0.414,0 -0.75,-0.336 -0.75,-0.75 0,-0.414 0.336,-0.75 0.75,-0.75 h 18.626 c 0.414,0 0.75,0.336 0.75,0.75 0,0.414 -0.335,0.75 -0.749,0.75 z"
       id="path19"
       inkscape:connector-curvature="0"
       style="fill:#ffffff;fill-opacity:1" /></g><g
     id="g21"
     style="fill:#ffffff;fill-opacity:1" /><g
     id="g23"
     style="fill:#ffffff;fill-opacity:1" /><g
     id="g25"
     style="fill:#ffffff;fill-opacity:1" /><g
     id="g27"
     style="fill:#ffffff;fill-opacity:1" /><g
     id="g29"
     style="fill:#ffffff;fill-opacity:1" /><g
     id="g31"
     style="fill:#ffffff;fill-opacity:1" /><g
     id="g33"
     style="fill:#ffffff;fill-opacity:1" /><g
     id="g35"
     style="fill:#ffffff;fill-opacity:1" /><g
     id="g37"
     style="fill:#ffffff;fill-opacity:1" /><g
     id="g39"
     style="fill:#ffffff;fill-opacity:1" /><g
     id="g41"
     style="fill:#ffffff;fill-opacity:1" /><g
     id="g43"
     style="fill:#ffffff;fill-opacity:1" /><g
     id="g45"
     style="fill:#ffffff;fill-opacity:1" /><g
     id="g47"
     style="fill:#ffffff;fill-opacity:1" /><g
     id="g49"
     style="fill:#ffffff;fill-opacity:1" /></svg>