<?xml version="1.0" encoding="UTF-8" standalone="no"?>
<!-- Generator: Adobe Illustrator 16.0.0, SVG Export Plug-In . SVG Version: 6.00 Build 0)  -->

<svg
   xmlns:dc="http://purl.org/dc/elements/1.1/"
   xmlns:cc="http://creativecommons.org/ns#"
   xmlns:rdf="http://www.w3.org/1999/02/22-rdf-syntax-ns#"
   xmlns:svg="http://www.w3.org/2000/svg"
   xmlns="http://www.w3.org/2000/svg"
   xmlns:sodipodi="http://sodipodi.sourceforge.net/DTD/sodipodi-0.dtd"
   xmlns:inkscape="http://www.inkscape.org/namespaces/inkscape"
   version="1.1"
   id="Capa_1"
   x="0px"
   y="0px"
   width="512"
   height="512"
   viewBox="0 0 512 512"
   enable-background="new 0 0 512 512"
   xml:space="preserve"
   inkscape:version="0.91 r13725"
   sodipodi:docname="setfavposition.svg"><metadata
     id="metadata4151"><rdf:RDF><cc:Work
         rdf:about=""><dc:format>image/svg+xml</dc:format><dc:type
           rdf:resource="http://purl.org/dc/dcmitype/StillImage" /><dc:title></dc:title></cc:Work></rdf:RDF></metadata><defs
     id="defs4149" /><sodipodi:namedview
     pagecolor="#ffffff"
     bordercolor="#666666"
     borderopacity="1"
     objecttolerance="10"
     gridtolerance="10"
     guidetolerance="10"
     inkscape:pageopacity="0"
     inkscape:pageshadow="2"
     inkscape:window-width="1534"
     inkscape:window-height="878"
     id="namedview4147"
     showgrid="false"
     inkscape:zoom="0.6138847"
     inkscape:cx="372.1108"
     inkscape:cy="335.52958"
     inkscape:window-x="-8"
     inkscape:window-y="-8"
     inkscape:window-maximized="1"
     inkscape:current-layer="Capa_1"
     showguides="true"
     inkscape:guide-bbox="true"
     inkscape:snap-intersection-paths="true"
     inkscape:snap-object-midpoints="true"
     inkscape:snap-grids="true"
     inkscape:snap-bbox="true"
     inkscape:object-paths="true"
     inkscape:object-nodes="true"
     inkscape:snap-smooth-nodes="true"
     inkscape:snap-midpoints="true" /><path
     style="opacity:1;fill-opacity:1;stroke:none;stroke-width:7.56763363;stroke-miterlimit:4;stroke-dasharray:none;stroke-opacity:1"
     d="m 346.13156,213.02318 c 0,16.99193 -8.24177,82.49056 -89.99354,132.17592 -81.75176,-49.68536 -90.00646,-115.18399 -90.00646,-132.17592 0,-59.95512 55.59247,-57.02893 90,-20.80919 35.83799,-36.21974 90,-42.19656 90,20.80919 z"
     id="path7617-0"
     inkscape:connector-curvature="0"
     sodipodi:nodetypes="scscs" /><path
     sodipodi:nodetypes="scscs"
     inkscape:connector-curvature="0"
     id="path7716-0"
     d="m 350.38164,227.78604 c 0,17.81671 -8.64303,86.4946 -94.37487,138.59165 -85.73183,-52.09705 -94.38841,-120.77494 -94.38841,-138.59165 0,-62.8653 58.29898,-59.79707 94.38164,-21.81925 37.58275,-37.97782 94.38164,-44.24476 94.38164,21.81925 z"
     style="opacity:1;fill-opacity:1;stroke-width:18.23673248;stroke-linecap:round;stroke-linejoin:round;stroke-miterlimit:4;stroke-dasharray:none;stroke-opacity:1" /><path
     inkscape:connector-curvature="0"
     id="path9-6"
     d="M 256,0 C 114.609,0 0,114.609 0,256 0,397.392 114.608,512 256,512 397.391,512 512,397.392 512,256 512,114.609 397.391,0 256,0 Z m 0,472 C 136.70299,472 40,375.29701 40,256 40,136.70299 136.70299,39.999996 256,39.999996 c 119.29701,0 216,96.702994 216,216.000004 0,119.29701 -96.70299,216 -216,216 z" /></svg>