<?xml version="1.0" encoding="UTF-8" standalone="no"?>
<!-- Generator: Adobe Illustrator 16.0.0, SVG Export Plug-In . SVG Version: 6.00 Build 0)  -->

<svg
   xmlns:osb="http://www.openswatchbook.org/uri/2009/osb"
   xmlns:dc="http://purl.org/dc/elements/1.1/"
   xmlns:cc="http://creativecommons.org/ns#"
   xmlns:rdf="http://www.w3.org/1999/02/22-rdf-syntax-ns#"
   xmlns:svg="http://www.w3.org/2000/svg"
   xmlns="http://www.w3.org/2000/svg"
   xmlns:sodipodi="http://sodipodi.sourceforge.net/DTD/sodipodi-0.dtd"
   xmlns:inkscape="http://www.inkscape.org/namespaces/inkscape"
   version="1.1"
   id="Capa_1"
   x="0px"
   y="0px"
   width="612"
   height="612"
   viewBox="0 0 611.99999 611.99999"
   enable-background="new 0 0 66.137 66.137"
   xml:space="preserve"
   inkscape:version="0.91 r13725"
   sodipodi:docname="stepdown.svg"><metadata
     id="metadata4164"><rdf:RDF><cc:Work
         rdf:about=""><dc:format>image/svg+xml</dc:format><dc:type
           rdf:resource="http://purl.org/dc/dcmitype/StillImage" /><dc:title /></cc:Work></rdf:RDF></metadata><defs
     id="defs4162"><linearGradient
       id="linearGradient4756"
       osb:paint="solid"><stop
         style="stop-color:#00c1df;stop-opacity:1;"
         offset="0"
         id="stop4758" /></linearGradient><linearGradient
       id="linearGradient4750"
       osb:paint="solid"><stop
         style="stop-color:#00c1df;stop-opacity:1;"
         offset="0"
         id="stop4752" /></linearGradient><linearGradient
       id="linearGradient4744"
       osb:paint="solid"><stop
         style="stop-color:#00c1df;stop-opacity:1;"
         offset="0"
         id="stop4746" /></linearGradient><linearGradient
       id="linearGradient4738"
       osb:paint="solid"><stop
         style="stop-color:#00c1df;stop-opacity:1;"
         offset="0"
         id="stop4740" /></linearGradient></defs><sodipodi:namedview
     pagecolor="#ffffff"
     bordercolor="#666666"
     borderopacity="1"
     objecttolerance="10"
     gridtolerance="10"
     guidetolerance="10"
     inkscape:pageopacity="0"
     inkscape:pageshadow="2"
     inkscape:window-width="1534"
     inkscape:window-height="878"
     id="namedview4160"
     showgrid="false"
     inkscape:zoom="1.3738462"
     inkscape:cx="263.51629"
     inkscape:cy="269.27613"
     inkscape:window-x="-8"
     inkscape:window-y="-8"
     inkscape:window-maximized="1"
     inkscape:current-layer="g8094"><inkscape:grid
       type="xygrid"
       id="grid8112" /></sodipodi:namedview><g
     id="g8077"
     transform="matrix(10,0,0,10,-7.5633429,-49.470652)"><g
       id="g8094"><path
         inkscape:connector-curvature="0"
         d="m 32.697159,39.297565 c -0.408161,0.408189 -0.941098,0.603697 -1.478302,0.603697 -0.537102,0 -1.070039,-0.195711 -1.4782,-0.603697 L 16.236988,25.792991 c -0.811954,-0.81211 -0.811954,-2.132093 0,-2.944101 0.812055,-0.81211 2.13195,-0.81211 2.944005,0 L 31.218857,34.887664 43.256925,22.84889 c 0.811954,-0.81211 2.131949,-0.81211 2.943903,0 0.811953,0.812008 0.811953,2.132093 0,2.944101 L 32.697159,39.297565 Z"
         id="path6406" /><path
         style="color:#000000;font-style:normal;font-variant:normal;font-weight:normal;font-stretch:normal;font-size:medium;line-height:normal;font-family:sans-serif;text-indent:0;text-align:start;text-decoration:none;text-decoration-line:none;text-decoration-style:solid;text-decoration-color:#000000;letter-spacing:normal;word-spacing:normal;text-transform:none;direction:ltr;block-progression:tb;writing-mode:lr-tb;baseline-shift:baseline;text-anchor:start;white-space:normal;clip-rule:nonzero;display:inline;overflow:visible;visibility:visible;opacity:1;isolation:auto;mix-blend-mode:normal;color-interpolation:sRGB;color-interpolation-filters:linearRGB;solid-color:#000000;solid-opacity:1;fill-opacity:1;fill-rule:evenodd;stroke:none;stroke-width:4.0689888;stroke-linecap:round;stroke-linejoin:miter;stroke-miterlimit:4;stroke-dasharray:none;stroke-dashoffset:0;stroke-opacity:1;color-rendering:auto;image-rendering:auto;shape-rendering:auto;text-rendering:auto;enable-background:accumulate"
         d="m 15.572266,43.566406 a 2.0346978,2.0346978 0 1 0 0,4.06836 l 31.568359,0 a 2.0346978,2.0346978 0 1 0 0,-4.06836 l -31.568359,0 z"
         id="path8114"
         inkscape:connector-curvature="0" /><path
         inkscape:connector-curvature="0"
         id="path9"
         d="m 31.356333,4.9470662 c -16.9003,0 -30.59999871,13.6965168 -30.59999871,30.6020488 0,16.905633 13.70379871,30.59795 30.59999871,30.59795 16.8961,0 30.6,-13.700618 30.6,-30.60205 0,-16.901432 -13.6998,-30.5979488 -30.6,-30.5979488 z m 0,57.1017248 c -14.6136,0 -26.5019987,-11.885097 -26.5019987,-26.507876 0,-14.62278 11.8883987,-26.5036748 26.5019987,-26.5036748 14.6136,0 26.5019,11.8933958 26.5019,26.5037748 0,14.610378 -11.8843,26.507776 -26.5019,26.507776 z" /></g></g></svg>