<?xml version="1.0" encoding="UTF-8" standalone="no"?>
<!-- Generator: Adobe Illustrator 16.0.0, SVG Export Plug-In . SVG Version: 6.00 Build 0)  -->

<svg
   xmlns:osb="http://www.openswatchbook.org/uri/2009/osb"
   xmlns:dc="http://purl.org/dc/elements/1.1/"
   xmlns:cc="http://creativecommons.org/ns#"
   xmlns:rdf="http://www.w3.org/1999/02/22-rdf-syntax-ns#"
   xmlns:svg="http://www.w3.org/2000/svg"
   xmlns="http://www.w3.org/2000/svg"
   xmlns:sodipodi="http://sodipodi.sourceforge.net/DTD/sodipodi-0.dtd"
   xmlns:inkscape="http://www.inkscape.org/namespaces/inkscape"
   version="1.1"
   id="Capa_1"
   x="0px"
   y="0px"
   width="612"
   height="612"
   viewBox="0 0 611.99999 611.99999"
   enable-background="new 0 0 66.137 66.137"
   xml:space="preserve"
   inkscape:version="0.91 r13725"
   sodipodi:docname="stepup.svg"><metadata
     id="metadata4164"><rdf:RDF><cc:Work
         rdf:about=""><dc:format>image/svg+xml</dc:format><dc:type
           rdf:resource="http://purl.org/dc/dcmitype/StillImage" /><dc:title /></cc:Work></rdf:RDF></metadata><defs
     id="defs4162"><linearGradient
       id="linearGradient4756"
       osb:paint="solid"><stop
         style="stop-color:#00c1df;stop-opacity:1;"
         offset="0"
         id="stop4758" /></linearGradient><linearGradient
       id="linearGradient4750"
       osb:paint="solid"><stop
         style="stop-color:#00c1df;stop-opacity:1;"
         offset="0"
         id="stop4752" /></linearGradient><linearGradient
       id="linearGradient4744"
       osb:paint="solid"><stop
         style="stop-color:#00c1df;stop-opacity:1;"
         offset="0"
         id="stop4746" /></linearGradient><linearGradient
       id="linearGradient4738"
       osb:paint="solid"><stop
         style="stop-color:#00c1df;stop-opacity:1;"
         offset="0"
         id="stop4740" /></linearGradient><pattern
       y="0"
       x="0"
       height="6"
       width="6"
       patternUnits="userSpaceOnUse"
       id="EMFhbasepattern" /></defs><sodipodi:namedview
     pagecolor="#ffffff"
     bordercolor="#666666"
     borderopacity="1"
     objecttolerance="10"
     gridtolerance="10"
     guidetolerance="10"
     inkscape:pageopacity="0"
     inkscape:pageshadow="2"
     inkscape:window-width="1534"
     inkscape:window-height="878"
     id="namedview4160"
     showgrid="false"
     inkscape:zoom="1"
     inkscape:cx="251.69048"
     inkscape:cy="317.82098"
     inkscape:window-x="-8"
     inkscape:window-y="-8"
     inkscape:window-maximized="1"
     inkscape:current-layer="Capa_1"
     showguides="false"><inkscape:grid
       type="xygrid"
       id="grid8112" /></sodipodi:namedview><path
     inkscape:connector-curvature="0"
     d="M 304.99999,2 C 136.54929,2 0,138.51758 0,307.02044 0,475.52429 136.59016,612 304.99999,612 473.40884,612 610,475.44155 610,306.97957 610,138.51758 473.44971,2 304.99999,2 Z m 0,569.15119 c -145.65843,0 -264.153911,-118.46256 -264.153911,-264.2125 0,-145.74992 118.495481,-264.170616 264.153911,-264.170616 145.65844,0 264.15294,118.545296 264.15294,264.171616 0,145.62633 -118.45463,264.2115 -264.15294,264.2115 z"
     id="path6404" /><path
     inkscape:connector-curvature="0"
     d="m 318.16675,274.08145 c -4.00809,-4.017 -9.24147,-5.941 -14.51675,-5.941 -5.27428,0 -10.50765,1.926 -14.51575,5.941 l -132.6044,132.899 c -7.97329,7.992 -7.97329,20.982 0,28.973 7.97428,7.992 20.93549,7.992 28.90977,0 l 118.21038,-118.474 118.21238,118.474 c 7.97329,7.992 20.93549,7.992 28.90878,0 7.97328,-7.991 7.97328,-20.982 0,-28.973 l -132.60441,-132.899 z"
     id="path6406" /><path
     style="color:#000000;font-style:normal;font-variant:normal;font-weight:normal;font-stretch:normal;font-size:medium;line-height:normal;font-family:sans-serif;text-indent:0;text-align:start;text-decoration:none;text-decoration-line:none;text-decoration-style:solid;text-decoration-color:#000000;letter-spacing:normal;word-spacing:normal;text-transform:none;direction:ltr;block-progression:tb;writing-mode:lr-tb;baseline-shift:baseline;text-anchor:start;white-space:normal;clip-rule:nonzero;display:inline;overflow:visible;visibility:visible;opacity:1;isolation:auto;mix-blend-mode:normal;color-interpolation:sRGB;color-interpolation-filters:linearRGB;solid-color:#000000;solid-opacity:1;fill-opacity:1;fill-rule:evenodd;stroke:none;stroke-width:40;stroke-linecap:round;stroke-linejoin:miter;stroke-miterlimit:4;stroke-dasharray:none;stroke-dashoffset:0;stroke-opacity:1;color-rendering:auto;image-rendering:auto;shape-rendering:auto;text-rendering:auto;enable-background:accumulate"
     d="m 150,192.05469 a 20.002,20.002 0 1 0 0,40 l 310,0 a 20.002,20.002 0 1 0 0,-40 l -310,0 z"
     id="path8114"
     inkscape:connector-curvature="0" /></svg>