<?xml version="1.0" standalone="no"?>
<!DOCTYPE svg PUBLIC "-//W3C//DTD SVG 20010904//EN"
 "http://www.w3.org/TR/2001/REC-SVG-20010904/DTD/svg10.dtd">
<svg version="1.0" xmlns="http://www.w3.org/2000/svg"
 width="100.000000pt" height="100.000000pt" viewBox="0 0 100.000000 100.000000"
 preserveAspectRatio="xMidYMid meet">
<metadata>
Created by potrace 1.10, written by Peter Selinger 2001-2011
</metadata>
<g transform="translate(0.000000,100.000000) scale(0.050000,-0.050000)"
stroke="none">
<path d="M0 1920 l0 -80 121 0 c175 0 169 -67 -6 -76 l-115 -6 0 -69 0 -69
120 0 c107 0 120 -4 120 -40 0 -36 -13 -40 -120 -40 l-120 0 0 -80 0 -80 121
0 c175 0 169 -67 -6 -76 l-115 -6 0 -69 0 -69 120 0 c107 0 120 -4 120 -40 0
-36 -13 -40 -120 -40 l-120 0 0 -81 0 -81 155 6 c85 3 153 13 150 21 -3 8 -5
249 -5 535 l0 520 -150 0 -150 0 0 -80z"/>
<path d="M380 1920 l0 -80 580 0 c567 0 580 -1 580 -40 0 -39 -13 -40 -580
-40 l-580 0 0 -70 0 -70 580 0 c567 0 580 -1 580 -40 0 -39 -13 -40 -580 -40
l-580 0 0 -80 0 -80 580 0 c567 0 580 -1 580 -40 0 -39 -13 -40 -580 -40
l-580 0 0 -70 0 -70 580 0 c567 0 580 -1 580 -40 0 -39 -13 -40 -580 -40
l-580 0 0 -80 0 -80 620 0 620 0 0 540 0 540 -620 0 -620 0 0 -80z"/>
<path d="M1700 1920 l0 -80 150 0 150 0 0 80 0 80 -150 0 -150 0 0 -80z"/>
<path d="M1690 1690 l0 -70 155 0 155 0 0 70 0 70 -155 0 -155 0 0 -70z"/>
<path d="M1692 1465 l2 -75 153 -6 153 -6 0 81 0 81 -155 0 -155 0 2 -75z"/>
<path d="M1690 1230 l0 -70 155 0 155 0 0 70 0 70 -155 0 -155 0 0 -70z"/>
<path d="M1698 1075 c-1 -3 -3 -36 -5 -75 l-3 -70 155 -6 155 -6 0 81 0 81
-150 0 c-82 0 -151 -2 -152 -5z"/>
<path d="M300 459 c0 -516 -87 -459 700 -459 787 0 700 -57 700 459 l0 381
-80 0 -80 0 0 -340 0 -340 -540 0 -540 0 0 340 0 340 -80 0 -80 0 0 -381z"/>
</g>
</svg>
