<?xml version="1.0" encoding="UTF-8" standalone="no"?>
<!-- Generator: Adobe Illustrator 16.0.0, SVG Export Plug-In . SVG Version: 6.00 Build 0)  -->

<svg
   xmlns:dc="http://purl.org/dc/elements/1.1/"
   xmlns:cc="http://creativecommons.org/ns#"
   xmlns:rdf="http://www.w3.org/1999/02/22-rdf-syntax-ns#"
   xmlns:svg="http://www.w3.org/2000/svg"
   xmlns="http://www.w3.org/2000/svg"
   xmlns:sodipodi="http://sodipodi.sourceforge.net/DTD/sodipodi-0.dtd"
   xmlns:inkscape="http://www.inkscape.org/namespaces/inkscape"
   version="1.1"
   id="Layer_1"
   x="0px"
   y="0px"
   width="476.283px"
   height="149.967px"
   viewBox="0 0 476.283 149.967"
   enable-background="new 0 0 476.283 149.967"
   xml:space="preserve"
   inkscape:version="0.91 r13725"
   sodipodi:docname="elite_logo.svg"><metadata
     id="metadata61"><rdf:RDF><cc:Work
         rdf:about=""><dc:format>image/svg+xml</dc:format><dc:type
           rdf:resource="http://purl.org/dc/dcmitype/StillImage" /></cc:Work></rdf:RDF></metadata><defs
     id="defs59" /><sodipodi:namedview
     pagecolor="#ffffff"
     bordercolor="#666666"
     borderopacity="1"
     objecttolerance="10"
     gridtolerance="10"
     guidetolerance="10"
     inkscape:pageopacity="0"
     inkscape:pageshadow="2"
     inkscape:window-width="1855"
     inkscape:window-height="969"
     id="namedview57"
     showgrid="false"
     inkscape:zoom="3.5274947"
     inkscape:cx="100.10547"
     inkscape:cy="95.334914"
     inkscape:window-x="65"
     inkscape:window-y="24"
     inkscape:window-maximized="1"
     inkscape:current-layer="Layer_1" /><path
     d="M 31.972656 36.308594 L 31.972656 60.978516 L 50.984375 60.978516 L 50.984375 36.308594 L 31.972656 36.308594 z M 36.210938 46.478516 L 46.951172 46.478516 L 46.951172 56.59375 L 36.210938 56.59375 L 36.210938 46.478516 z "
     id="rect3"
     style="fill:#134574;fill-opacity:1" /><polygon
     fill="#565656"
     points="99.532,95.244 99.532,0 168.398,0 168.398,11.24 112.136,11.24 112.136,40.411 164.825,40.411   164.825,51.584 112.136,51.584 112.136,84.003 170.607,84.003 170.607,95.244 "
     id="polygon5" /><polygon
     fill="#565656"
     points="189.118,95.244 189.118,0 201.722,0 201.722,84.003 248.629,84.003 248.629,95.244 "
     id="polygon7" /><rect
     x="267.4"
     fill="#565656"
     width="12.604"
     height="95.243"
     id="rect9" /><polygon
     fill="#565656"
     points="328.075,95.244 328.075,11.24 296.694,11.24 296.694,0 372.188,0 372.188,11.24 340.679,11.24   340.679,95.244 "
     id="polygon11" /><polygon
     fill="#565656"
     points="386.992,95.244 386.992,0 455.858,0 455.858,11.24 399.597,11.24 399.597,40.411 452.286,40.411   452.286,51.584 399.597,51.584 399.597,84.003 458.067,84.003 458.067,95.244 "
     id="polygon13" /><path
     fill="#555655"
     d="M8.188,138.055l4.393-0.385c0.211,1.764,0.695,3.208,1.456,4.338c0.758,1.128,1.94,2.04,3.54,2.738  c1.604,0.694,3.403,1.045,5.406,1.045c1.776,0,3.343-0.267,4.706-0.794c1.361-0.528,2.373-1.252,3.038-2.173  c0.665-0.919,0.998-1.925,0.998-3.015c0-1.104-0.321-2.069-0.96-2.894c-0.643-0.823-1.7-1.518-3.17-2.075  c-0.947-0.37-3.034-0.942-6.271-1.72c-3.233-0.775-5.498-1.51-6.795-2.197c-1.681-0.88-2.934-1.974-3.757-3.277  c-0.828-1.305-1.238-2.768-1.238-4.387c0-1.772,0.502-3.436,1.512-4.979c1.009-1.544,2.483-2.72,4.418-3.518  c1.94-0.803,4.09-1.204,6.463-1.204c2.608,0,4.91,0.421,6.906,1.263c1.992,0.839,3.524,2.077,4.596,3.71  c1.075,1.633,1.651,3.479,1.729,5.551l-4.466,0.332c-0.24-2.226-1.053-3.907-2.436-5.041c-1.385-1.138-3.433-1.707-6.136-1.707  c-2.82,0-4.874,0.518-6.161,1.548c-1.288,1.035-1.935,2.281-1.935,3.736c0,1.264,0.458,2.306,1.37,3.122  c0.895,0.816,3.237,1.651,7.025,2.509c3.787,0.857,6.384,1.607,7.792,2.246c2.049,0.946,3.561,2.143,4.54,3.593  c0.975,1.447,1.463,3.117,1.463,5.005c0,1.874-0.536,3.64-1.607,5.295c-1.075,1.659-2.616,2.948-4.623,3.868  c-2.01,0.92-4.271,1.379-6.787,1.379c-3.185,0-5.856-0.462-8.006-1.39c-2.154-0.931-3.843-2.328-5.07-4.193  C8.898,142.518,8.251,140.412,8.188,138.055"
     id="path15" /><path
     fill="#555655"
     d="M48.583,149.369v-35.208h7.012l8.333,24.929c0.768,2.32,1.33,4.058,1.681,5.21  c0.402-1.278,1.027-3.159,1.873-5.642l8.432-24.497h6.266v35.208h-4.49v-29.47l-10.23,29.47h-4.206l-10.182-29.973v29.973H48.583z"
     id="path17" /><path
     fill="#555655"
     d="M91.979,149.369l13.523-35.208h5.017l14.41,35.208h-5.306l-4.108-10.663h-14.719l-3.869,10.663H91.979z   M102.14,134.911h11.933l-3.672-9.751c-1.123-2.963-1.954-5.394-2.497-7.3c-0.452,2.257-1.083,4.499-1.899,6.725L102.14,134.911z"
     id="path19" /><path
     fill="#555655"
     d="M134.873,149.369V114.16h15.61c3.14,0,5.524,0.318,7.157,0.951c1.633,0.632,2.938,1.747,3.917,3.347  c0.975,1.604,1.463,3.373,1.463,5.31c0,2.498-0.809,4.604-2.424,6.314c-1.618,1.715-4.116,2.805-7.493,3.266  c1.231,0.595,2.169,1.18,2.809,1.755c1.364,1.25,2.649,2.813,3.868,4.682l6.123,9.585h-5.86l-4.659-7.323  c-1.36-2.114-2.479-3.732-3.361-4.855c-0.879-1.118-1.667-1.902-2.365-2.349c-0.695-0.452-1.405-0.762-2.125-0.938  c-0.529-0.111-1.394-0.172-2.594-0.172h-5.405v15.638H134.873z M139.532,129.697h10.016c2.129,0,3.795-0.218,4.996-0.657  c1.201-0.44,2.113-1.146,2.738-2.112c0.625-0.969,0.935-2.022,0.935-3.16c0-1.667-0.602-3.034-1.81-4.104  c-1.212-1.075-3.119-1.61-5.731-1.61h-11.143V129.697z"
     id="path21" /><polygon
     fill="#555655"
     points="185.428,149.369 185.428,118.317 173.826,118.317 173.826,114.161 201.733,114.161 201.733,118.317   190.087,118.317 190.087,149.369 "
     id="polygon23" /><path
     fill="#555655"
     d="M230.889,138.055l4.397-0.385c0.207,1.764,0.69,3.208,1.451,4.338c0.761,1.128,1.94,2.04,3.544,2.738  c1.601,0.694,3.403,1.045,5.402,1.045c1.776,0,3.347-0.267,4.706-0.794c1.364-0.528,2.376-1.252,3.037-2.173  c0.665-0.919,0.997-1.925,0.997-3.015c0-1.104-0.316-2.069-0.959-2.894c-0.639-0.823-1.696-1.518-3.171-2.075  c-0.942-0.37-3.033-0.942-6.267-1.72c-3.235-0.775-5.502-1.51-6.799-2.197c-1.681-0.88-2.933-1.974-3.757-3.277  c-0.824-1.305-1.238-2.768-1.238-4.387c0-1.772,0.507-3.436,1.515-4.979c1.009-1.544,2.479-2.72,4.419-3.518  c1.938-0.803,4.091-1.204,6.46-1.204c2.611,0,4.91,0.421,6.904,1.263c1.992,0.839,3.526,2.077,4.601,3.71  c1.071,1.633,1.647,3.479,1.729,5.551l-4.467,0.332c-0.241-2.226-1.054-3.907-2.439-5.041c-1.385-1.138-3.428-1.707-6.136-1.707  c-2.816,0-4.87,0.518-6.16,1.548c-1.29,1.035-1.933,2.281-1.933,3.736c0,1.264,0.454,2.306,1.367,3.122  c0.898,0.816,3.24,1.651,7.024,2.509c3.786,0.857,6.385,1.607,7.795,2.246c2.048,0.946,3.563,2.143,4.538,3.593  c0.975,1.447,1.466,3.117,1.466,5.005c0,1.874-0.538,3.64-1.61,5.295c-1.071,1.659-2.611,2.948-4.622,3.868  s-4.271,1.379-6.784,1.379c-3.188,0-5.855-0.462-8.01-1.39c-2.154-0.931-3.844-2.328-5.069-4.193  C231.599,142.518,230.955,140.412,230.889,138.055"
     id="path25" /><polygon
     fill="#555655"
     points="271.572,149.369 271.572,114.161 276.231,114.161 276.231,128.619 294.532,128.619 294.532,114.161   299.191,114.161 299.191,149.369 294.532,149.369 294.532,132.772 276.231,132.772 276.231,149.369 "
     id="polygon27" /><path
     fill="#555655"
     d="M309.23,149.369l13.522-35.208h5.017l14.41,35.208h-5.306l-4.108-10.663h-14.72l-3.865,10.663H309.23z   M319.391,134.911h11.934l-3.672-9.751c-1.12-2.963-1.955-5.394-2.497-7.3c-0.448,2.257-1.08,4.499-1.899,6.725L319.391,134.911z"
     id="path29" /><path
     fill="#555655"
     d="M352.054,149.369v-35.208h12.129c2.733,0,4.826,0.166,6.268,0.506c2.016,0.462,3.738,1.305,5.165,2.521  c1.854,1.569,3.243,3.572,4.164,6.015c0.92,2.441,1.382,5.231,1.382,8.371c0,2.672-0.314,5.041-0.936,7.109  c-0.628,2.062-1.426,3.772-2.401,5.124c-0.979,1.353-2.047,2.42-3.207,3.196c-1.16,0.775-2.564,1.364-4.205,1.767  c-1.64,0.398-3.524,0.599-5.652,0.599H352.054z M356.712,145.215h7.516c2.324,0,4.146-0.219,5.465-0.65  c1.323-0.433,2.375-1.042,3.159-1.824c1.104-1.105,1.965-2.592,2.582-4.456c0.616-1.866,0.924-4.128,0.924-6.784  c0-3.684-0.606-6.515-1.814-8.49c-1.207-1.978-2.675-3.304-4.404-3.976c-1.248-0.481-3.258-0.716-6.03-0.716h-7.396V145.215z"
     id="path31" /><polygon
     fill="#555655"
     points="393.815,149.369 393.815,114.161 419.273,114.161 419.273,118.317 398.475,118.317 398.475,129.098   417.954,129.098 417.954,133.229 398.475,133.229 398.475,145.215 420.089,145.215 420.089,149.369 "
     id="polygon33" /><path
     fill="#555655"
     d="M431.089,138.055l4.397-0.385c0.206,1.764,0.689,3.208,1.45,4.338c0.762,1.128,1.94,2.04,3.543,2.738  c1.601,0.694,3.4,1.045,5.403,1.045c1.777,0,3.348-0.267,4.707-0.794c1.359-0.528,2.373-1.252,3.037-2.173  c0.665-0.919,0.997-1.925,0.997-3.015c0-1.104-0.32-2.069-0.961-2.894c-0.639-0.823-1.694-1.518-3.169-2.075  c-0.946-0.37-3.034-0.942-6.268-1.72c-3.235-0.775-5.502-1.51-6.798-2.197c-1.682-0.88-2.934-1.974-3.757-3.277  c-0.825-1.305-1.239-2.768-1.239-4.387c0-1.772,0.503-3.436,1.515-4.979c1.007-1.544,2.48-2.72,4.42-3.518  c1.938-0.803,4.09-1.204,6.459-1.204c2.608,0,4.911,0.421,6.905,1.263c1.992,0.839,3.524,2.077,4.601,3.71  c1.07,1.633,1.646,3.479,1.728,5.551l-4.47,0.332c-0.236-2.226-1.049-3.907-2.436-5.041c-1.385-1.138-3.433-1.707-6.136-1.707  c-2.82,0-4.871,0.518-6.16,1.548c-1.289,1.035-1.933,2.281-1.933,3.736c0,1.264,0.455,2.306,1.367,3.122  c0.898,0.816,3.236,1.651,7.024,2.509c3.786,0.857,6.385,1.607,7.793,2.246c2.05,0.946,3.564,2.143,4.541,3.593  c0.974,1.447,1.465,3.117,1.465,5.005c0,1.874-0.539,3.64-1.61,5.295c-1.071,1.659-2.611,2.948-4.622,3.868  c-2.01,0.92-4.271,1.379-6.787,1.379c-3.185,0-5.853-0.462-8.006-1.39c-2.155-0.931-3.844-2.328-5.069-4.193  C431.798,142.518,431.15,140.412,431.089,138.055"
     id="path35" /><polygon
     fill="#414141"
     points="463.969,107.87 463.969,101.568 461.616,101.568 461.616,100.727 467.278,100.727 467.278,101.568   464.917,101.568 464.917,107.87 "
     id="polygon37" /><path
     fill="#414141"
     d="M469.468,107.87v-7.143h1.423l1.689,5.058c0.156,0.471,0.27,0.825,0.344,1.059  c0.078-0.26,0.205-0.644,0.377-1.146l1.712-4.97h1.271v7.143h-0.909v-5.977l-2.076,5.977h-0.854l-2.066-6.081v6.081H469.468z"
     id="path39" /><polygon
     fill="#134574"
     points="12.586,48.644 19.833,41.971 19.833,85.957 62.291,85.957 62.291,42.182 69.66,48.838 69.66,93.421   12.586,93.421 "
     id="polygon41" /><rect
     x="-5.224"
     y="22.34"
     transform="matrix(0.7141 -0.7 0.7 0.7141 -11.9076 24.2671)"
     fill="#134574"
     width="57.965"
     height="8.745"
     id="rect45" /><rect
     x="30.045"
     y="22.34"
     transform="matrix(-0.7141 -0.7 0.7 -0.7141 82.4815 87.1088)"
     fill="#134574"
     width="57.965"
     height="8.746"
     id="rect47" /><path
     fill="#134574"
     d="M39.887,82.164c0,0.882,0.711,1.592,1.592,1.592c0.882,0,1.593-0.712,1.593-1.592  c0-0.882-0.711-1.592-1.593-1.592C40.612,80.572,39.887,81.282,39.887,82.164"
     id="path49" /><path
     fill="#134574"
     d="M47.916,77.726c-1.764-1.813-4.051-2.822-6.46-2.822c-2.372,0-4.647,0.981-6.398,2.768  c0.439,0.45,0.439,0.45,0.985,1.213c1.484-1.514,3.418-2.345,5.426-2.345c2.031,0,3.977,0.845,5.462,2.386  C47.613,78.085,47.368,78.334,47.916,77.726"
     id="path51" /><path
     fill="#134574"
     d="M52.522,74.399c-3.026-2.795-6.967-4.322-11.084-4.322c-4.077,0-7.99,1.514-11.003,4.24  c0.657,0.833,0.578,0.669,1.105,1.214c2.713-2.468,6.23-3.818,9.898-3.818c3.708,0,7.253,1.377,9.98,3.886  C51.947,74.986,52.351,74.716,52.522,74.399 M51.418,75.599c0.528-0.613,0.702-0.727,1.104-1.2"
     id="path53" /><line
     fill="none"
     stroke="#134574"
     stroke-width="3"
     stroke-miterlimit="10"
     x1="9.023"
     y1="104.559"
     x2="458.067"
     y2="104.559"
     id="line55" /></svg>