<?xml version="1.0" encoding="UTF-8" standalone="no"?>
<svg xmlns:rdf="http://www.w3.org/1999/02/22-rdf-syntax-ns#" xmlns="http://www.w3.org/2000/svg" enable-background="new 0 0 476.283 149.967" xml:space="preserve" height="153" viewBox="0 0 150 152.99958" width="150" version="1.1" y="0px" x="0px" xmlns:cc="http://creativecommons.org/ns#" xmlns:dc="http://purl.org/dc/elements/1.1/"><path fill="#134574" d="m60.883 37.391v27.947h21.537v-27.947h-21.537zm4.8012 11.521h12.167v11.459h-12.167v-11.459z"/><g fill="#565656"><polygon points="164.82 40.411 164.82 51.584 112.14 51.584 112.14 84.003 170.61 84.003 170.61 95.244 99.532 95.244 99.532 0 168.4 0 168.4 11.24 112.14 11.24 112.14 40.411" transform="matrix(.39814 0 0 .39814 -39.628 110.05)"/><polygon points="189.12 95.244 189.12 0 201.72 0 201.72 84.003 248.63 84.003 248.63 95.244" transform="matrix(.39814 0 0 .39814 -39.628 110.05)"/><rect height="37.92" width="5.0182" y="110.05" x="66.835"/><polygon points="340.68 11.24 340.68 95.244 328.08 95.244 328.08 11.24 296.69 11.24 296.69 0 372.19 0 372.19 11.24" transform="matrix(.39814 0 0 .39814 -39.628 110.05)"/><polygon points="452.29 40.411 452.29 51.584 399.6 51.584 399.6 84.003 458.07 84.003 458.07 95.244 386.99 95.244 386.99 0 455.86 0 455.86 11.24 399.6 11.24 399.6 40.411" transform="matrix(.39814 0 0 .39814 -39.628 110.05)"/></g><polygon points="464.92 101.57 464.92 107.87 463.97 107.87 463.97 101.57 461.62 101.57 461.62 100.73 467.28 100.73 467.28 101.57" fill="#414141" transform="matrix(.39814 0 0 .39814 -39.628 110.05)"/><path fill="#414141" d="m147.29 153v-2.8439h0.56656l0.67246 2.0138c0.0622 0.18752 0.10747 0.32846 0.13695 0.42162 0.0311-0.10353 0.0817-0.25639 0.1501-0.45626l0.68163-1.9788h0.50604v2.8439h-0.36192v-2.3797l-0.82653 2.3797h-0.34001l-0.82256-2.4211v2.4211h-0.36272z"/><g fill="#134574"><polygon points="12.586 48.644 19.833 41.971 19.833 85.957 62.291 85.957 62.291 42.182 69.66 48.838 69.66 93.421 12.586 93.421" transform="matrix(1.1328 0 0 1.1328 24.664 -3.7399)"/><rect transform="rotate(-44.429)" height="9.9063" width="65.662" y="50.09" x="-14.563"/><rect transform="rotate(224.43)" height="9.9074" width="65.662" y="40.182" x="-116.76"/><path d="m69.849 89.338c0 0.99915 0.80544 1.8035 1.8035 1.8035 0.99915 0 1.8046-0.80657 1.8046-1.8035 0-0.99915-0.80544-1.8035-1.8046-1.8035-0.98216 0-1.8035 0.8043-1.8035 1.8035"/><path d="m78.945 84.31c-1.9983-2.0538-4.5891-3.1968-7.3181-3.1968-2.6871 0-5.2642 1.1113-7.2478 3.1357 0.49731 0.50977 0.49731 0.50977 1.1158 1.3741 1.6811-1.7151 3.872-2.6565 6.1467-2.6565 2.3008 0 4.5052 0.95724 6.1875 2.7029 0.77259-0.95271 0.49504-0.67063 1.1158-1.3594"/><path d="m84.162 80.541c-3.4279-3.1662-7.8924-4.8961-12.556-4.8961-4.6185 0-9.0513 1.7151-12.464 4.8032 0.74427 0.94364 0.65477 0.75786 1.2518 1.3752 3.0734-2.7958 7.0575-4.3251 11.213-4.3251 4.2005 0 8.2164 1.5599 11.306 4.4022 0.59926-0.69442 1.0569-1.0003 1.2506-1.3594m-1.2506 1.3594c0.59813-0.69442 0.79524-0.82356 1.2506-1.3594"/></g></svg>
