<?xml version="1.0" encoding="UTF-8" standalone="no"?>
<svg xmlns:rdf="http://www.w3.org/1999/02/22-rdf-syntax-ns#" xmlns="http://www.w3.org/2000/svg" enable-background="new 0 0 342.96 166.8" xml:space="preserve" height="122.92" viewBox="0 0 335.63032 122.91656" width="335.63" version="1.1" y="0px" x="0px" xmlns:cc="http://creativecommons.org/ns#" xmlns:dc="http://purl.org/dc/elements/1.1/"><g fill-rule="evenodd" clip-rule="evenodd" transform="matrix(1.1716 0 0 1.1716 -29.136 -36.088)"><path d="m175.22 67.031c5.392 0.008 10.772 0.333 16.158 0.548 1.255 0.05 1.615 0.466 1.864 1.632 1.799 8.429 3.685 16.84 5.546 25.256 0.052 0.23 0.14 0.453 0.29 0.932 0.961-3.712 1.858-7.187 2.762-10.66 1.314-5.057 2.651-10.109 3.934-15.174 0.195-0.769 0.505-1.009 1.293-0.928 5.046 0.52 10.097 1.002 15.147 1.482 0.644 0.062 0.928 0.203 0.648 0.948-0.741 1.972-0.868 4.053-0.896 6.135-0.089 6.834-0.161 13.669-0.244 20.503-0.049 4.037-0.113 8.073-0.153 12.11-0.007 0.71 0.069 1.422 0.118 2.35 0.704-0.89 0.939-1.766 1.233-2.589 4.117-11.523 8.346-23.006 12.769-34.416 0.215-0.553 0.17-0.973-0.104-1.452-0.332-0.582-0.621-1.187-1.054-2.023 2.008 0.286 3.797 0.527 5.581 0.796 2.843 0.429 5.68 0.898 8.526 1.301 0.686 0.097 0.999 0.397 1.186 1.046 3.426 11.915 7.064 23.765 10.833 35.576 0.229 0.716 0.511 1.414 0.816 2.254 0.467-0.514 0.348-1.043 0.355-1.499 0.109-6.834 0.2-13.669 0.29-20.503 0.034-2.558 0.051-5.116 0.081-7.674 0.027-2.325-0.018-4.636-1.253-6.989 2.079 0.391 3.942 0.713 5.793 1.095 7.113 1.465 14.211 3.003 21.26 4.753 1.594 0.396 3.143 0.916 4.551 1.782 2.149 1.322 3.404 3.244 3.622 5.756 0.25 2.871 0.195 5.759 0.053 8.63-0.145 2.899-1.173 3.75-4.098 3.792-0.227 0.003-0.453 0-0.855 0 2.301 4.971 4.354 9.876 6.988 14.641h-8.384c-1.52 0-3.042-0.049-4.559 0.02-0.804 0.036-1.169-0.202-1.448-0.987-1.618-4.544-3.365-9.042-4.928-13.604-0.404-1.182-1.021-1.504-2.127-1.555-2.215-0.101-2.208-0.139-2.215 2.091-0.008 3.078-0.018 6.156-0.043 9.234-0.014 1.612 0.332 3.162 0.875 4.751h-28.397c1.807-3.982-0.413-7.423-1.295-11.036-0.116-0.477-0.447-0.466-0.823-0.479-4.351-0.16-8.701-0.328-13.052-0.5-0.365-0.014-0.747-0.082-0.894 0.374-0.83 2.575-2.138 4.987-2.591 7.691-0.225 1.342 0.021 2.61 0.602 3.926h-20.953c1.592-8.715 0.72-17.549 1.038-26.333 0.107-2.954 0.065-5.915 0.091-8.873 0.003-0.371 0-0.743-0.268-1.131-0.897 3.457-1.814 6.909-2.69 10.372-2.111 8.354-4.214 16.71-6.289 25.073-0.187 0.754-0.486 1.007-1.277 0.985-2.278-0.06-4.56-0.054-6.838-0.002-0.734 0.017-1.035-0.213-1.193-0.924-2.399-10.789-4.822-21.573-7.241-32.358-0.338-1.505-0.686-3.008-1.268-4.498v26.195c-0.637-0.286-0.693-0.747-0.859-1.082-1.473-2.964-2.906-5.947-4.383-8.908-0.296-0.594-0.423-1.177-0.419-1.834 0.04-6.156 0.097-12.314 0.068-18.471-0.011-2.423 0.092-4.893-1.059-7.16-0.052-0.103-0.132-0.19-0.199-0.285l0.027-0.061-0.049-0.042zm108.5 23.728h0.087c0-0.718-0.022-1.438 0.005-2.154 0.049-1.246-0.553-1.937-1.753-2.16-2.153-0.401-4.308-0.799-6.457-1.221-0.606-0.118-0.821 0.01-0.818 0.688 0.01 2.432-0.039 4.863-0.098 7.293-0.011 0.45 0.099 0.645 0.559 0.702 2.412 0.298 4.819 0.631 7.231 0.926 0.775 0.095 1.226-0.289 1.239-1.086 0.019-0.996 0.005-1.992 0.005-2.988zm-44.58-7.809c-0.082-0.013-0.165-0.025-0.247-0.038-1.606 4.443-3.205 8.89-4.824 13.328-0.22 0.6-0.031 0.736 0.549 0.767 2.707 0.141 5.414 0.299 8.117 0.495 0.562 0.041 0.747-0.06 0.579-0.62-1.394-4.643-2.783-9.288-4.174-13.932z" fill="#242021"/><path d="m106.75 116.38h-7.522c1.722-4.209-0.569-7.814-1.567-11.608-0.121-0.46-0.457-0.499-0.836-0.485-4.39 0.159-8.78 0.32-13.171 0.477-0.398 0.014-0.68 0.14-0.82 0.55-0.724 2.109-1.526 4.195-2.171 6.328-0.474 1.568-0.341 3.159 0.559 4.73h-20.805c1.431-4 0.788-8.102 0.797-12.15 0.013-5.875-0.136-11.749-0.217-17.623-0.002-0.19-0.024-0.381-0.204-0.606-0.65 2.356-1.29 4.716-1.953 7.068-2.098 7.445-4.221 14.884-6.287 22.339-0.242 0.872-0.644 1.084-1.486 1.063-2.158-0.058-4.32-0.072-6.478 0.005-0.923 0.033-1.311-0.269-1.587-1.139-2.552-8.053-5.277-16.049-8.125-24.002-0.102-0.285-0.23-0.562-0.518-0.813 0 1.73-0.012 3.46 0.002 5.19 0.047 5.555 0.112 11.108 0.152 16.663 0.01 1.383 0.254 2.688 1.148 3.974h-7.832c1.497-2.158 1.061-4.627 1.073-7.016 0.036-6.758 0.027-13.518 0.001-20.275-0.006-1.547 0.084-3.15-1.263-4.526 2.884-0.75 5.604-1.478 8.336-2.162 2.554-0.64 5.127-1.206 7.677-1.865 0.853-0.221 1.234-0.071 1.52 0.832 1.842 5.814 3.75 11.608 5.636 17.409 0.131 0.403 0.266 0.805 0.481 1.456 1.025-3.563 1.997-6.888 2.938-10.221 1.093-3.876 2.162-7.759 3.232-11.641 0.142-0.515 0.266-0.931 0.934-1.052 5.104-0.928 10.2-1.899 15.299-2.852 0.225-0.042 0.46-0.024 0.649-0.033-1.434 7.024-0.481 14.05-0.54 21.044-0.04 4.755 0.094 9.512 0.159 14.267 0.009 0.671 0.071 1.34 0.123 2.249 0.682-0.937 0.893-1.817 1.186-2.646 3.959-11.151 7.799-22.344 11.484-33.589 0.209-0.636 0.205-1.13-0.213-1.659-0.339-0.429-0.604-0.917-1.005-1.539 3.751-0.509 7.333-0.996 10.915-1.479 1.108-0.149 2.217-0.287 3.324-0.44 0.521-0.072 0.856-0.027 1.059 0.611 3.946 12.382 7.87 24.771 11.553 37.233-0.041 0.23-0.082 0.462-0.123 0.692-1.026 1.454-2.051 2.909-3.077 4.364-0.798 0.97-1.765 1.799-2.437 2.877zm-16.39-34.201c-0.534 1.682-0.991 3.122-1.449 4.562-1.026 3.226-2.06 6.449-3.067 9.682-0.105 0.338-0.637 0.966 0.371 0.905 2.748-0.165 5.496-0.329 8.245-0.483 0.517-0.029 0.704-0.195 0.521-0.744-1.525-4.559-3.031-9.125-4.621-13.922z" fill="#242021"/><path d="m144.69 74.449c-0.031-0.024-0.074-0.042-0.093-0.074-1.072-1.843-1.068-1.841-2.288 0.01-1.02 1.547-2.049 3.087-3.074 4.631-0.25-0.418-0.533-0.931-1.094-0.696-1.868 0.782-3.99 0.696-5.781 1.742-0.388 0.227-0.874 0.435-1.345 0.084 1.598-2.571 3.208-5.135 4.787-7.718 0.754-1.232 1.303-2.561 1.493-4.004 0.094-0.71 0.369-0.987 1.14-1.019 3.122-0.127 2.244-0.228 1.207-2.312-0.153-0.308-0.262-0.687-0.661-0.81-0.013-0.078-0.028-0.155-0.045-0.233-0.005-0.782-0.545-0.763-1.09-0.72-3.422 0.269-6.846 0.504-10.264 0.821-3.574 0.331-7.146 0.705-10.711 1.123-5.506 0.645-11.011 1.304-16.507 2.028-7.039 0.929-14.05 2.048-21.043 3.267-5.736 1-11.466 2.046-17.171 3.206-6.605 1.343-13.199 2.751-19.762 4.285-5.047 1.179-10.048 2.564-15.049 3.933-1.008 0.276-1.179 0.071-1.18-0.905-0.002-2.156-0.117-4.313-0.223-6.468-0.034-0.702 0.171-1.063 0.899-1.282 7.527-2.262 15.042-4.56 22.559-6.854 9.615-2.934 19.227-5.878 28.843-8.809 6.909-2.105 13.824-4.189 20.733-6.293 7.022-2.139 14.039-4.296 21.062-6.435 6.908-2.104 13.821-4.19 20.73-6.29 5.917-1.799 11.83-3.607 17.745-5.412 1.145-0.349 2.299-0.672 3.431-1.06 1.566-0.536 2.891 0.358 4.251 0.765 12.42 3.721 24.818 7.521 37.221 11.298 7.481 2.279 14.96 4.567 22.443 6.837 8.934 2.71 17.873 5.399 26.806 8.11 5.688 1.726 11.368 3.487 17.057 5.212 8.704 2.641 17.411 5.273 26.126 7.883 0.794 0.238 1.139 0.625 1.02 1.45-0.317 2.185-0.196 4.389-0.221 6.584-0.01 0.853-0.218 1.001-1.019 0.753-6.672-2.071-13.46-3.701-20.274-5.21-9.073-2.009-18.198-3.766-27.364-5.301-9.4-1.575-18.823-2.999-28.289-4.13-3.523-0.421-7.028-0.999-10.578-1.185-0.099-0.045-0.197-0.09-0.296-0.135-6.962-0.75-13.921-1.521-20.906-2.038-2.857-0.211-5.712-0.458-8.565-0.709-0.656-0.058-1.183 0.063-1.474 0.714-0.015 0.087-0.027 0.173-0.041 0.26-0.71 0.647-0.958 1.676-1.816 2.2-1.22-0.112-2.323 0.384-3.466 0.667-2.985 0.738-5.875 1.831-8.901 2.416 1.813-2.773 3.596-5.568 5.449-8.315 1.975-2.926 3.917-5.856 4.411-9.464 0.063-0.454 0.264-0.586 0.716-0.567 3.511 0.15 7.023 0.266 10.534 0.417 0.853 0.037 1.702 0.162 2.731 0.264-2.927 2.854-5.387 5.84-7.524 9.186 0.73 0.127 1.313 0.295 1.901 0.319 5.453 0.23 10.866 0.889 16.294 1.417 4.585 0.446 9.158 0.993 13.741 1.432 5.513 0.527 10.988 1.31 16.47 2.042 8.416 1.126 16.803 2.461 25.163 3.96 12.878 2.31 25.688 4.92 38.312 8.387 2.636 0.724 2.637 0.718 2.635-2.064 0-0.2-0.025-0.404 0.004-0.6 0.096-0.637-0.209-0.92-0.797-1.098-8.9-2.69-17.794-5.398-26.691-8.099-20.428-6.2-40.857-12.395-61.285-18.597-13.975-4.244-27.947-8.494-41.917-12.754-0.601-0.184-1.139-0.197-1.747-0.012-16.948 5.161-33.904 10.298-50.854 15.457-17.18 5.229-34.351 10.485-51.53 15.713-9.465 2.88-18.94 5.731-28.413 8.589-3.046 0.919-3.011 0.91-2.979 4.138 0.009 0.902 0.368 0.954 1.042 0.768 6.92-1.911 13.907-3.55 20.91-5.124 8.946-2.01 17.939-3.795 26.974-5.342 8.052-1.379 16.124-2.657 24.233-3.699 5.603-0.72 11.203-1.469 16.818-2.07 6.134-0.656 12.285-1.148 18.428-1.72 0.239-0.022 0.635 0.165 0.662-0.266 0.017-0.271-0.171-0.512-0.442-0.667-0.153-0.087-0.581-0.06-0.446-0.172 0.702-0.582-0.018-0.908-0.202-1.255-1.416-2.681-3.018-5.235-5.708-7.394 2.146-0.135 3.92-0.215 5.689-0.364 6.249-0.527 12.516-0.644 18.777-0.904 0.841-0.035 0.999 0.33 1 1.055 0.002 2.642 0.642 5.13 1.878 7.471 0.616 1.166 1.185 2.357 1.745 3.551 1.065 2.273 2.349 4.445 3.159 6.836-0.277 0.027-0.565 0.016-0.829 0.089-4.92 1.366-9.852 2.694-14.741 4.162-0.85 0.258-1.95 0.172-2.533 1.117z" fill="#7fa8d9"/><path d="m175.76 95.006c0.525 0.368 0.645 0.984 0.905 1.508 2.45 4.925 4.878 9.861 7.337 14.781 0.896 1.791 2.02 3.438 3.375 4.93-0.21 0.392-0.57 0.205-0.847 0.205-7.354 0.013-14.707-0.011-22.06 0.034-0.976 0.006-1.206-0.299-1.159-1.206 0.139-2.692-0.531-5.202-1.767-7.597-1.332-2.583-2.571-5.215-3.85-7.824 0.404 0.027 0.779-0.078 1.168-0.192 2.976-0.874 5.944-1.78 8.944-2.564 2.651-0.694 5.235-1.648 7.954-2.075z" fill="#01448b"/><path d="m115.89 85.74c-1.354-2.348-2.694-4.703-4.064-7.042-1.766-3.014-3.226-6.242-6.236-8.709 1.867-0.211 3.427-0.422 4.994-0.56 4.211-0.369 8.425-0.695 12.636-1.066 0.784-0.069 1.141 0.099 1.175 0.983 0.13 3.42 2.149 6.119 3.564 9.047 0.521 1.077 1.063 2.142 1.596 3.212-0.634 0.034-1.266-0.06-1.903 0.119-3.1 0.867-6.221 1.661-9.307 2.574-0.9 0.266-1.961 0.416-2.455 1.442z" fill="#7fa8d9"/><path d="m115.89 85.74c0.494-1.025 1.555-1.176 2.454-1.441 3.086-0.913 6.207-1.708 9.307-2.574 0.638-0.179 1.269-0.085 1.903-0.119 0.981 0.009 0.854-1.093 1.461-1.459 0.47 0.35 0.956 0.142 1.344-0.084 1.791-1.046 3.913-0.96 5.781-1.742 0.561-0.235 0.844 0.278 1.094 0.696-1.83 2.881-3.512 5.856-5.527 8.62-0.316-0.413-0.688-0.253-1.074-0.124-0.6 0.202-1.203 0.396-1.813 0.563-3.939 1.084-7.899 2.096-11.785 3.366-1.137-1.851-2.217-3.734-3.145-5.702z" fill="#759ed2"/><path d="m145.27 96.966c1.381-2.097 2.763-4.193 4.145-6.29 0.437 0.039 0.862 0.057 1.302-0.067 2.138-0.603 4.288-1.164 6.427-1.765 4.586-1.288 9.168-2.591 13.752-3.887 0.75 1.508 1.5 3.015 2.25 4.522-0.928 0.07-1.752 0.504-2.63 0.749-6.034 1.685-12.057 3.406-18.099 5.063-2.358 0.647-4.625 1.714-7.147 1.675z" fill="#3263a3"/><path d="m163.65 68.628c3.027-0.585 5.916-1.678 8.901-2.416 1.143-0.282 2.246-0.779 3.466-0.667l-0.798 1.485 0.052 0.042-0.027 0.061c-0.881 1.239-1.762 2.478-2.643 3.717-0.229-0.353-0.516-0.247-0.841-0.148-0.945 0.285-1.91 0.491-2.861 0.764-6.973 2.004-13.966 3.934-20.949 5.903-0.482 0.136-1.033 0.201-1.351 0.688-0.758-1.139-1.366-2.356-1.909-3.609 0.583-0.945 1.683-0.859 2.532-1.114 4.89-1.467 9.821-2.795 14.741-4.162 0.264-0.073 0.552-0.062 0.828-0.089 0.485 0.225 0.592-0.266 0.859-0.455z" fill="#759ed2"/><path d="m143.73 108.96c1.407 2.479 2.473 5.162 4.476 7.298-0.41 0.294-0.774 0.171-1.111 0.172-5.23 0.01-10.461-0.01-15.691 0.023-0.869 0.006-1.297-0.121-1.238-1.144 0.052-0.901-0.16-1.818-0.255-2.729 1.407-0.079 2.703-0.631 4.047-0.97 3.272-0.824 6.445-2.021 9.772-2.65z" fill="#01448b"/><path d="m146.6 78.058c0.318-0.487 0.869-0.552 1.351-0.688 6.983-1.97 13.977-3.899 20.949-5.903 0.951-0.273 1.916-0.479 2.861-0.764 0.325-0.098 0.612-0.205 0.841 0.148-0.988 1.425-1.748 3.001-2.867 4.34-0.332-0.443-0.765-0.334-1.193-0.211-6.822 1.966-13.644 3.935-20.465 5.902-0.617-0.877-1.081-1.833-1.477-2.824z" fill="#6890c7"/><path d="m136.81 95.519c0.655 0.991 1.296 1.99 1.668 3.132-0.171 0.09-0.332 0.223-0.513 0.265-2.979 0.682-5.845 1.771-8.803 2.496-1.415 0.347-2.708 1.189-4.232 1.095-0.223-0.285-0.436-0.478-0.71-0.032-0.163 0.265-0.38 0.498-0.573 0.745-0.54-0.412-1.063-0.116-1.584 0.043-2.351 0.717-4.676 1.532-7.131 1.847 0.878-1.586 1.931-3.06 2.965-4.543 0.312-0.046 0.636-0.053 0.935-0.144 4.283-1.293 8.652-2.278 12.916-3.646 1.651-0.53 3.372-0.845 5.062-1.258z" fill="#537cb8"/><path d="m119.04 91.442c3.886-1.271 7.845-2.282 11.785-3.366 0.609-0.168 1.213-0.361 1.813-0.563 0.385-0.129 0.758-0.289 1.074 0.124-0.388 0.594-0.283 1.143 0.046 1.747 0.427 0.785 0.988 1.512 1.173 2.416-0.237 0.503-0.742 0.561-1.188 0.69-2.352 0.688-4.695 1.408-7.065 2.027-1.863 0.485-3.66 1.299-5.643 1.249-0.052-1.161-0.905-1.965-1.324-2.963-0.197-0.466-0.446-0.908-0.671-1.361z" fill="#6890c7"/><path d="m170.9 84.958c-4.584 1.296-9.166 2.599-13.752 3.887-2.139 0.601-4.289 1.162-6.427 1.765-0.44 0.124-0.865 0.106-1.302 0.067 0.503-0.798 0.971-1.621 1.523-2.384 0.333-0.46 0.423-0.89 0.229-1.401 3.241-1.167 6.612-1.889 9.906-2.879 2.714-0.816 5.473-1.483 8.143-2.449 0.656 1.083 1.262 2.191 1.68 3.394z" fill="#436fad"/><path d="m145.27 96.966c2.521 0.039 4.789-1.028 7.147-1.675 6.042-1.656 12.065-3.378 18.099-5.063 0.878-0.245 1.703-0.679 2.63-0.749 0.359 0.734 0.719 1.47 1.078 2.204-1.638 0.456-3.275 0.911-4.912 1.369-4.396 1.231-8.791 2.465-13.186 3.697-0.095-0.081-0.19-0.163-0.285-0.244-0.273 0.033-0.556 0.032-0.818 0.105-2.71 0.759-5.402 1.592-8.133 2.262-1.013 0.249-2.001 0.97-3.141 0.47 0.509-0.792 1.015-1.584 1.521-2.376z" fill="#22579a"/><path d="m148.07 80.882c6.821-1.968 13.643-3.936 20.465-5.902 0.428-0.123 0.861-0.231 1.193 0.211-0.505 0.809-1.015 1.615-1.513 2.428-0.202 0.33-0.526 0.622-0.393 1.077-1.147-0.031-2.15 0.534-3.218 0.814-3.869 1.014-7.735 2.051-11.549 3.251-1.119 0.352-2.479 0.237-3.338 1.301-0.695-0.985-1.188-2.074-1.647-3.18z" fill="#5e86c0"/><path d="m156.13 96.75c4.395-1.232 8.79-2.466 13.186-3.697 1.636-0.458 3.274-0.913 4.912-1.369 0.604 1.064 1.252 2.108 1.533 3.322-2.72 0.427-5.303 1.381-7.954 2.074-3 0.784-5.968 1.69-8.944 2.564-0.389 0.114-0.764 0.22-1.168 0.192-0.606-0.985-1.136-2.009-1.565-3.086z" fill="#144f93"/><path d="m149.72 84.062c0.858-1.064 2.219-0.949 3.338-1.301 3.813-1.2 7.68-2.237 11.549-3.251 1.068-0.28 2.071-0.845 3.218-0.814 0.568 0.905 1.03 1.862 1.391 2.868-2.67 0.965-5.429 1.632-8.143 2.449-3.293 0.99-6.665 1.712-9.906 2.879-0.556-0.906-1.109-1.813-1.447-2.83z" fill="#537cb8"/><path d="m121.03 95.766c1.982 0.05 3.78-0.764 5.643-1.249 2.37-0.619 4.714-1.339 7.065-2.027 0.446-0.13 0.952-0.188 1.188-0.69 0.76 1.173 1.467 2.372 1.881 3.72-1.689 0.413-3.411 0.728-5.062 1.257-4.264 1.368-8.633 2.354-12.916 3.646-0.299 0.091-0.623 0.098-0.935 0.144 1.046-1.601 2.091-3.201 3.136-4.801z" fill="#5e86c0"/><path d="m78.829 133.69c-1.382 1.83-2.844 2.384-4.601 1.794-1.648-0.554-2.468-1.893-2.474-4.075-0.007-2.438-0.011-4.875 0.009-7.313 0.003-0.369-0.254-0.973 0.521-0.935 0.676 0.034 0.429 0.57 0.432 0.904 0.021 2.518-0.014 5.036 0.025 7.553 0.027 1.76 0.792 2.786 2.136 3.036 1.948 0.362 3.403-0.843 3.446-2.947 0.048-2.357 0.013-4.716 0.014-7.073 0-0.24-0.006-0.479 0.001-0.72 0.011-0.35-0.068-0.755 0.494-0.761 0.558-0.006 0.508 0.39 0.508 0.746 0.003 2.198-0.003 4.396 0.006 6.594 0.002 0.559 0.02 1.12 0.081 1.674 0.167 1.503 1.335 2.555 2.813 2.565 1.514 0.01 2.597-0.858 2.787-2.396 0.281-2.266 0.061-4.549 0.115-6.824 0.013-0.559-0.003-1.118 0.005-1.678 0.004-0.311-0.057-0.66 0.438-0.681 0.542-0.023 0.547 0.323 0.546 0.705-0.003 1.639-0.001 3.277-0.001 4.915 0 0.96 0.027 1.92-0.006 2.878-0.073 2.133-0.987 3.421-2.718 3.894-1.86 0.508-3.336-0.078-4.577-1.855z" fill="#1168a3"/><path d="m143.75 99.343c1.139 0.5 2.127-0.221 3.141-0.47 2.731-0.67 5.423-1.503 8.133-2.262 0.262-0.073 0.545-0.072 0.818-0.105-1.213 1.86-2.426 3.721-3.639 5.581-0.062-0.52-0.34-0.503-0.76-0.371-0.908 0.283-1.833 0.513-2.753 0.76-2.105 0.564-4.211 1.126-6.317 1.688-0.796-0.968-0.91-1.899 0.007-2.899 0.528-0.577 0.918-1.277 1.37-1.922z" fill="#144f93"/><path d="m145.53 133.7c-1.37 1.823-2.854 2.378-4.605 1.773-1.621-0.56-2.444-1.875-2.453-3.968-0.01-2.478-0.012-4.955 0.009-7.433 0.003-0.333-0.249-0.871 0.425-0.911 0.773-0.046 0.526 0.555 0.529 0.928 0.021 2.558-0.029 5.116 0.034 7.672 0.053 2.124 1.41 3.248 3.339 2.896 1.356-0.246 2.211-1.332 2.235-2.975 0.035-2.357 0.011-4.716 0.012-7.073 0-0.24-0.003-0.479 0-0.72 0.005-0.362-0.036-0.749 0.52-0.736 0.566 0.014 0.481 0.428 0.481 0.771 0.006 2.198-0.003 4.396 0.007 6.594 0.003 0.598 0.019 1.201 0.097 1.793 0.187 1.409 1.392 2.422 2.825 2.42 1.472-0.003 2.553-0.839 2.746-2.303 0.32-2.424 0.076-4.867 0.133-7.302 0.011-0.479 0.002-0.959-0.001-1.438-0.003-0.316 0.073-0.541 0.461-0.537 0.341 0.003 0.532 0.132 0.521 0.487-0.1 3.15 0.277 6.317-0.214 9.452-0.214 1.364-1.273 2.123-2.531 2.437-1.414 0.353-2.791 0.194-3.872-0.954-0.246-0.259-0.449-0.558-0.698-0.873z" fill="#1168a3"/><path d="m124.93 102.51c1.523 0.095 2.817-0.748 4.232-1.095 2.958-0.725 5.824-1.814 8.803-2.496 0.182-0.042 0.342-0.175 0.513-0.265 0.662 0.975 1.14 2.045 1.615 3.116-1.108 0.319-2.215 0.645-3.325 0.955-3.177 0.891-6.356 1.775-9.534 2.663-0.25 0.069-0.406 0.241-0.517 0.465-0.722-1.046-1.222-2.211-1.787-3.343z" fill="#436fad"/><path d="m142.38 104.16c2.105-0.562 4.211-1.123 6.317-1.688 0.92-0.247 1.845-0.477 2.753-0.76 0.42-0.132 0.699-0.148 0.76 0.371-1.894 3.239-4.176 6.239-5.983 9.678-1.399-2.501-2.651-5.036-3.847-7.601z" fill="#01448b"/><path d="m235.65 124.47v8.806c0 0.52-0.019 1.04 0.004 1.559 0.018 0.397-0.111 0.59-0.535 0.585-0.384-0.004-0.46-0.203-0.459-0.531 0.012-3.598 0.014-7.195 0.03-10.792 0.002-0.477 0.204-0.862 0.723-0.964 0.481-0.094 0.883 0.079 1.127 0.5 0.28 0.481 0.531 0.981 0.766 1.488 1.239 2.677 2.462 5.361 3.71 8.034 0.154 0.333 0.207 0.759 0.76 1.055v-2.567c0-2.559-0.002-5.117 0.003-7.675 0.001-0.387-0.091-0.856 0.558-0.812 0.57 0.039 0.439 0.479 0.439 0.807 0.01 3.318 0.011 6.636 0.002 9.953-0.002 0.636 0.05 1.361-0.752 1.582-0.869 0.238-1.217-0.438-1.505-1.055-1.402-2.997-2.78-6.005-4.168-9.008-0.158-0.343-0.329-0.68-0.494-1.02-0.07 0.018-0.14 0.037-0.209 0.055z" fill="#1168a3"/><path d="m98.079 124.5v9.464c0 0.28-0.01 0.561 0.002 0.839 0.015 0.369-0.072 0.621-0.515 0.622-0.431 0.002-0.532-0.226-0.53-0.606 0.022-3.476 0.022-6.952 0.062-10.428 0.006-0.542 0.058-1.165 0.81-1.28 0.742-0.113 1.103 0.382 1.364 0.939 1.386 2.96 2.753 5.929 4.128 8.894 0.181 0.39 0.371 0.775 0.588 1.229 0.393-0.334 0.241-0.712 0.243-1.023 0.015-2.997 0-5.994 0.021-8.991 0.002-0.376-0.255-0.983 0.471-1.008 0.828-0.028 0.542 0.646 0.545 1.051 0.022 3.156 0.016 6.313 0.008 9.471-0.001 0.356-0.022 0.726-0.113 1.066-0.239 0.893-1.103 1.114-1.725 0.436-0.235-0.256-0.385-0.601-0.535-0.924-1.363-2.927-2.717-5.857-4.078-8.786-0.161-0.348-0.349-0.683-0.524-1.023-0.074 0.018-0.148 0.039-0.222 0.058z" fill="#3263a3"/><path d="m126.71 105.85c0.11-0.224 0.267-0.396 0.517-0.465 3.178-0.888 6.357-1.772 9.534-2.663 1.11-0.311 2.217-0.636 3.325-0.955 0.486 0.959 0.972 1.919 1.458 2.878-1.837 0.479-3.685 0.921-5.508 1.449-2.659 0.77-5.392 1.302-7.948 2.411-0.564-0.831-1.018-1.718-1.378-2.655z" fill="#3263a3"/><g fill="#1168a3"><path d="m128.45 135.65c-3.567 0.003-6.367-2.816-6.346-6.389 0.021-3.475 2.893-6.362 6.314-6.35 3.477 0.013 6.351 2.865 6.358 6.312 0.009 3.605-2.767 6.424-6.326 6.427zm5.257-6.403c-0.019-2.971-2.357-5.343-5.282-5.356-2.962-0.015-5.32 2.415-5.301 5.461 0.019 2.941 2.405 5.372 5.284 5.38 2.923 0.008 5.318-2.472 5.299-5.485z"/><path d="m224.4 135.65c-3.59 0.019-6.378-2.752-6.38-6.339-0.002-3.498 2.799-6.365 6.25-6.399 3.472-0.035 6.354 2.794 6.379 6.261 0.026 3.62-2.711 6.458-6.249 6.477zm-0.069-11.76c-2.921-0.026-5.29 2.368-5.305 5.361-0.015 2.98 2.315 5.43 5.215 5.479 2.909 0.05 5.388-2.454 5.393-5.447 0.004-2.949-2.374-5.367-5.303-5.393z"/><path d="m174.23 130.67c0.084-1.38-0.177-3.026 0.223-4.645 0.463-1.873 2.138-3.171 4.033-3.116 1.974 0.058 3.645 1.338 3.896 3.254 0.382 2.898 0.084 5.826 0.157 8.74 0.008 0.354-0.146 0.504-0.496 0.511-0.447 0.01-0.515-0.249-0.512-0.617 0.009-1.398-0.026-2.798 0.015-4.196 0.021-0.713-0.196-0.989-0.946-0.962-1.437 0.053-2.877 0.017-4.316 0.015-0.313 0-0.667 0.069-0.663-0.44 0.004-0.469 0.304-0.481 0.647-0.48 1.479 0.005 2.958-0.021 4.436 0.012 0.61 0.013 0.82-0.175 0.846-0.812 0.114-2.892-1.696-4.616-4.118-3.866-1.375 0.425-2.145 1.503-2.195 3.348-0.065 2.356-0.017 4.716-0.041 7.073-0.004 0.368 0.263 0.96-0.522 0.924-0.697-0.032-0.423-0.564-0.431-0.894-0.033-1.199-0.013-2.398-0.013-3.849z"/><path d="m110.1 129.17c0.001-1.718 0.025-3.436-0.011-5.152-0.014-0.663 0.18-0.881 0.871-0.883 2.267-0.009 4.482 0.044 6.231 1.819 1.934 1.964 2.409 4.836 1.164 7.284-1.203 2.365-3.668 3.582-6.42 3.187-0.302-0.044-0.551-0.063-0.547-0.456 0.004-0.38 0.233-0.465 0.546-0.466 0.28-0.001 0.559 0 0.839-0.004 2.973-0.036 5.085-1.962 5.244-4.781 0.159-2.813-1.815-5.162-4.678-5.567-2.246-0.318-2.253-0.313-2.253 1.909 0 2.796 0.009 5.592-0.01 8.388-0.002 0.368 0.272 0.966-0.491 0.965-0.783 0-0.465-0.615-0.471-0.971-0.032-1.758-0.015-3.516-0.014-5.272z"/></g><path d="m109.19 113.5c1.026-1.455 2.051-2.91 3.077-4.364 0.928 0.746 1.725-0.117 2.541-0.281 2.077-0.418 4.114-1.035 6.167-1.572-1.037 1.611-2.075 3.222-3.112 4.833-0.446-0.492-0.938-0.256-1.417-0.079-2.078 0.763-4.248 1.198-6.373 1.791-0.402 0.112-0.785 0.314-0.883-0.328z" fill="#3263a3"/><path d="m128.09 108.5c2.556-1.109 5.289-1.642 7.948-2.411 1.823-0.528 3.671-0.97 5.508-1.449 0.322 0.64 0.644 1.279 0.965 1.919-0.72 0.096-1.283 0.578-1.99 0.756-1.76 0.443-3.468 1.103-5.233 1.519-2.077 0.491-4.058 1.354-6.202 1.571-0.426-0.585-0.764-1.217-0.996-1.905z" fill="#22579a"/><path d="m120.98 107.28c-2.053 0.537-4.09 1.154-6.167 1.572-0.816 0.164-1.613 1.027-2.541 0.281 0.041-0.23 0.082-0.462 0.123-0.692 1.17-0.866 1.546-2.336 2.539-3.336 2.455-0.314 4.78-1.13 7.131-1.847 0.521-0.159 1.045-0.455 1.584-0.043-0.938 1.323-1.58 2.84-2.669 4.065z" fill="#436fad"/><path d="m129.09 110.41c2.144-0.218 4.125-1.08 6.202-1.571 1.765-0.416 3.473-1.075 5.233-1.519 0.708-0.178 1.271-0.66 1.99-0.756 0.491 0.756 0.911 1.548 1.213 2.399-3.327 0.629-6.5 1.825-9.772 2.651-1.345 0.339-2.64 0.891-4.047 0.97-0.273-0.725-0.546-1.45-0.819-2.174z" fill="#144f93"/><path d="m189.66 135.42c-0.68 0-1.361 0.031-2.039-0.013-0.328-0.021-0.878 0.279-0.902-0.413-0.023-0.677 0.508-0.48 0.858-0.486 1.2-0.021 2.4 0.007 3.6-0.012 1.665-0.024 2.39-0.509 2.624-1.714 0.227-1.159-0.424-2.098-1.899-2.651-1.008-0.378-2.06-0.644-3.054-1.055-1.662-0.688-2.344-1.865-2.119-3.474 0.192-1.371 1.083-2.184 2.886-2.37 1.307-0.135 2.635-0.057 3.953-0.081 0.346-0.007 0.631 0.003 0.647 0.474 0.018 0.501-0.299 0.468-0.629 0.467-1.12-0.002-2.24-0.021-3.359 0.007-1.553 0.041-2.338 0.601-2.498 1.723-0.149 1.052 0.427 1.855 1.77 2.365 0.969 0.368 1.97 0.647 2.938 1.015 1.135 0.429 1.998 1.141 2.321 2.389 0.501 1.933-0.713 3.687-2.698 3.813-0.797 0.05-1.6 0.008-2.399 0.008-0.001 0.001-0.001 0.005-0.001 0.008z" fill="#1168a3"/><path d="m250.11 135.42c-0.76 0-1.519 0.001-2.278-0.001-0.317 0-0.654 0.053-0.645-0.452 0.009-0.485 0.326-0.467 0.654-0.467 1.279 0 2.559 0.017 3.838-0.005 1.612-0.025 2.314-0.493 2.54-1.637 0.243-1.237-0.349-2.166-1.793-2.709-1.007-0.378-2.054-0.652-3.054-1.046-1.69-0.665-2.414-1.891-2.175-3.55 0.19-1.329 1.156-2.17 2.924-2.33 1.31-0.119 2.635-0.048 3.953-0.074 0.367-0.008 0.612 0.055 0.618 0.504 0.006 0.52-0.349 0.436-0.656 0.437-1.079 0.003-2.159-0.016-3.238 0.006-1.643 0.033-2.463 0.588-2.616 1.727-0.148 1.102 0.513 1.937 1.993 2.468 0.901 0.323 1.829 0.572 2.721 0.918 1.803 0.701 2.713 2.191 2.38 3.808-0.331 1.604-1.468 2.39-3.486 2.403-0.56 0.002-1.121 0-1.68 0z" fill="#1168a3"/><path d="m109.19 113.5c0.098 0.642 0.481 0.439 0.883 0.327 2.125-0.593 4.294-1.028 6.373-1.791 0.48-0.177 0.971-0.413 1.417 0.079-0.546 1.236-1.212 2.433-1.377 3.804-0.059 0.488-0.346 0.539-0.746 0.534-2.996-0.031-5.991-0.052-8.987-0.075 0.671-1.078 1.638-1.907 2.437-2.878z" fill="#22579a"/><path d="m207.65 129.36c0 1.758 0.006 3.516-0.005 5.274-0.002 0.326 0.131 0.759-0.46 0.767-0.559 0.008-0.514-0.373-0.514-0.736 0-1.398-0.025-2.798 0.012-4.195 0.017-0.628-0.098-0.939-0.833-0.915-1.597 0.053-3.196 0.048-4.794 0.001-0.708-0.021-0.878 0.248-0.858 0.903 0.042 1.397 0.018 2.797 0.009 4.195-0.002 0.336 0.109 0.756-0.479 0.749-0.569-0.007-0.493-0.405-0.494-0.756-0.003-3.596 0-7.192-0.003-10.788-0.001-0.388 0.014-0.731 0.551-0.706 0.5 0.023 0.424 0.391 0.426 0.692 0.009 1.278 0.039 2.559-0.01 3.835-0.026 0.696 0.116 1.003 0.905 0.97 1.557-0.064 3.118-0.064 4.674 0 0.778 0.032 0.938-0.25 0.909-0.955-0.052-1.236-0.018-2.477-0.012-3.716 0.002-0.386-0.098-0.857 0.547-0.821 0.586 0.032 0.42 0.49 0.423 0.808 0.015 1.797 0.007 3.595 0.006 5.394z" fill="#1168a3"/><path d="m307.73 88.985c0.551-1.521 1.085-2.876 1.522-4.262 0.187-0.59 0.498-0.697 1.044-0.697 0.706-0.001 0.614 0.493 0.646 0.905 0.137 1.751 0.264 3.503 0.376 5.256 0.021 0.322 0.169 0.737-0.449 0.747-0.506 0.008-0.575-0.225-0.6-0.65-0.075-1.3-0.193-2.599-0.324-4.269-0.809 1.371-1.035 2.605-1.54 3.715-0.176 0.387-0.061 1.014-0.768 1.034-0.738 0.021-0.631-0.624-0.782-1.016-0.429-1.104-0.795-2.232-1.47-3.351-0.092 1.101-0.185 2.201-0.273 3.302-0.022 0.278-0.032 0.558-0.05 0.837-0.026 0.404-0.317 0.378-0.605 0.384-0.327 0.007-0.42-0.185-0.399-0.452 0.154-2.028 0.313-4.057 0.478-6.084 0.034-0.42 0.373-0.33 0.639-0.344 0.409-0.023 0.762-0.025 0.932 0.497 0.417 1.286 0.89 2.555 1.346 3.829 0.058 0.172 0.147 0.334 0.277 0.619z" fill="#242021"/><path d="m164.43 130.75c0-1.158-0.014-2.316 0.002-3.474 0.039-2.64 1.32-3.979 3.943-4.12 0.597-0.032 1.198 0.002 1.796-0.011 0.378-0.008 0.615 0.104 0.604 0.534-0.011 0.418-0.303 0.402-0.586 0.405-0.599 0.004-1.199-0.02-1.796 0.009-2.262 0.109-3.723 2.333-2.97 4.462 0.166 0.468 0.509 0.3 0.783 0.306 1.197 0.022 2.396-0.013 3.593 0.023 0.361 0.011 0.991-0.289 0.961 0.482-0.025 0.643-0.566 0.426-0.918 0.434-1.038 0.023-2.084 0.093-3.112-0.015-1.154-0.12-1.413 0.356-1.332 1.396 0.083 1.071 0.046 2.155 0.002 3.231-0.014 0.354 0.326 0.966-0.448 0.992-0.763 0.026-0.505-0.568-0.513-0.944-0.025-1.234-0.01-2.472-0.009-3.71z" fill="#1168a3"/><path d="m250.32 72c-2.48-0.05-4.873-0.713-7.312-1.058-4.604-0.65-9.195-1.397-13.8-2.053-4.643-0.662-9.29-1.302-13.944-1.875-3.869-0.477-7.751-0.839-11.627-1.26-1.108-0.121-2.215-0.265-3.301-0.532 3.95 0.335 7.897 0.592 11.819 1.179 3.614 0.541 7.266 0.827 10.893 1.285 3.667 0.463 7.331 0.958 10.986 1.512 4.873 0.738 9.736 1.542 14.602 2.327 0.576 0.093 1.184 0.1 1.684 0.475z" fill="#b2cae8"/><path d="m138.93 64.052c0.018 0.078 0.033 0.155 0.045 0.233-1.379 0.503-2.842 0.297-4.259 0.451-4.778 0.517-9.583 0.796-14.362 1.3-5.013 0.528-10.007 1.225-15.013 1.82-4.691 0.557-9.365 1.231-14.03 1.968-0.428 0.067-0.876 0.013-1.315 0.016 1.684-0.632 3.481-0.668 5.228-0.943 3.843-0.605 7.699-1.14 11.559-1.621 3.862-0.481 7.736-0.864 11.605-1.288 3.396-0.372 6.792-0.756 10.19-1.102 2.137-0.218 4.28-0.383 6.421-0.557 1.309-0.106 2.621-0.185 3.931-0.277z" fill="#b2cae8"/><path d="m301.19 84.04c0.677 0 1.354 0.006 2.031-0.002 0.341-0.004 0.615-0.001 0.626 0.479 0.01 0.479-0.259 0.546-0.6 0.479-1.401-0.276-1.542 0.491-1.466 1.611 0.081 1.189 0.01 2.389 0.022 3.584 0.004 0.452-0.053 0.765-0.637 0.739-0.608-0.027-0.44-0.454-0.444-0.767-0.016-1.354-0.063-2.711 0.014-4.061 0.05-0.872-0.166-1.228-1.093-1.128-0.355 0.038-1.083 0.369-1.03-0.501 0.044-0.73 0.658-0.381 1.024-0.421 0.512-0.054 1.034-0.012 1.553-0.012z" fill="#242021"/><path d="m212.83 129.24c0-1.76-0.008-3.519 0.007-5.278 0.003-0.319-0.156-0.775 0.43-0.803 0.65-0.03 0.539 0.449 0.54 0.83 0.005 3.519 0.006 7.037-0.002 10.557-0.001 0.365 0.153 0.866-0.508 0.854-0.682-0.013-0.453-0.542-0.457-0.881-0.022-1.761-0.01-3.519-0.01-5.279z" fill="#1168a3"/><path d="m91.968 129.24c0 1.8 0.005 3.599-0.005 5.398-0.001 0.328 0.128 0.76-0.462 0.765-0.561 0.005-0.51-0.38-0.511-0.741-0.001-3.599 0-7.197-0.002-10.796 0-0.383 0.006-0.733 0.545-0.712 0.5 0.021 0.43 0.385 0.431 0.688 0.007 1.799 0.004 3.599 0.004 5.398z" fill="#1168a3"/><g fill="#b2cae8"><path d="m177.83 63.346c0.014-0.086 0.026-0.173 0.041-0.26 7.046 0.586 14.092 1.173 21.139 1.76-0.01 0.124-0.02 0.248-0.029 0.372-7.051-0.624-14.102-1.248-21.151-1.872z"/><path d="m296.88 82.554c0.741-0.146 0.456-0.743 0.472-1.162 0.105-2.748 0.178-5.498 0.266-8.247 0.009-0.26-0.039-0.545 0.29-0.896 0.271 0.666 0.192 1.264 0.119 1.796-0.325 2.386-0.102 4.783-0.228 7.171-0.022 0.433-0.086 0.877-0.218 1.289-0.151 0.475-0.446 0.336-0.711 0.062l0.01-0.013z"/><path d="m24.869 73.434c0.516 3.36 0.12 6.771 0.455 10.142-0.511-3.362-0.206-6.767-0.455-10.142z"/><path d="m250.32 72c3.577 0.327 7.092 0.992 10.559 1.921l0.002-0.002c-2.275-0.026-4.445-0.711-6.663-1.087-1.31-0.222-2.68-0.209-3.9-0.832z"/><path d="m79.679 71.519c-1.841 0.738-3.827 0.783-5.74 1.177-1.187 0.245-2.372 0.645-3.62 0.503l0.001 0.001c1.799-0.741 3.748-0.782 5.619-1.183 1.226-0.263 2.459-0.598 3.741-0.497l-0.001-0.001z"/><path d="m84.001 70.801c1.953-0.614 3.958-0.896 5.999-0.961-1.952 0.622-3.965 0.862-6.001 0.958l0.002 0.003z"/><path d="m267.83 75.134c-1.802 0.068-3.545-0.381-5.257-1.013 1.754 0.338 3.506 0.676 5.257 1.013z"/><path d="m70.319 73.199c-1.066 0.557-2.237 0.563-3.388 0.68 1.08-0.486 2.2-0.766 3.389-0.678l-0.001-0.002z"/><path d="m64.079 74.399c-1.146 0.513-2.348 0.739-3.6 0.72l0.002 0.003c1.147-0.503 2.348-0.736 3.599-0.721l-0.001-0.002z"/><path d="m54.717 76.317c0.985-0.538 2.083-0.518 3.145-0.676-1 0.453-2.033 0.75-3.141 0.681l-0.004-0.005z"/><path d="m273.74 76.531c-1.289 0.025-2.169-0.267-3.042-0.597 0.941-0.038 1.842 0.146 3.042 0.597z"/><path d="m278.66 77.651c-0.877 0.132-1.668-0.209-2.789-0.522 1.203-0.164 1.977 0.241 2.789 0.522z"/><path d="m279.34 77.867c0.874-0.123 1.666 0.199 2.787 0.519-1.209 0.176-1.975-0.254-2.787-0.519z"/><path d="m41.759 79.282c-0.777 0.323-1.538 0.638-2.388 0.557 0.743-0.424 1.558-0.565 2.388-0.557z"/><path d="m81.121 71.281c0.901-0.516 1.886-0.525 2.88-0.479l-0.002-0.003c-0.911 0.451-1.882 0.546-2.879 0.481l0.001 0.001z"/><path d="m34.834 80.963c-0.571 0.441-1.265 0.511-1.972 0.548 0.564-0.459 1.263-0.493 1.972-0.548z"/><path d="m162.97 30.949c0.806-0.058 1.528 0.193 2.487 0.68-1.098 0.018-1.811-0.288-2.506-0.659l0.019-0.021z"/><path d="m290.22 80.533c-0.744 0.063-1.411-0.15-2.039-0.508 0.745-0.066 1.411 0.15 2.039 0.508z"/><path d="m115.26 45.429c-0.784 0.389-1.358 0.676-2.284 0.584 0.795-0.385 1.369-0.674 2.284-0.584z"/><path d="m220.29 48.337c0.687-0.012 1.281 0.125 1.937 0.571-0.858 0.103-1.408-0.271-1.937-0.571z"/><path d="m54.896 63.776c0.534-0.441 1.151-0.596 1.815-0.593-0.533 0.444-1.148 0.609-1.815 0.593z"/><path d="m115.66 45.281c0.536-0.368 1.088-0.639 1.93-0.637-0.681 0.548-1.312 0.599-1.93 0.637z"/><path d="m142.63 37.022c-0.525 0.455-1.142 0.602-1.804 0.595 0.527-0.45 1.145-0.592 1.804-0.595z"/><path d="m65.967 60.394c0.496-0.378 1.071-0.587 1.734-0.539-0.487 0.4-1.063 0.563-1.734 0.539z"/><path d="m275.54 76.934c-0.587 0.191-1.034-0.04-1.59-0.246 0.676-0.313 1.131 0.092 1.59 0.246z"/><path d="m46.034 78.322c-0.621 0.243-1.072 0.51-1.852 0.3 0.67-0.254 1.129-0.49 1.852-0.3z"/><path d="m53.574 76.631c-0.741 0.25-1.212 0.55-1.885 0.307 0.564-0.245 1.033-0.459 1.885-0.307z"/><path d="m49.168 77.612c-0.655 0.234-1.123 0.524-1.786 0.291 0.555-0.24 1.01-0.487 1.786-0.291z"/><path d="m49.329 77.446c0.821-0.248 1.285-0.572 1.904-0.297-0.535 0.253-1.02 0.443-1.904 0.297z"/><path d="m208.66 44.792c-0.533 0.213-0.899-0.104-1.368-0.299 0.556-0.172 0.976-0.078 1.368 0.299z"/><path d="m215.42 46.892c0.482-0.196 0.822-0.005 1.173 0.296-0.482 0.196-0.824 0.009-1.173-0.296z"/><path d="m71.367 58.834c0.348-0.486 0.723-0.495 1.182-0.529-0.278 0.538-0.688 0.449-1.182 0.529z"/><path d="m243.6 55.446c-0.463 0.015-0.92 0.013-1.32-0.439 0.578-0.107 0.98 0.076 1.331 0.426l-0.011 0.013z"/><path d="m253.28 58.37c0.581-0.088 0.916 0.035 1.218 0.339-0.475 0.199-0.818 0.002-1.218-0.339z"/><path d="m101.99 49.434c0.337-0.395 0.77-0.481 1.37-0.471-0.438 0.499-0.896 0.5-1.36 0.483l-0.01-0.012z"/><path d="m224.63 49.69c-0.461 0.009-0.92 0.01-1.298-0.422 0.56-0.138 0.962 0.053 1.317 0.398l-0.019 0.024z"/><path d="m291.67 80.951c0.583-0.125 0.916 0.022 1.239 0.303-0.476 0.24-0.81-0.003-1.239-0.303z"/><path d="m166.38 32.03c0.538-0.209 0.857-0.012 1.244 0.243-0.47 0.249-0.786 0.004-1.244-0.243z"/><path d="m170.16 33.126c-0.464 0.021-0.918 0.01-1.319-0.438 0.575-0.104 0.979 0.075 1.332 0.423l-0.013 0.015z"/><path d="m49.336 65.427c0.35-0.305 0.693-0.492 1.175-0.294-0.352 0.299-0.693 0.492-1.175 0.294z"/><path d="m68.874 59.513c0.341-0.38 0.769-0.482 1.366-0.472-0.432 0.507-0.897 0.484-1.355 0.484l-0.011-0.012z"/><path d="m226.32 50.154c0.463-0.016 0.919-0.012 1.319 0.438-0.576 0.105-0.979-0.074-1.33-0.426l0.011-0.012z"/><path d="m32.782 70.48c0.338-0.333 0.68-0.484 1.162-0.321-0.34 0.328-0.68 0.484-1.162 0.321z"/><path d="m228.65 50.952c0.73-0.112 1.063 0.021 1.363 0.311-0.481 0.25-0.796-0.062-1.363-0.311z"/><path d="m147.53 35.582c-0.404 0.321-0.728 0.488-1.225 0.353 0.328-0.34 0.655-0.463 1.225-0.353z"/><path d="m273.46 64.468c-0.481 0.196-0.822 0.004-1.173-0.297 0.482-0.193 0.825-0.011 1.173 0.297z"/><path d="m181.2 36.486c-0.47 0.039-0.905-0.032-1.374-0.429 0.631-0.114 1.034 0.066 1.386 0.416l-0.012 0.013z"/><path d="m76.843 57.048c0.46-0.303 0.779-0.503 1.278-0.318-0.364 0.304-0.695 0.451-1.278 0.318z"/><path d="m52.312 64.552c0.352-0.349 0.755-0.526 1.332-0.426-0.399 0.455-0.855 0.459-1.319 0.44l-0.013-0.014z"/><path d="m35.752 69.591c0.353-0.348 0.756-0.526 1.332-0.422-0.4 0.447-0.855 0.458-1.319 0.438l-0.013-0.016z"/><path d="m136.42 38.958c-0.338 0.331-0.679 0.483-1.16 0.322 0.337-0.334 0.68-0.481 1.16-0.322z"/><path d="m90.953 52.792c0.352-0.349 0.754-0.533 1.331-0.425-0.399 0.454-0.857 0.454-1.32 0.438l-0.011-0.013z"/><path d="m192.26 39.697c-0.668 0.254-0.962-0.021-1.422-0.178 0.563-0.311 0.873 0.003 1.422 0.178z"/><path d="m61.666 61.73c-0.494 0.327-0.813 0.526-1.305 0.341 0.353-0.318 0.695-0.432 1.305-0.341z"/><path d="m234.29 52.672c0.564-0.206 0.887-0.007 1.264 0.242-0.473 0.255-0.795-0.001-1.264-0.242z"/><path d="m194.64 40.566c-0.465 0.02-0.92 0.011-1.322-0.439 0.578-0.102 0.981 0.078 1.333 0.426l-0.011 0.013z"/><path d="m196.28 41.176c0.68-0.216 0.999-0.031 1.363 0.229-0.483 0.266-0.794-0.047-1.363-0.229z"/><path d="m39.516 68.463c-0.372 0.321-0.703 0.471-1.341 0.334 0.475-0.267 0.767-0.463 1.341-0.334z"/><path d="m43.77 67.135c0.373-0.321 0.703-0.473 1.347-0.329-0.485 0.258-0.774 0.462-1.347 0.329z"/><path d="m200.16 42.246c-0.462 0.015-0.919 0.014-1.318-0.438 0.577-0.108 0.979 0.075 1.33 0.424l-0.012 0.014z"/><path d="m124.22 42.64c0.341-0.325 0.681-0.483 1.164-0.32-0.341 0.327-0.68 0.488-1.164 0.32z"/><path d="m258.79 60.11c0.535-0.209 0.854-0.008 1.24 0.244-0.471 0.249-0.786 0.007-1.24-0.244z"/><path d="m151.72 34.25c0.464-0.308 0.784-0.505 1.282-0.319-0.365 0.3-0.697 0.448-1.282 0.319z"/><path d="m41.273 67.913c0.351-0.351 0.755-0.526 1.331-0.424-0.401 0.448-0.855 0.459-1.32 0.437l-0.011-0.013z"/><path d="m262.56 61.204c-0.464 0.018-0.921 0.016-1.321-0.437 0.577-0.106 0.979 0.074 1.329 0.428l-0.008 0.009z"/><path d="m118.65 44.333c0.375-0.312 0.703-0.47 1.354-0.325-0.493 0.253-0.778 0.466-1.354 0.325z"/><path d="m211.12 45.485c-0.553 0.236-0.862-0.023-1.28-0.252 0.552-0.233 0.864 0.02 1.28 0.252z"/><path d="m281.52 66.966c-0.465 0.021-0.92 0.009-1.323-0.439 0.578-0.102 0.982 0.077 1.334 0.426l-0.011 0.013z"/><path d="m269.76 63.355c0.471-0.039 0.906 0.03 1.375 0.428-0.631 0.114-1.035-0.063-1.384-0.417l0.009-0.011z"/><path d="m241.15 54.609c-0.56 0.206-0.879 0.01-1.254-0.242 0.47-0.254 0.788 0 1.254 0.242z"/><path d="m279.04 66.16c-0.577 0.165-0.882-0.07-1.277-0.266 0.529-0.267 0.864-0.025 1.277 0.266z"/><path d="m27.258 72.147c0.348-0.305 0.69-0.492 1.172-0.294-0.351 0.297-0.69 0.5-1.172 0.294z"/><path d="m29.379 82.447c0.3-0.379 0.583-0.424 0.979-0.288-0.279 0.262-0.527 0.436-0.979 0.288z"/><path d="m296.83 71.652c0.386-0.183 0.692-0.132 0.912 0.241-0.398 0.223-0.633-0.111-0.912-0.241z"/><path d="m172.7 33.901c-0.083 0.025-0.192 0.099-0.262 0.071-0.156-0.063-0.392-0.059-0.394-0.307 0-0.019 0.208-0.062 0.316-0.053 0.15 0.012 0.317 0.035 0.34 0.289z"/><path d="m266.77 62.519c0.282-0.182 0.607-0.207 0.671 0.073 0.076 0.328-0.227 0.163-0.377 0.114-0.099-0.033-0.182-0.114-0.294-0.187z"/><path d="m81.12 71.279c-0.418 0.451-0.956 0.188-1.441 0.24l0.002 0.002c0.419-0.444 0.955-0.191 1.44-0.24l-0.001-0.002z"/><path d="m201.98 42.816c0.247-0.146 0.579-0.167 0.637 0.022 0.131 0.429-0.193 0.24-0.371 0.175-0.095-0.034-0.169-0.122-0.266-0.197z"/><path d="m107.51 47.747c0.205-0.276 0.483-0.37 0.836-0.348-0.083 0.583-0.534 0.29-0.816 0.371l-0.02-0.023z"/><path d="m247.81 56.758c0.284-0.179 0.611-0.2 0.672 0.075 0.074 0.334-0.228 0.157-0.376 0.111-0.099-0.031-0.181-0.111-0.296-0.186z"/><path d="m251.4 57.809c0.112-0.17 0.26-0.114 0.393-0.046 0.108 0.055 0.329 0.054 0.227 0.26-0.027 0.055-0.208 0.056-0.314 0.046-0.154-0.013-0.297-0.065-0.306-0.26z"/><path d="m260.88 73.921c0.336 0.012 0.685-0.099 1.037 0.114-0.396 0.208-0.734 0.231-1.035-0.117l-0.002 0.003z"/><path d="m65.532 73.958h0.8c-0.291 0.362-0.57 0.137-0.8 0z"/><path d="m60.479 75.119c-0.329 0.418-0.788 0.208-1.195 0.248l-0.01-0.013c0.339-0.405 0.797-0.196 1.208-0.232l-0.003-0.003z"/></g><path d="m289.29 69.425c0.029-0.067 0.045-0.171 0.094-0.19 0.047-0.019 0.129 0.048 0.196 0.077-0.029 0.067-0.044 0.171-0.093 0.191-0.048 0.019-0.13-0.048-0.197-0.078z" fill="#f9fafc"/><path d="m287.18 68.573c-0.028 0.067-0.058 0.134-0.086 0.201-0.067-0.029-0.172-0.043-0.19-0.091-0.02-0.048 0.047-0.13 0.075-0.197 0.067 0.029 0.134 0.058 0.201 0.087z" fill="#f9fafc"/><g fill="#b2cae8"><path d="m189.12 38.886c-0.23-0.013-0.462-0.025-0.731-0.041 0.304-0.326 0.531-0.232 0.743 0.026l-0.012 0.015z"/><path d="m54.722 76.322c-0.224 0.338-0.501 0.249-0.875 0.163 0.33-0.254 0.608-0.154 0.871-0.167l0.004 0.004z"/><path d="m64.081 74.401c0.23-0.336 0.51-0.256 0.8-0.002h-0.801l0.001 0.002z"/></g><path d="m187.34 38.53c0.116-0.079 0.203-0.158 0.305-0.196 0.047-0.018 0.124 0.045 0.188 0.071-0.08 0.072-0.15 0.164-0.243 0.206-0.049 0.023-0.138-0.041-0.25-0.081z" fill="#f9fafc"/><path d="m59.284 75.366c-0.231 0.287-0.492 0.334-0.805 0.105 0.255-0.201 0.534-0.098 0.795-0.118l0.01 0.013z" fill="#b2cae8"/><path d="m250.29 57.375c-0.112 0.079-0.193 0.162-0.291 0.193-0.057 0.019-0.141-0.043-0.212-0.07 0.086-0.073 0.164-0.163 0.262-0.211 0.041-0.02 0.125 0.044 0.241 0.088z" fill="#f9fafc"/><g fill="#b2cae8"><path d="m269.28 75.607c-0.266-0.015-0.531-0.029-0.893-0.049 0.397-0.299 0.664-0.245 0.904 0.035l-0.011 0.014z"/><path d="m269.29 75.593c0.262 0.016 0.523 0.033 0.886 0.055-0.403 0.29-0.665 0.251-0.897-0.041l0.011-0.014z"/><path d="m218.4 47.754c0.268-0.001 0.558-0.07 0.722 0.24l-0.009 0.01c-0.268 0.001-0.558 0.073-0.724-0.237l0.011-0.013z"/><path d="m219.12 47.994l0.534 0.075c-0.027 0.049-0.046 0.132-0.085 0.143-0.204 0.058-0.355-0.027-0.458-0.208l0.009-0.01z"/><path d="m105.11 48.468c0.115-0.201 0.288-0.256 0.502-0.188 0.03 0.009 0.047 0.062 0.07 0.095-0.185 0.039-0.37 0.077-0.554 0.115l-0.018-0.022z"/><path d="m105.13 48.49c-0.104 0.178-0.258 0.259-0.459 0.204-0.039-0.011-0.06-0.092-0.089-0.141 0.177-0.028 0.354-0.056 0.531-0.084-0.001-0.001 0.017 0.021 0.017 0.021z"/><path d="m224.65 49.667c0.176 0.028 0.353 0.057 0.528 0.086-0.029 0.048-0.049 0.129-0.089 0.141-0.203 0.058-0.353-0.031-0.459-0.204l0.02-0.023z"/></g><path d="m99.421 50.14c0.063-0.017 0.142-0.063 0.176-0.041 0.049 0.032 0.066 0.114 0.097 0.174-0.062 0.016-0.141 0.063-0.183 0.041-0.047-0.026-0.061-0.113-0.09-0.174z" fill="#f9fafc"/><g fill="#b2cae8"><path d="m226.31 50.167c-0.177-0.025-0.354-0.051-0.531-0.077 0.027-0.049 0.047-0.131 0.085-0.142 0.204-0.058 0.354 0.027 0.457 0.207 0-0.001-0.011 0.012-0.011 0.012z"/><path d="m96.473 51.113c0.109-0.208 0.283-0.26 0.497-0.195 0.03 0.009 0.046 0.063 0.068 0.096-0.185 0.038-0.37 0.075-0.555 0.112l-0.01-0.013z"/><path d="m96.484 51.125c-0.102 0.18-0.253 0.264-0.456 0.207-0.039-0.011-0.058-0.093-0.086-0.142 0.177-0.026 0.354-0.052 0.532-0.078-0.001 0.001 0.01 0.013 0.01 0.013z"/><path d="m94.069 51.829c0.101-0.183 0.257-0.257 0.457-0.203 0.04 0.011 0.061 0.092 0.09 0.141-0.176 0.028-0.353 0.056-0.529 0.083l-0.018-0.021z"/><path d="m231.84 51.846c-0.178-0.025-0.356-0.05-0.534-0.076 0.027-0.049 0.046-0.131 0.085-0.143 0.204-0.058 0.355 0.027 0.46 0.206-0.001 0.001-0.011 0.013-0.011 0.013z"/><path d="m94.087 51.85c-0.106 0.174-0.258 0.26-0.46 0.204-0.039-0.011-0.059-0.092-0.087-0.141 0.177-0.028 0.354-0.056 0.53-0.084l0.017 0.021z"/><path d="m232.56 52.084c-0.268 0.001-0.558 0.073-0.722-0.238 0 0 0.01-0.012 0.011-0.012 0.267 0 0.556-0.069 0.72 0.24l-0.009 0.01z"/><path d="m232.57 52.074c0.178 0.025 0.355 0.05 0.532 0.076-0.027 0.05-0.046 0.132-0.085 0.144-0.205 0.06-0.354-0.029-0.456-0.209l0.009-0.011z"/><path d="m90.964 52.806c-0.102 0.182-0.254 0.265-0.458 0.207-0.039-0.011-0.058-0.093-0.086-0.143 0.178-0.025 0.356-0.051 0.534-0.077-0.001-0.001 0.01 0.013 0.01 0.013z"/><path d="m237.36 53.528c-0.179-0.026-0.357-0.052-0.536-0.078 0.028-0.05 0.047-0.133 0.087-0.144 0.205-0.06 0.355 0.03 0.461 0.207l-0.012 0.015z"/><path d="m238.08 53.766c-0.267 0-0.557 0.072-0.721-0.238l0.012-0.015c0.267 0 0.556-0.067 0.721 0.24l-0.012 0.013z"/><path d="m238.09 53.752c0.177 0.026 0.354 0.052 0.53 0.078-0.028 0.049-0.047 0.13-0.086 0.142-0.203 0.058-0.354-0.028-0.455-0.207 0 0.001 0.011-0.013 0.011-0.013z"/><path d="m85.433 54.473c0.098-0.185 0.251-0.26 0.452-0.208 0.039 0.01 0.058 0.092 0.087 0.141-0.176 0.027-0.352 0.053-0.528 0.08l-0.011-0.013z"/><path d="m85.444 54.486c-0.103 0.179-0.253 0.263-0.457 0.206-0.039-0.011-0.058-0.093-0.086-0.142 0.177-0.026 0.354-0.051 0.532-0.077l0.011 0.013z"/><path d="m83.611 55.063c-0.061 0.044-0.122 0.123-0.169 0.115-0.082-0.013-0.154-0.08-0.231-0.124 0.066-0.029 0.132-0.082 0.198-0.081s0.131 0.056 0.202 0.09z"/><path d="m243.61 55.433c0.177 0.026 0.354 0.052 0.531 0.078-0.028 0.049-0.048 0.13-0.087 0.141-0.203 0.058-0.353-0.028-0.455-0.206l0.011-0.013z"/></g><path d="m80.535 55.818c0.06 0.036 0.14 0.058 0.169 0.11 0.02 0.035-0.031 0.111-0.05 0.168-0.06-0.03-0.146-0.047-0.171-0.095-0.021-0.041 0.031-0.118 0.052-0.183z" fill="#f9fafc"/><g fill="#b2cae8"><path d="m245.99 56.17c-0.177-0.028-0.354-0.056-0.53-0.084 0.03-0.048 0.051-0.129 0.091-0.14 0.2-0.054 0.355 0.02 0.458 0.202l-0.019 0.022z"/><path d="m79.927 56.166c-0.103 0.18-0.254 0.264-0.458 0.207-0.04-0.011-0.059-0.092-0.088-0.141 0.178-0.026 0.355-0.053 0.533-0.079l0.013 0.013z"/><path d="m246.01 56.147c0.178 0.028 0.354 0.057 0.532 0.085-0.03 0.049-0.05 0.13-0.091 0.142-0.203 0.059-0.354-0.03-0.46-0.204l0.019-0.023z"/><path d="m75.115 57.594c0.104-0.178 0.253-0.269 0.458-0.208 0.039 0.011 0.057 0.094 0.085 0.145l-0.534 0.075-0.009-0.012z"/><path d="m74.392 57.832c0.166-0.309 0.457-0.237 0.723-0.237l0.009 0.011c-0.163 0.312-0.453 0.241-0.719 0.241l-0.013-0.015z"/><path d="m74.405 57.847c-0.104 0.177-0.254 0.262-0.457 0.205-0.039-0.011-0.059-0.092-0.087-0.142 0.177-0.026 0.354-0.052 0.531-0.079 0 0.001 0.013 0.016 0.013 0.016z"/><path d="m256.32 59.287c-0.177-0.025-0.354-0.051-0.532-0.076 0.027-0.049 0.046-0.131 0.084-0.143 0.204-0.058 0.355 0.027 0.459 0.206l-0.011 0.013z"/><path d="m256.33 59.273c0.267 0.001 0.557-0.07 0.722 0.239l-0.011 0.013c-0.268 0-0.558 0.071-0.722-0.239l0.011-0.013z"/><path d="m68.884 59.526c-0.102 0.179-0.252 0.264-0.456 0.206-0.039-0.011-0.058-0.092-0.086-0.142 0.177-0.025 0.354-0.051 0.532-0.077l0.01 0.013z"/><path d="m257.05 59.513c0.177 0.026 0.354 0.052 0.53 0.078-0.028 0.049-0.047 0.13-0.086 0.142-0.203 0.057-0.354-0.026-0.455-0.206l0.011-0.014z"/><path d="m138.97 38.166c-0.095 0.188-0.248 0.266-0.451 0.21-0.039-0.011-0.059-0.093-0.088-0.143 0.177-0.026 0.353-0.052 0.53-0.078l0.009 0.011z"/><path d="m64.074 60.954c0.104-0.178 0.254-0.269 0.459-0.208 0.039 0.012 0.058 0.095 0.085 0.145-0.178 0.025-0.356 0.051-0.535 0.076l-0.009-0.013z"/><path d="m64.084 60.966c-0.163 0.313-0.454 0.239-0.721 0.239l-0.01-0.012c0.165-0.308 0.454-0.24 0.721-0.239l0.01 0.012z"/><path d="m63.364 61.205c-0.102 0.181-0.253 0.266-0.457 0.208-0.039-0.011-0.058-0.094-0.086-0.143 0.178-0.025 0.355-0.051 0.533-0.076 0-0.001 0.01 0.011 0.01 0.011z"/><path d="m262.56 61.195c0.178 0.024 0.355 0.049 0.532 0.074-0.027 0.049-0.045 0.132-0.084 0.143-0.204 0.059-0.354-0.028-0.456-0.208l0.008-0.009z"/><path d="m264.95 61.931c-0.177-0.028-0.354-0.056-0.529-0.084 0.029-0.049 0.05-0.13 0.09-0.141 0.2-0.054 0.355 0.022 0.459 0.202l-0.02 0.023z"/><path d="m264.97 61.907c0.177 0.029 0.354 0.058 0.529 0.086-0.029 0.049-0.05 0.13-0.089 0.141-0.202 0.056-0.354-0.028-0.46-0.204l0.02-0.023z"/><path d="m57.834 62.875c0.098-0.186 0.25-0.266 0.453-0.21 0.039 0.011 0.058 0.094 0.087 0.143-0.177 0.025-0.354 0.051-0.531 0.077l-0.009-0.01z"/><path d="m57.843 62.884c-0.102 0.181-0.253 0.265-0.457 0.207-0.039-0.011-0.057-0.093-0.085-0.142 0.178-0.025 0.355-0.05 0.533-0.075l0.009 0.01z"/><path d="m52.325 64.566c-0.103 0.179-0.252 0.267-0.457 0.208-0.04-0.012-0.059-0.093-0.087-0.143 0.177-0.026 0.354-0.053 0.531-0.079l0.013 0.014z"/><path d="m275.28 65.045c-0.178-0.024-0.355-0.049-0.533-0.074 0.027-0.05 0.045-0.132 0.084-0.143 0.204-0.059 0.354 0.027 0.457 0.207l-0.008 0.01z"/><path d="m276 65.287c-0.267-0.001-0.558 0.071-0.719-0.242l0.008-0.01c0.268-0.001 0.557-0.07 0.724 0.236l-0.013 0.016z"/><path d="m276.01 65.271c0.178 0.026 0.355 0.053 0.533 0.079-0.029 0.05-0.048 0.132-0.088 0.143-0.205 0.06-0.354-0.029-0.458-0.207l0.013-0.015z"/><path d="m47.514 65.994c0.104-0.177 0.256-0.263 0.459-0.206 0.039 0.011 0.057 0.093 0.085 0.142-0.178 0.026-0.355 0.051-0.533 0.077l-0.011-0.013z"/><path d="m46.794 66.234c0.164-0.307 0.453-0.241 0.719-0.24l0.011 0.013c-0.164 0.312-0.455 0.239-0.722 0.238l-0.008-0.011z"/><path d="m46.803 66.245c-0.103 0.179-0.251 0.27-0.457 0.209-0.039-0.012-0.058-0.094-0.086-0.144 0.178-0.025 0.356-0.051 0.534-0.076l0.009 0.011z"/><path d="m281.53 66.953c0.177 0.026 0.354 0.052 0.531 0.078-0.028 0.048-0.048 0.13-0.086 0.141-0.203 0.057-0.354-0.027-0.456-0.206l0.011-0.013z"/><path d="m283.82 67.514c-0.101 0.08-0.144 0.14-0.194 0.147-0.069 0.01-0.147-0.012-0.212-0.041-0.013-0.006 0.016-0.151 0.023-0.151 0.104 0.004 0.209 0.021 0.383 0.045z"/><path d="m41.284 67.925c-0.103 0.179-0.252 0.267-0.457 0.208-0.04-0.011-0.058-0.093-0.086-0.143 0.178-0.026 0.355-0.052 0.533-0.078l0.01 0.013z"/></g><path d="m286.42 68.301c0.02 0.064 0.07 0.141 0.05 0.181-0.025 0.048-0.11 0.064-0.17 0.094-0.019-0.058-0.067-0.132-0.047-0.168 0.029-0.05 0.108-0.072 0.167-0.107z" fill="#f9fafc"/><g fill="#b2cae8"><path d="m35.765 69.606c-0.104 0.177-0.253 0.268-0.458 0.208-0.04-0.011-0.059-0.094-0.087-0.143 0.178-0.026 0.355-0.053 0.532-0.08l0.013 0.015z"/><path d="m292.16 70.088c0.071 0.02 0.184 0.021 0.202 0.063 0.071 0.165-0.08 0.157-0.167 0.155-0.064-0.001-0.129-0.061-0.192-0.094 0.051-0.041 0.103-0.083 0.157-0.124z"/><path d="m294.24 70.807c-0.179-0.026-0.356-0.052-0.534-0.078 0.028-0.049 0.047-0.131 0.086-0.142 0.203-0.057 0.355 0.026 0.459 0.206l-0.011 0.014z"/><path d="m30.955 71.035c0.103-0.181 0.255-0.265 0.459-0.207 0.039 0.011 0.057 0.093 0.084 0.143-0.178 0.025-0.356 0.049-0.535 0.074l-0.008-0.01z"/><path d="m294.96 71.044c-0.268 0.002-0.557 0.07-0.721-0.237l0.011-0.014c0.267 0 0.556-0.068 0.719 0.241l-0.009 0.01z"/><path d="m30.233 71.272c0.165-0.31 0.456-0.237 0.722-0.238l0.009 0.011c-0.163 0.31-0.453 0.242-0.72 0.24l-0.011-0.013z"/><path d="m294.96 71.034c0.178 0.025 0.355 0.051 0.534 0.076-0.028 0.05-0.047 0.132-0.086 0.144-0.206 0.06-0.355-0.03-0.457-0.209l0.009-0.011z"/><path d="m30.244 71.286c-0.104 0.178-0.252 0.269-0.458 0.208-0.04-0.011-0.058-0.094-0.086-0.144 0.178-0.026 0.355-0.052 0.533-0.078l0.011 0.014z"/><path d="m25.433 72.713c0.105-0.179 0.257-0.263 0.461-0.205 0.039 0.011 0.058 0.093 0.086 0.143-0.178 0.025-0.356 0.051-0.534 0.077l-0.013-0.015z"/><path d="m46.886 78.097c-0.056 0.046-0.102 0.112-0.157 0.122-0.069 0.012-0.187 0.001-0.212-0.042-0.104-0.179 0.075-0.16 0.157-0.167 0.065-0.006 0.136 0.053 0.212 0.087z"/><path d="m282.81 78.586c-0.062 0.043-0.112 0.107-0.173 0.116-0.066 0.01-0.186-0.011-0.203-0.052-0.07-0.166 0.083-0.157 0.17-0.157 0.066 0 0.133 0.058 0.206 0.093z"/><path d="m43.578 78.955c-0.069-0.026-0.136-0.052-0.204-0.078 0.072-0.049 0.14-0.125 0.219-0.138 0.053-0.009 0.12 0.07 0.181 0.109-0.065 0.035-0.13 0.071-0.196 0.107z"/><path d="m283.78 78.776c-0.065 0.079-0.097 0.152-0.141 0.162-0.07 0.016-0.156 0.006-0.224-0.023-0.111-0.048-0.108-0.134 0.009-0.158 0.102-0.022 0.214 0.009 0.356 0.019z"/><path d="m42.597 79.195c-0.068-0.03-0.133-0.061-0.2-0.091 0.08-0.044 0.156-0.11 0.24-0.125 0.045-0.007 0.105 0.074 0.158 0.115-0.065 0.034-0.131 0.068-0.198 0.101z"/><path d="m284.74 79.018c-0.064 0.078-0.095 0.149-0.139 0.159-0.068 0.015-0.154 0.005-0.219-0.023-0.109-0.048-0.105-0.133 0.009-0.157 0.1-0.02 0.21 0.01 0.349 0.021z"/><path d="m285.44 79.209c0.072 0.02 0.188 0.02 0.205 0.062 0.071 0.166-0.082 0.157-0.17 0.156-0.065-0.001-0.131-0.06-0.197-0.093 0.054-0.042 0.107-0.084 0.162-0.125z"/><path d="m286.4 79.448c0.071 0.02 0.187 0.021 0.204 0.063 0.07 0.165-0.082 0.157-0.17 0.156-0.065-0.001-0.13-0.061-0.195-0.094 0.052-0.041 0.106-0.083 0.161-0.125z"/><path d="m287.35 79.686c0.072 0.02 0.188 0.021 0.206 0.064 0.074 0.167-0.081 0.161-0.17 0.16-0.066-0.001-0.132-0.062-0.198-0.096 0.054-0.043 0.107-0.085 0.162-0.128z"/><path d="m38.738 80.024c-0.062 0.044-0.123 0.123-0.17 0.115-0.083-0.014-0.157-0.081-0.234-0.125 0.066-0.029 0.134-0.082 0.2-0.081s0.131 0.056 0.204 0.091z"/><path d="m37.773 80.258c-0.055 0.045-0.111 0.126-0.151 0.119-0.09-0.016-0.172-0.075-0.258-0.117 0.066-0.032 0.133-0.089 0.2-0.09 0.067 0 0.134 0.055 0.209 0.088z"/><path d="m36.561 80.41c0.072 0.018 0.187 0.018 0.204 0.058 0.07 0.166-0.084 0.157-0.171 0.159-0.065 0.001-0.13-0.059-0.196-0.091 0.054-0.041 0.107-0.084 0.163-0.126z"/><path d="m35.895 80.706c-0.093 0.08-0.134 0.143-0.186 0.152-0.068 0.013-0.144-0.016-0.217-0.027 0.01-0.055 0.02-0.158 0.03-0.158 0.105-0.001 0.211 0.015 0.373 0.033z"/><path d="m291.01 80.878c-0.068-0.032-0.134-0.063-0.199-0.094 0.079-0.043 0.154-0.109 0.237-0.122 0.046-0.007 0.105 0.075 0.158 0.117-0.064 0.033-0.129 0.065-0.196 0.099z"/><path d="m31.826 81.741c0.055-0.045 0.111-0.125 0.152-0.119 0.09 0.015 0.172 0.075 0.257 0.116-0.067 0.032-0.133 0.089-0.2 0.09-0.066 0.002-0.134-0.053-0.209-0.087z"/><path d="m294.71 81.851c-0.185-0.04-0.368-0.08-0.553-0.119 0.023-0.033 0.04-0.086 0.07-0.095 0.212-0.063 0.389-0.015 0.504 0.188l-0.021 0.026z"/><path d="m31.299 81.943c-0.062 0.045-0.124 0.124-0.171 0.116-0.083-0.014-0.157-0.081-0.235-0.126 0.067-0.029 0.134-0.083 0.201-0.081 0.067 0.001 0.133 0.056 0.205 0.091z"/><path d="m88.549 53.509c0.104-0.178 0.257-0.257 0.458-0.203 0.039 0.011 0.06 0.092 0.088 0.141-0.176 0.028-0.352 0.056-0.528 0.083l-0.018-0.021z"/><path d="m162.73 30.966c-0.113 0.169-0.262 0.265-0.469 0.205-0.038-0.011-0.055-0.094-0.082-0.144 0.18-0.024 0.36-0.049 0.54-0.073l0.011 0.012z"/><path d="m161.03 31.434c0.104-0.18 0.255-0.269 0.461-0.208 0.039 0.012 0.058 0.095 0.085 0.145-0.179 0.025-0.357 0.051-0.536 0.076l-0.01-0.013z"/><path d="m296.88 82.566c-0.268 0.002-0.552 0.053-0.725-0.236l0.018-0.021c0.266 0.006 0.556-0.063 0.717 0.245l-0.01 0.012z"/><path d="m27.918 82.895c-0.054 0.047-0.109 0.13-0.148 0.124-0.089-0.016-0.17-0.077-0.254-0.119 0.066-0.033 0.131-0.09 0.198-0.092 0.064-0.002 0.131 0.053 0.204 0.087z"/></g><path d="m157.82 32.296c0.059 0.036 0.139 0.058 0.168 0.109 0.02 0.035-0.03 0.11-0.049 0.168-0.06-0.03-0.146-0.047-0.17-0.095-0.021-0.04 0.03-0.118 0.051-0.182z" fill="#f9fafc"/><path d="m155.6 33.161c-0.05 0.042-0.092 0.089-0.144 0.116-0.016 0.008-0.088-0.042-0.086-0.062 0.006-0.064 0.034-0.126 0.053-0.189 0.059 0.045 0.117 0.089 0.177 0.135z" fill="#f9fafc"/><g fill="#b2cae8"><path d="m170.17 33.112c0.177 0.026 0.355 0.053 0.532 0.079-0.028 0.05-0.047 0.132-0.087 0.144-0.205 0.06-0.354-0.031-0.458-0.208l0.013-0.015z"/><path d="m154.81 33.365c-0.103 0.181-0.253 0.268-0.458 0.209-0.04-0.012-0.059-0.094-0.088-0.143 0.178-0.026 0.356-0.052 0.535-0.079l0.011 0.013z"/><path d="m149.99 34.794c0.104-0.179 0.256-0.263 0.459-0.206 0.039 0.011 0.057 0.093 0.085 0.142-0.178 0.025-0.355 0.05-0.534 0.076l-0.01-0.012z"/><path d="m175.68 34.807c-0.268 0-0.558 0.07-0.722-0.24l0.01-0.012c0.268-0.001 0.559-0.072 0.725 0.237l-0.013 0.015z"/><path d="m150 34.806c-0.163 0.311-0.453 0.24-0.72 0.24l-0.011-0.014c0.165-0.308 0.455-0.237 0.721-0.238l0.01 0.012z"/><path d="m175.69 34.792c0.177 0.026 0.354 0.053 0.531 0.079-0.028 0.049-0.048 0.13-0.087 0.141-0.203 0.057-0.354-0.028-0.457-0.205l0.013-0.015z"/><path d="m149.28 35.046c-0.104 0.178-0.253 0.268-0.458 0.208-0.04-0.011-0.059-0.094-0.087-0.144 0.178-0.026 0.355-0.052 0.533-0.078l0.012 0.014z"/><path d="m178.07 35.531c-0.184-0.039-0.368-0.078-0.552-0.117 0.022-0.033 0.039-0.085 0.069-0.095 0.214-0.067 0.388-0.014 0.503 0.188l-0.02 0.024z"/><path d="m178.09 35.507c0.177 0.029 0.353 0.058 0.529 0.087-0.029 0.048-0.05 0.129-0.09 0.14-0.201 0.055-0.354-0.027-0.46-0.203l0.021-0.024z"/><path d="m144.48 36.475c0.103-0.18 0.254-0.264 0.458-0.207 0.039 0.011 0.057 0.093 0.084 0.143-0.178 0.025-0.355 0.05-0.533 0.075l-0.009-0.011z"/><path d="m143.75 36.711c0.166-0.308 0.456-0.237 0.723-0.237l0.009 0.011c-0.163 0.309-0.452 0.243-0.719 0.242l-0.013-0.016z"/><path d="m181.21 36.472c0.177 0.026 0.354 0.052 0.532 0.078-0.028 0.049-0.048 0.13-0.087 0.142-0.203 0.058-0.354-0.028-0.457-0.206l0.012-0.014z"/><path d="m143.76 36.727c-0.104 0.176-0.252 0.267-0.457 0.207-0.04-0.011-0.059-0.093-0.087-0.143 0.177-0.026 0.354-0.053 0.532-0.079l0.012 0.015z"/><path d="m182.87 36.973c-0.177-0.028-0.354-0.056-0.532-0.083 0.028-0.049 0.048-0.131 0.088-0.142 0.203-0.057 0.355 0.028 0.464 0.202l-0.02 0.023z"/><path d="m182.89 36.949c0.183 0.041 0.365 0.081 0.547 0.121-0.022 0.032-0.039 0.085-0.069 0.094-0.211 0.063-0.386 0.014-0.497-0.191 0 0 0.019-0.024 0.019-0.024z"/></g><path d="m185.98 38.101c-0.019-0.063-0.066-0.139-0.045-0.174 0.031-0.05 0.111-0.069 0.171-0.102 0.019 0.062 0.067 0.139 0.046 0.181-0.025 0.048-0.111 0.064-0.172 0.095z" fill="#f9fafc"/><g fill="#b2cae8"><path d="m138.96 38.155c0.103-0.178 0.252-0.265 0.456-0.207 0.039 0.011 0.057 0.093 0.084 0.143-0.177 0.025-0.354 0.05-0.532 0.075 0.001 0-0.008-0.011-0.008-0.011z"/><path d="m189.13 38.872c0.178 0.026 0.355 0.052 0.533 0.079-0.028 0.05-0.048 0.132-0.087 0.144-0.205 0.059-0.354-0.03-0.458-0.208l0.012-0.015z"/><path d="m133.44 39.834c0.103-0.18 0.255-0.263 0.458-0.206 0.039 0.011 0.057 0.093 0.085 0.142l-0.534 0.075-0.009-0.011z"/><path d="m132.71 40.067c0.172-0.297 0.46-0.23 0.727-0.232l0.009 0.011c-0.162 0.307-0.451 0.24-0.716 0.245l-0.02-0.024z"/><path d="m132.73 40.091c-0.107 0.174-0.257 0.263-0.46 0.204-0.041-0.012-0.061-0.093-0.09-0.142 0.177-0.028 0.354-0.057 0.531-0.085l0.019 0.023z"/><path d="m194.65 40.552c0.178 0.026 0.355 0.052 0.533 0.077-0.028 0.049-0.048 0.131-0.087 0.142-0.203 0.058-0.354-0.026-0.457-0.206 0 0.001 0.011-0.013 0.011-0.013z"/><path d="m127.92 41.514c0.103-0.182 0.255-0.264 0.459-0.207 0.039 0.011 0.058 0.094 0.085 0.143-0.178 0.025-0.356 0.05-0.535 0.075l-0.009-0.011z"/><path d="m127.92 41.526c-0.108 0.208-0.281 0.261-0.495 0.195-0.03-0.009-0.046-0.063-0.068-0.096 0.185-0.037 0.369-0.074 0.553-0.111l0.01 0.012z"/><path d="m200.17 42.232c0.177 0.026 0.354 0.052 0.532 0.078-0.028 0.049-0.047 0.131-0.086 0.142-0.203 0.058-0.354-0.028-0.458-0.207l0.012-0.013z"/><path d="m122.4 43.195c0.103-0.18 0.254-0.265 0.458-0.207 0.039 0.011 0.057 0.093 0.084 0.143l-0.534 0.075-0.008-0.011z"/><path d="m121.67 43.427c0.171-0.299 0.46-0.231 0.727-0.232l0.009 0.011c-0.162 0.307-0.451 0.241-0.716 0.245l-0.02-0.024z"/><path d="m121.69 43.451c-0.107 0.172-0.256 0.264-0.461 0.204-0.04-0.012-0.06-0.093-0.089-0.143 0.177-0.028 0.354-0.056 0.531-0.084-0.001-0.001 0.019 0.023 0.019 0.023z"/><path d="m212.88 46.087c-0.179-0.025-0.356-0.051-0.534-0.076 0.027-0.049 0.046-0.132 0.085-0.143 0.204-0.058 0.355 0.027 0.46 0.206l-0.011 0.013z"/><path d="m212.89 46.073c0.267 0 0.556-0.067 0.721 0.24l-0.011 0.013c-0.267 0-0.558 0.073-0.721-0.239l0.011-0.014z"/><path d="m111.35 46.554c0.104-0.18 0.255-0.264 0.459-0.206 0.039 0.011 0.057 0.093 0.085 0.143-0.178 0.025-0.356 0.05-0.535 0.075l-0.009-0.012z"/><path d="m213.61 46.313c0.178 0.026 0.355 0.052 0.533 0.078-0.028 0.05-0.047 0.132-0.086 0.144-0.206 0.06-0.355-0.029-0.458-0.208l0.011-0.014z"/><path d="m111.36 46.566c-0.108 0.21-0.281 0.261-0.495 0.195-0.03-0.009-0.046-0.063-0.069-0.095 0.185-0.038 0.37-0.074 0.555-0.112-0.001 0 0.009 0.012 0.009 0.012z"/><path d="m218.39 47.768c-0.178-0.026-0.355-0.052-0.533-0.078 0.028-0.05 0.047-0.132 0.086-0.144 0.206-0.06 0.354 0.031 0.458 0.208l-0.011 0.014z"/><path d="m107.53 47.77c-0.108 0.172-0.258 0.26-0.461 0.202-0.04-0.011-0.06-0.092-0.089-0.141 0.177-0.028 0.354-0.057 0.53-0.085l0.02 0.024z"/><path d="m294.73 81.825c0.177 0.03 0.353 0.059 0.529 0.089-0.029 0.049-0.05 0.131-0.09 0.142-0.204 0.058-0.354-0.032-0.461-0.205l0.022-0.026z"/></g><path d="m205.77 44.047c-0.032 0.018-0.065 0.051-0.096 0.048-0.029-0.002-0.056-0.042-0.084-0.064 0.06 0.006 0.12 0.011 0.18 0.016z" fill="#f9fafc"/><g fill="#b2cae8"><path d="m120.53 43.884c-0.063-0.03-0.125-0.061-0.188-0.091 0.028-0.025 0.063-0.077 0.084-0.071 0.066 0.018 0.127 0.056 0.189 0.086-0.028 0.025-0.056 0.05-0.085 0.076z"/><path d="m123.67 42.761c0.024 0.025 0.05 0.052 0.075 0.079-0.062 0.027-0.123 0.062-0.188 0.077-0.019 0.004-0.05-0.047-0.076-0.073 0.062-0.027 0.124-0.054 0.189-0.083z"/><path d="m201.51 42.599c-0.029 0.027-0.062 0.077-0.083 0.073-0.065-0.013-0.127-0.047-0.189-0.073 0.025-0.026 0.056-0.079 0.075-0.075 0.066 0.013 0.128 0.047 0.197 0.075z"/><path d="m126.14 42.125c-0.066 0.024-0.131 0.057-0.2 0.068-0.02 0.003-0.05-0.052-0.076-0.08 0.066-0.024 0.131-0.057 0.2-0.069 0.021-0.002 0.05 0.053 0.076 0.081z"/><path d="m126.87 41.888c-0.065 0.024-0.129 0.055-0.197 0.067-0.019 0.003-0.048-0.052-0.073-0.08 0.065-0.024 0.13-0.056 0.197-0.067 0.019-0.004 0.048 0.051 0.073 0.08z"/><path d="m198.37 41.649c-0.065 0.023-0.129 0.054-0.196 0.064-0.02 0.003-0.049-0.051-0.073-0.08 0.065-0.023 0.13-0.054 0.197-0.065 0.019-0.002 0.047 0.053 0.072 0.081z"/><path d="m129 41.157c0.063-0.024 0.126-0.055 0.192-0.067 0.019-0.003 0.048 0.049 0.072 0.077-0.063 0.024-0.126 0.056-0.192 0.067-0.019 0.004-0.048-0.049-0.072-0.077z"/><path d="m195.98 40.925c-0.065 0.024-0.129 0.055-0.196 0.066-0.02 0.003-0.05-0.051-0.074-0.079 0.065-0.024 0.129-0.055 0.196-0.066 0.019-0.004 0.049 0.051 0.074 0.079z"/><path d="m211.81 45.729c-0.065 0.023-0.129 0.054-0.196 0.064-0.021 0.003-0.049-0.051-0.074-0.08 0.065-0.023 0.13-0.054 0.198-0.065 0.018-0.002 0.048 0.053 0.072 0.081z"/><path d="m131.66 40.439c-0.064 0.027-0.127 0.063-0.196 0.078-0.021 0.004-0.054-0.049-0.081-0.076 0.065-0.028 0.129-0.064 0.197-0.079 0.019-0.005 0.052 0.051 0.08 0.077z"/><path d="m192.85 39.969c-0.065 0.023-0.13 0.054-0.198 0.064-0.02 0.003-0.049-0.051-0.073-0.08 0.065-0.023 0.131-0.054 0.198-0.065 0.019-0.003 0.048 0.052 0.073 0.081z"/><path d="m134.78 39.489c-0.065 0.023-0.13 0.055-0.198 0.066-0.019 0.003-0.048-0.053-0.072-0.082 0.066-0.023 0.131-0.054 0.198-0.065 0.019-0.003 0.047 0.052 0.072 0.081z"/><path d="m190.46 39.247c-0.065 0.023-0.13 0.054-0.197 0.064-0.02 0.003-0.048-0.053-0.072-0.081 0.065-0.023 0.13-0.054 0.197-0.064 0.019-0.003 0.048 0.052 0.072 0.081z"/><path d="m137.18 38.764c-0.064 0.024-0.128 0.056-0.195 0.068-0.019 0.003-0.049-0.051-0.074-0.079 0.065-0.024 0.129-0.057 0.196-0.068 0.019-0.004 0.048 0.05 0.073 0.079z"/><path d="m137.82 38.604c-0.063-0.029-0.125-0.059-0.187-0.088 0.028-0.025 0.063-0.076 0.083-0.071 0.066 0.017 0.126 0.054 0.189 0.083-0.028 0.026-0.056 0.051-0.085 0.076z"/><path d="m140.3 37.81c-0.065 0.023-0.13 0.054-0.198 0.065-0.019 0.003-0.048-0.052-0.072-0.081 0.066-0.023 0.13-0.054 0.198-0.065 0.02-0.003 0.048 0.052 0.072 0.081z"/><path d="m145.73 36.204c-0.062-0.03-0.124-0.06-0.187-0.09 0.028-0.025 0.063-0.076 0.083-0.071 0.066 0.017 0.126 0.055 0.189 0.085-0.028 0.026-0.056 0.051-0.085 0.076z"/><path d="m179.14 35.875c0.066-0.024 0.131-0.057 0.199-0.068 0.02-0.003 0.05 0.051 0.075 0.08-0.066 0.024-0.131 0.056-0.199 0.068-0.019 0.003-0.05-0.052-0.075-0.08z"/><path d="m147.94 35.393c0.065-0.024 0.129-0.056 0.196-0.068 0.019-0.003 0.049 0.052 0.073 0.08-0.065 0.024-0.128 0.056-0.196 0.068-0.019 0.003-0.049-0.052-0.073-0.08z"/><path d="m177.02 35.165c-0.065 0.024-0.129 0.056-0.196 0.066-0.02 0.003-0.049-0.051-0.074-0.079 0.065-0.024 0.129-0.055 0.196-0.066 0.019-0.004 0.049 0.05 0.074 0.079z"/><path d="m174.95 34.566c-0.109-0.033-0.219-0.065-0.328-0.097 0.023-0.032 0.063-0.092 0.066-0.09 0.093 0.055 0.182 0.116 0.271 0.176l-0.009 0.011z"/><path d="m62.293 61.564c-0.065 0.025-0.129 0.057-0.197 0.069-0.019 0.003-0.049-0.052-0.074-0.08 0.065-0.025 0.129-0.057 0.197-0.069 0.02-0.003 0.05 0.052 0.074 0.08z"/><path d="m151.25 34.524c-0.063-0.029-0.125-0.06-0.187-0.089 0.028-0.025 0.063-0.076 0.083-0.07 0.066 0.017 0.126 0.055 0.188 0.085-0.026 0.024-0.055 0.049-0.084 0.074z"/><path d="m153.65 33.801c-0.062-0.03-0.123-0.06-0.185-0.09 0.028-0.025 0.063-0.075 0.083-0.07 0.065 0.018 0.125 0.055 0.186 0.085-0.027 0.025-0.056 0.05-0.084 0.075z"/><path d="m51.254 64.926c-0.065 0.023-0.13 0.055-0.197 0.066-0.019 0.003-0.048-0.053-0.072-0.081 0.066-0.023 0.13-0.055 0.198-0.066 0.018-0.004 0.047 0.052 0.071 0.081z"/><path d="m244.87 55.718c0.024 0.026 0.049 0.053 0.074 0.08-0.063 0.027-0.124 0.061-0.188 0.076-0.02 0.004-0.052-0.047-0.078-0.073 0.062-0.027 0.124-0.054 0.192-0.083z"/><path d="m171.42 33.396c0.025 0.026 0.05 0.054 0.076 0.082-0.063 0.027-0.126 0.062-0.192 0.077-0.02 0.004-0.052-0.048-0.079-0.075 0.063-0.027 0.127-0.054 0.195-0.084z"/><path d="m25.446 72.728c-0.083 0.064-0.167 0.129-0.25 0.193-0.029-0.044-0.058-0.089-0.087-0.134 0.108-0.025 0.216-0.049 0.325-0.074l0.012 0.015z"/><path d="m59.896 62.28c-0.063 0.027-0.125 0.062-0.192 0.077-0.02 0.005-0.052-0.048-0.079-0.075 0.064-0.027 0.126-0.063 0.192-0.078 0.019-0.003 0.052 0.05 0.079 0.076z"/><path d="m266.3 62.28c-0.03 0.028-0.063 0.08-0.086 0.075-0.067-0.013-0.132-0.048-0.197-0.074 0.027-0.027 0.059-0.081 0.079-0.077 0.069 0.013 0.132 0.047 0.204 0.076z"/><path d="m209.42 45.005c-0.066 0.025-0.132 0.057-0.2 0.069-0.021 0.003-0.051-0.052-0.076-0.081 0.066-0.024 0.131-0.057 0.2-0.068 0.02-0.005 0.05 0.051 0.076 0.08z"/><path d="m48.774 65.724c-0.062-0.029-0.124-0.059-0.185-0.089 0.028-0.025 0.063-0.075 0.083-0.07 0.065 0.018 0.125 0.055 0.188 0.084-0.029 0.025-0.057 0.05-0.086 0.075z"/><path d="m241.73 54.923c-0.063-0.03-0.126-0.061-0.188-0.091 0.028-0.025 0.063-0.077 0.084-0.071 0.066 0.018 0.128 0.056 0.19 0.086-0.028 0.026-0.057 0.051-0.086 0.076z"/><path d="m277.34 65.646c-0.066 0.023-0.131 0.054-0.199 0.064-0.02 0.003-0.048-0.053-0.072-0.081 0.066-0.023 0.131-0.054 0.198-0.064 0.02-0.002 0.049 0.053 0.073 0.081z"/><path d="m59.163 62.522c-0.065 0.025-0.129 0.058-0.197 0.07-0.02 0.004-0.05-0.051-0.075-0.079 0.066-0.025 0.13-0.058 0.198-0.07 0.018-0.004 0.049 0.051 0.074 0.079z"/><path d="m168.37 32.526c-0.065 0.024-0.129 0.056-0.197 0.067-0.02 0.003-0.05-0.051-0.075-0.079 0.065-0.024 0.129-0.057 0.197-0.068 0.02-0.002 0.05 0.052 0.075 0.08z"/><path d="m84.362 54.836c-0.063 0.027-0.124 0.062-0.189 0.077-0.02 0.004-0.052-0.047-0.078-0.073 0.063-0.027 0.124-0.063 0.189-0.078 0.02-0.005 0.052 0.047 0.078 0.074z"/><path d="m255.26 58.923c-0.031 0.028-0.064 0.078-0.087 0.074-0.067-0.013-0.131-0.048-0.195-0.074 0.026-0.027 0.058-0.081 0.078-0.077 0.068 0.013 0.131 0.047 0.204 0.077z"/><path d="m263.9 61.567c-0.064 0.022-0.128 0.052-0.195 0.063-0.019 0.002-0.047-0.052-0.071-0.08 0.065-0.022 0.129-0.052 0.195-0.062 0.019-0.003 0.046 0.051 0.071 0.079z"/><path d="m279.65 66.445c-0.062-0.03-0.123-0.061-0.185-0.091 0.027-0.025 0.063-0.075 0.082-0.07 0.065 0.018 0.125 0.055 0.187 0.085-0.028 0.026-0.056 0.051-0.084 0.076z"/><path d="m165.98 31.806c-0.066 0.024-0.131 0.057-0.2 0.069-0.021 0.003-0.051-0.052-0.076-0.081 0.066-0.025 0.132-0.057 0.2-0.069 0.02-0.003 0.051 0.052 0.076 0.081z"/><path d="m161.04 31.447c-0.076 0.061-0.152 0.121-0.228 0.182-0.028-0.041-0.056-0.082-0.084-0.122 0.101-0.024 0.201-0.048 0.301-0.072l0.011 0.012z"/><path d="m293.67 81.485c-0.065 0.023-0.13 0.055-0.197 0.066-0.021 0.003-0.05-0.052-0.074-0.08 0.065-0.024 0.13-0.056 0.197-0.066 0.02-0.003 0.049 0.052 0.074 0.08z"/><path d="m45.646 66.681c-0.062-0.03-0.123-0.06-0.185-0.09 0.028-0.025 0.063-0.075 0.083-0.07 0.065 0.018 0.125 0.055 0.186 0.085-0.027 0.025-0.055 0.05-0.084 0.075z"/><path d="m117.95 44.517c0.064-0.024 0.127-0.055 0.193-0.067 0.02-0.003 0.049 0.05 0.073 0.077-0.064 0.024-0.127 0.056-0.193 0.068-0.019 0.003-0.048-0.051-0.073-0.078z"/><path d="m239.42 54.125c-0.065 0.024-0.129 0.056-0.196 0.067-0.021 0.003-0.05-0.052-0.075-0.08 0.065-0.024 0.13-0.055 0.197-0.066 0.02-0.004 0.049 0.051 0.074 0.079z"/><path d="m260.69 60.685c-0.062-0.03-0.124-0.061-0.186-0.091 0.028-0.025 0.063-0.076 0.083-0.07 0.064 0.018 0.125 0.056 0.187 0.086-0.027 0.025-0.056 0.05-0.084 0.075z"/><path d="m258.11 59.873c0.065-0.024 0.13-0.056 0.197-0.067 0.021-0.003 0.05 0.051 0.075 0.079-0.065 0.024-0.129 0.056-0.197 0.068-0.019 0.003-0.05-0.052-0.075-0.08z"/><path d="m43.263 67.239c0.027 0.026 0.053 0.054 0.079 0.081-0.064 0.028-0.126 0.063-0.193 0.079-0.02 0.004-0.052-0.048-0.079-0.075 0.064-0.028 0.128-0.056 0.193-0.085z"/><path d="m296.15 82.33c-0.109-0.025-0.22-0.05-0.33-0.074 0.03-0.045 0.061-0.091 0.091-0.136 0.086 0.063 0.172 0.126 0.257 0.189l-0.018 0.021z"/><path d="m282.86 67.325c-0.065 0.024-0.13 0.056-0.197 0.066-0.021 0.003-0.05-0.051-0.075-0.079 0.065-0.024 0.13-0.056 0.197-0.066 0.02-0.004 0.049 0.05 0.075 0.079z"/><path d="m88.567 53.53c-0.077 0.059-0.154 0.118-0.23 0.177-0.028-0.041-0.055-0.081-0.083-0.122 0.099-0.025 0.197-0.05 0.296-0.075-0.001-0.001 0.017 0.02 0.017 0.02z"/><path d="m70.853 59.003c-0.062-0.029-0.123-0.059-0.184-0.089 0.028-0.025 0.063-0.075 0.083-0.07 0.065 0.018 0.124 0.055 0.186 0.084-0.029 0.026-0.057 0.051-0.085 0.075z"/><path d="m252.77 58.281c-0.063-0.03-0.124-0.06-0.186-0.09 0.027-0.025 0.063-0.076 0.082-0.07 0.065 0.018 0.126 0.056 0.188 0.086-0.028 0.024-0.056 0.049-0.084 0.074z"/><path d="m26.743 83.154c0.066-0.024 0.131-0.057 0.199-0.069 0.02-0.003 0.05 0.052 0.076 0.08-0.066 0.025-0.131 0.057-0.2 0.069-0.02 0.004-0.05-0.051-0.075-0.08z"/><path d="m26.009 83.393c0.065-0.024 0.13-0.056 0.197-0.068 0.02-0.003 0.049 0.052 0.073 0.081-0.065 0.024-0.13 0.057-0.198 0.068-0.018 0.004-0.047-0.053-0.072-0.081z"/><path d="m40.137 68.198c0.026 0.027 0.053 0.053 0.08 0.079-0.063 0.027-0.125 0.063-0.191 0.077-0.02 0.004-0.052-0.048-0.079-0.074 0.063-0.028 0.127-0.055 0.19-0.082z"/><path d="m269.75 63.366c-0.11-0.033-0.22-0.064-0.329-0.097 0.023-0.031 0.063-0.092 0.066-0.09 0.093 0.055 0.182 0.116 0.271 0.176l-0.008 0.011z"/><path d="m236.22 53.081c0.027 0.026 0.054 0.053 0.079 0.08-0.063 0.027-0.124 0.062-0.19 0.076-0.02 0.004-0.052-0.047-0.079-0.074 0.063-0.027 0.127-0.054 0.19-0.082z"/><path d="m89.618 53.153c0.064-0.023 0.127-0.055 0.193-0.066 0.019-0.003 0.048 0.051 0.072 0.078-0.064 0.024-0.127 0.055-0.193 0.067-0.019 0.003-0.047-0.051-0.072-0.079z"/><path d="m233.82 52.357c0.024 0.026 0.05 0.054 0.076 0.081-0.064 0.027-0.126 0.062-0.192 0.077-0.02 0.004-0.052-0.048-0.078-0.074 0.062-0.027 0.125-0.054 0.194-0.084z"/><path d="m37.822 69.009c-0.066 0.024-0.131 0.055-0.199 0.066-0.019 0.003-0.048-0.053-0.072-0.082 0.066-0.023 0.131-0.055 0.199-0.066 0.019-0.003 0.047 0.052 0.072 0.082z"/><path d="m93.018 52.206c-0.066 0.024-0.13 0.056-0.199 0.068-0.02 0.003-0.05-0.051-0.076-0.08 0.066-0.024 0.131-0.057 0.199-0.068 0.021-0.004 0.051 0.051 0.076 0.08z"/><path d="m230.7 51.401c0.026 0.026 0.053 0.053 0.078 0.08-0.063 0.027-0.125 0.062-0.191 0.076-0.02 0.005-0.052-0.048-0.079-0.074 0.063-0.026 0.126-0.054 0.192-0.082z"/><path d="m73.329 58.196c-0.063 0.028-0.125 0.063-0.192 0.078-0.02 0.004-0.052-0.048-0.079-0.074 0.064-0.028 0.126-0.063 0.192-0.079 0.02-0.004 0.052 0.048 0.079 0.075z"/><path d="m34.614 69.878c0.027 0.027 0.054 0.053 0.08 0.08-0.063 0.027-0.126 0.063-0.192 0.078-0.02 0.004-0.053-0.048-0.08-0.075 0.064-0.028 0.128-0.056 0.192-0.083z"/><path d="m95.329 51.4l0.078 0.078c-0.063 0.026-0.124 0.061-0.188 0.075-0.02 0.004-0.051-0.047-0.077-0.073 0.062-0.027 0.124-0.054 0.187-0.08z"/><path d="m228.38 50.768c-0.067 0.024-0.133 0.056-0.202 0.067-0.021 0.003-0.05-0.053-0.075-0.082 0.067-0.024 0.133-0.056 0.202-0.067 0.021-0.004 0.05 0.052 0.075 0.082z"/><path d="m54.375 63.968c-0.065 0.024-0.129 0.055-0.197 0.066-0.019 0.003-0.047-0.053-0.072-0.081 0.065-0.023 0.13-0.055 0.197-0.066 0.02-0.003 0.048 0.053 0.072 0.081z"/><path d="m293.17 70.446c-0.064 0.023-0.127 0.055-0.192 0.065-0.02 0.003-0.049-0.049-0.073-0.077 0.063-0.023 0.126-0.055 0.192-0.066 0.019-0.002 0.047 0.051 0.073 0.078z"/><path d="m32.028 70.676c0.065-0.024 0.129-0.056 0.197-0.068 0.02-0.003 0.049 0.051 0.075 0.079-0.065 0.024-0.129 0.057-0.197 0.069-0.02 0.003-0.05-0.051-0.075-0.08z"/><path d="m102 49.445c-0.09 0.06-0.18 0.121-0.273 0.175-0.003 0.002-0.043-0.059-0.067-0.09 0.11-0.032 0.22-0.064 0.33-0.097l0.01 0.012z"/><path d="m271.73 64.043c-0.063-0.03-0.126-0.061-0.188-0.091 0.028-0.025 0.063-0.077 0.084-0.071 0.066 0.018 0.128 0.056 0.19 0.086-0.028 0.026-0.057 0.051-0.086 0.076z"/><path d="m76.452 57.24c-0.063 0.027-0.125 0.062-0.191 0.077-0.02 0.005-0.052-0.048-0.078-0.075 0.063-0.027 0.125-0.062 0.191-0.077 0.019-0.004 0.051 0.049 0.078 0.075z"/><path d="m222.86 49.081c-0.03 0.028-0.063 0.08-0.086 0.075-0.068-0.014-0.132-0.048-0.197-0.075 0.026-0.027 0.059-0.081 0.079-0.077 0.068 0.014 0.132 0.048 0.204 0.077z"/><path d="m247.06 56.515c0.065-0.024 0.131-0.057 0.199-0.068 0.02-0.004 0.05 0.051 0.075 0.08-0.065 0.024-0.131 0.057-0.199 0.069-0.019 0.002-0.05-0.053-0.075-0.081z"/><path d="m78.854 56.523c-0.065 0.024-0.129 0.057-0.197 0.068-0.02 0.003-0.049-0.051-0.075-0.079 0.066-0.024 0.13-0.057 0.198-0.069 0.019-0.003 0.049 0.052 0.074 0.08z"/><path d="m65.333 60.684c-0.062-0.03-0.123-0.06-0.185-0.089 0.028-0.025 0.063-0.075 0.082-0.07 0.065 0.017 0.125 0.055 0.187 0.084-0.028 0.025-0.057 0.05-0.084 0.075z"/><path d="m274.14 64.601c0.027 0.026 0.053 0.053 0.079 0.08-0.063 0.027-0.125 0.062-0.191 0.076-0.021 0.004-0.053-0.048-0.079-0.074 0.063-0.027 0.127-0.054 0.191-0.082z"/><path d="m103.97 48.924c-0.063-0.03-0.126-0.061-0.189-0.091 0.029-0.025 0.064-0.077 0.084-0.071 0.067 0.018 0.128 0.056 0.191 0.086-0.029 0.026-0.057 0.05-0.086 0.076z"/><path d="m296.3 71.405c-0.064 0.024-0.129 0.056-0.196 0.067-0.02 0.003-0.049-0.052-0.073-0.08 0.064-0.024 0.128-0.056 0.195-0.067 0.02-0.003 0.049 0.051 0.074 0.08z"/><path d="m29.173 71.646c-0.065 0.023-0.129 0.055-0.197 0.066-0.02 0.003-0.048-0.052-0.072-0.081 0.065-0.023 0.13-0.055 0.197-0.066 0.019-0.003 0.048 0.052 0.072 0.081z"/><path d="m106.44 48.123c-0.064 0.024-0.126 0.055-0.192 0.067-0.019 0.004-0.048-0.05-0.073-0.077 0.064-0.024 0.126-0.055 0.192-0.067 0.02-0.004 0.049 0.049 0.073 0.077z"/><path d="m217.33 47.407c-0.065 0.024-0.129 0.056-0.196 0.067-0.02 0.003-0.049-0.051-0.074-0.079 0.064-0.024 0.129-0.056 0.196-0.068 0.019-0.002 0.048 0.052 0.074 0.08z"/><path d="m214.66 46.673c0.065-0.024 0.129-0.056 0.197-0.067 0.02-0.003 0.05 0.051 0.075 0.079-0.065 0.024-0.13 0.056-0.198 0.068-0.02 0.003-0.049-0.052-0.074-0.08z"/><path d="m112.7 46.2c-0.063 0.026-0.124 0.061-0.189 0.075-0.02 0.004-0.051-0.047-0.077-0.073 0.063-0.026 0.124-0.061 0.189-0.075 0.019-0.005 0.05 0.047 0.077 0.073z"/><path d="m26.78 72.367c-0.066 0.025-0.13 0.057-0.198 0.069-0.02 0.003-0.049-0.052-0.074-0.08 0.065-0.024 0.13-0.057 0.198-0.069 0.019-0.004 0.049 0.051 0.074 0.08z"/><path d="m79.914 56.152c0.039-0.036 0.079-0.072 0.118-0.107-0.035 0.04-0.07 0.08-0.104 0.12l-0.014-0.013z"/></g><path d="m208.82 65.12c0.099 0.045 0.197 0.09 0.296 0.135-0.098-0.046-0.197-0.09-0.296-0.135z" fill="#f9fafc"/><path d="m154.79 33.353c0.039-0.036 0.078-0.071 0.117-0.107-0.035 0.04-0.07 0.079-0.104 0.119l-0.013-0.012z" fill="#b2cae8"/><path d="m162.95 30.97-0.113 0.005-0.112-0.009-0.011-0.012c0.081-0.197 0.166-0.205 0.255-0.005l-0.019 0.021z" fill="#b2cae8"/><g fill="#f9fafc"><path d="m283.72 90.759c0 0.996 0.014 1.992-0.005 2.987-0.014 0.797-0.464 1.181-1.239 1.086-2.412-0.295-4.819-0.628-7.231-0.926-0.46-0.058-0.569-0.252-0.559-0.702 0.059-2.43 0.107-4.861 0.098-7.293-0.003-0.678 0.212-0.806 0.818-0.688 2.149 0.422 4.304 0.819 6.457 1.221 1.2 0.224 1.802 0.914 1.753 2.16-0.027 0.717-0.005 1.437-0.005 2.154-0.029 0.001-0.057 0.001-0.087 0.001z"/><path d="m239.14 82.95c1.391 4.644 2.78 9.289 4.174 13.932 0.168 0.561-0.018 0.661-0.579 0.62-2.703-0.196-5.41-0.354-8.117-0.495-0.58-0.03-0.769-0.167-0.549-0.767 1.619-4.438 3.218-8.885 4.824-13.328 0.082 0.013 0.165 0.026 0.247 0.038z"/><path d="m90.36 82.179c1.589 4.797 3.095 9.363 4.62 13.921 0.184 0.549-0.003 0.715-0.521 0.744-2.749 0.154-5.497 0.318-8.245 0.483-1.007 0.061-0.476-0.567-0.371-0.905 1.007-3.232 2.041-6.456 3.067-9.682 0.459-1.44 0.916-2.879 1.45-4.561z"/></g><g fill="#fcfcfd"><path d="m163.65 68.628c-0.267 0.188-0.374 0.68-0.859 0.456-0.81-2.391-2.093-4.563-3.159-6.836-0.56-1.194-1.129-2.385-1.745-3.551-1.236-2.341-1.876-4.829-1.878-7.471-0.001-0.725-0.159-1.09-1-1.055-6.261 0.26-12.528 0.377-18.777 0.904-1.769 0.149-3.542 0.229-5.689 0.364 2.689 2.159 4.292 4.713 5.708 7.394 0.184 0.347 0.904 0.673 0.202 1.255-0.135 0.112 0.293 0.085 0.446 0.172 0.271 0.155 0.459 0.396 0.442 0.667-0.027 0.431-0.423 0.244-0.662 0.266-6.143 0.572-12.294 1.064-18.428 1.72-5.616 0.601-11.216 1.35-16.818 2.07-8.11 1.042-16.181 2.32-24.233 3.699-9.034 1.547-18.028 3.332-26.974 5.342-7.003 1.573-13.99 3.212-20.91 5.124-0.673 0.187-1.032 0.135-1.042-0.768-0.032-3.228-0.067-3.219 2.979-4.138 9.472-2.858 18.947-5.709 28.413-8.589 17.179-5.229 34.35-10.485 51.53-15.713 16.949-5.159 33.905-10.295 50.854-15.457 0.608-0.185 1.146-0.172 1.747 0.012 13.97 4.26 27.942 8.51 41.917 12.754 20.428 6.202 40.857 12.397 61.285 18.597 8.897 2.7 17.791 5.408 26.691 8.099 0.588 0.178 0.893 0.461 0.797 1.098-0.029 0.196-0.004 0.399-0.004 0.6 0.002 2.782 0.001 2.788-2.635 2.064-12.623-3.467-25.434-6.077-38.312-8.387-8.36-1.5-16.747-2.834-25.163-3.96-5.481-0.733-10.957-1.515-16.47-2.042-4.583-0.439-9.156-0.985-13.741-1.432-5.428-0.528-10.841-1.187-16.294-1.417-0.589-0.024-1.171-0.192-1.901-0.319 2.138-3.346 4.598-6.332 7.524-9.186-1.029-0.102-1.879-0.228-2.731-0.264-3.511-0.151-7.023-0.267-10.534-0.417-0.452-0.02-0.653 0.113-0.716 0.567-0.494 3.608-2.436 6.538-4.411 9.464-1.853 2.746-3.636 5.541-5.449 8.314zm-134.31 7.307c-0.093 0.002-0.186 0.005-0.279 0.008 0 0.617-0.007 1.234 0.004 1.851 0.004 0.209 0.1 0.402 0.349 0.379 0.271-0.025 0.245-0.204 0.204-0.427-0.113-0.6-0.188-1.207-0.278-1.811zm0.523-0.169 0.041-0.056-0.064-0.01 0.023 0.066z"/><path d="m133.71 129.25c0.019 3.014-2.375 5.493-5.299 5.484-2.878-0.008-5.265-2.438-5.284-5.38-0.019-3.046 2.339-5.476 5.301-5.461 2.925 0.014 5.263 2.386 5.282 5.357z"/><path d="m224.33 123.89c2.93 0.025 5.308 2.444 5.303 5.394-0.005 2.993-2.483 5.497-5.393 5.447-2.899-0.05-5.229-2.499-5.215-5.479 0.015-2.994 2.384-5.388 5.305-5.362z"/></g><path d="m29.341 75.935c0.09 0.604 0.165 1.21 0.278 1.811 0.042 0.223 0.067 0.401-0.204 0.427-0.249 0.023-0.345-0.169-0.349-0.379-0.012-0.617-0.004-1.234-0.004-1.851 0.093-0.003 0.187-0.005 0.279-0.008z" fill="#b2cae8"/><polygon points="29.864 75.766 29.841 75.701 29.905 75.71" fill="#b2cae8"/></g></svg>
