<?xml version="1.0" encoding="utf-8"?>
<!-- Generator: Adobe Illustrator 15.1.0, SVG Export Plug-In . SVG Version: 6.00 Build 0)  -->
<!DOCTYPE svg PUBLIC "-//W3C//DTD SVG 1.1//EN" "http://www.w3.org/Graphics/SVG/1.1/DTD/svg11.dtd">
<svg version="1.1" id="Layer_1" xmlns="http://www.w3.org/2000/svg" xmlns:xlink="http://www.w3.org/1999/xlink" x="0px" y="0px"
	 width="399.554px" height="428.976px" viewBox="0 0 399.554 428.976" enable-background="new 0 0 399.554 428.976"
	 xml:space="preserve">
<polygon points="310.171,188.196 310.171,368.398 89.578,188.196 89.419,188.4 89.419,188.196 41.74,188.196 
	41.74,428.976 89.381,428.976 89.381,248.617 310.166,428.976 357.814,428.976 357.814,188.196 "/>
<g>
	<path d="M93.906,32.927C80.14,34.548,66.8,40.565,56.258,51.117C45.724,61.643,39.7,74.988,38.084,88.742h15.148
		c1.542-9.891,6.049-19.402,13.658-27.015c7.6-7.601,17.115-12.111,27.006-13.646L93.906,32.927z"/>
	<path d="M46.518,41.368C59.754,28.14,76.602,20.702,93.906,19.034L93.897,4.009
		C72.751,5.718,52.053,14.585,35.903,30.74C19.75,46.894,10.869,67.589,9.167,88.742h15.021
		C25.853,71.434,33.294,54.599,46.518,41.368z"/>
	<path d="M72.823,79.202c0,5.652,4.581,10.239,10.238,10.239c5.648,0,10.234-4.586,10.234-10.239
		c0-5.648-4.586-10.226-10.234-10.226C77.404,68.976,72.823,73.554,72.823,79.202z"/>
	<polygon points="355.735,138.005 355.735,60.372 308.089,60.372 308.089,104.191 199.776,27.324 0,169.103 
		399.554,169.103 	"/>
</g>
</svg>
