<?xml version="1.0" encoding="utf-8"?>
<!-- Generator: Adobe Illustrator 15.1.0, SVG Export Plug-In . SVG Version: 6.00 Build 0)  -->
<!DOCTYPE svg PUBLIC "-//W3C//DTD SVG 1.1//EN" "http://www.w3.org/Graphics/SVG/1.1/DTD/svg11.dtd">
<svg version="1.1" id="Layer_1" xmlns="http://www.w3.org/2000/svg" xmlns:xlink="http://www.w3.org/1999/xlink" x="0px" y="0px"
	 width="668.597px" height="274.592px" viewBox="0 0 668.597 274.592" enable-background="new 0 0 668.597 274.592"
	 xml:space="preserve">
<polygon fill="#FFFFFF" points="296.084,169.904 402.497,169.904 402.497,148.516 296.084,148.516 296.084,89.052 413.336,89.052 
	413.336,67.662 268.96,67.662 268.96,255.976 412.932,255.976 412.932,234.586 296.084,234.586 "/>
<polygon fill="#FFFFFF" points="183.891,118.881 183.891,221.484 58.291,118.881 58.2,118.998 58.2,118.881 31.052,118.881 
	31.052,255.976 58.179,255.976 58.179,153.283 183.888,255.976 211.018,255.976 211.018,118.881 "/>
<g>
	<path fill="#FFFFFF" d="M60.754,30.474c-7.838,0.923-15.434,4.349-21.435,10.357c-5.999,5.994-9.429,13.592-10.348,21.423h8.624
		c0.878-5.632,3.445-11.047,7.777-15.382c4.328-4.328,9.745-6.896,15.377-7.77L60.754,30.474z"/>
	<path fill="#FFFFFF" d="M33.773,35.28c7.536-7.532,17.129-11.767,26.981-12.716l-0.005-8.555
		c-12.04,0.973-23.825,6.022-33.021,15.22c-9.197,9.198-14.253,20.981-15.222,33.025h8.553
		C22.007,52.399,26.244,42.814,33.773,35.28z"/>
	<path fill="#FFFFFF" d="M48.75,56.822c0,3.218,2.608,5.83,5.829,5.83c3.216,0,5.827-2.611,5.827-5.83
		c0-3.216-2.611-5.822-5.827-5.822C51.359,51,48.75,53.606,48.75,56.822z"/>
	<polygon fill="#FFFFFF" points="209.834,90.304 209.834,46.101 182.706,46.101 182.706,71.051 121.035,27.284 7.287,108.01 
		234.784,108.01 	"/>
</g>
<path fill="#FFFFFF" d="M554.721,62.706c-75.66,0-101.38,54.251-101.38,99.112c0,44.858,25.72,99.108,101.38,99.108
	c75.662,0,101.38-54.25,101.38-99.108C656.101,116.957,630.383,62.706,554.721,62.706z M554.721,239.539
	c-43.696,0-73.91-31.297-73.91-77.721s30.214-77.722,73.91-77.722c43.701,0,73.915,31.297,73.915,77.722
	S598.422,239.539,554.721,239.539z"/>
</svg>
