<?xml version="1.0" standalone="no"?>
<!DOCTYPE svg PUBLIC "-//W3C//DTD SVG 20010904//EN"
 "http://www.w3.org/TR/2001/REC-SVG-20010904/DTD/svg10.dtd">
<svg version="1.0" xmlns="http://www.w3.org/2000/svg"
 width="100.000000pt" height="100.000000pt" viewBox="0 0 100.000000 100.000000"
 preserveAspectRatio="xMidYMid meet">
<metadata>
Created by potrace 1.10, written by Peter Selinger 2001-2011
</metadata>
<g transform="translate(0.000000,100.000000) scale(0.050000,-0.050000)"
 stroke="none">
<path d="M1180 1931 c12 -31 10 -94 -3 -172 -31 -175 -3 -250 153 -416 237
-252 451 -311 596 -166 l63 63 -65 0 c-148 0 -263 105 -216 196 82 158 84 361
7 487 l-42 67 -23 -90 c-31 -118 -73 -198 -141 -266 -74 -74 -97 -61 -110 65
-9 93 -21 115 -104 193 -106 100 -144 113 -115 39z"/>
<path d="M632 1656 c-473 -101 -848 -1348 -475 -1581 250 -155 922 -20 1269
255 325 258 316 487 -34 862 -354 380 -561 506 -760 464z m141 -147 c14 -35
-44 -106 -103 -129 -104 -39 -124 60 -25 120 78 48 112 50 128 9z m-323 -288
c17 -28 -43 -136 -91 -161 -83 -45 -108 38 -38 127 42 53 106 70 129 34z m790
-60 c0 -41 -40 -89 -102 -122 -82 -44 -107 38 -35 115 55 58 137 62 137 7z
m-388 -29 c28 -72 -123 -189 -175 -137 -24 24 26 135 68 152 49 19 96 13 107
-15z m-367 -277 c15 -43 -28 -111 -86 -136 -103 -42 -134 27 -50 112 53 53
122 65 136 24z m775 -39 c0 -58 -76 -136 -133 -136 -62 0 -63 70 -4 134 58 61
137 62 137 2z m-451 -170 c-25 -69 -117 -126 -151 -92 -40 40 -3 126 68 156
80 34 109 11 83 -64z m691 -7 c0 -63 -60 -139 -110 -139 -51 0 -37 115 20 172
59 59 90 48 90 -33z m-1180 -176 c0 -66 -83 -154 -129 -136 -43 16 -39 66 10
135 55 77 119 78 119 1z m795 -18 c12 -35 -93 -125 -147 -125 -59 0 -76 28
-45 78 46 73 173 105 192 47z m-533 -253 c-81 -86 -207 -76 -159 13 32 60 140
100 176 64 25 -24 23 -34 -17 -77z"/>
</g>
</svg>
