<?xml version="1.0" encoding="UTF-8" standalone="no"?>
<svg xmlns:rdf="http://www.w3.org/1999/02/22-rdf-syntax-ns#" xmlns="http://www.w3.org/2000/svg" version="1.1" xmlns:cc="http://creativecommons.org/ns#" xmlns:dc="http://purl.org/dc/elements/1.1/" viewBox="0 0 250 135">
 <g transform="translate(-272.54 -392.99)">
  <path d="m325.33 392.99h144.44c14.471 0 27.978 5.7507 30.386 13.204 0 0 21.733 67.273 21.733 67.273 3.7294 11.544-8.6486 21.353-27.96 21.353h-192.75c-19.312 0-31.69-9.8092-27.96-21.353 0 0 21.733-67.273 21.733-67.273 2.4078-7.4531 15.915-13.204 30.386-13.204"/>
  <g fill="#fff">
   <g transform="matrix(0 1.1501 1.2298 0 601.45 200.84)">
    <g fill="#fff" transform="translate(.42834 -1.196)">
     <path d="m196.42-225.17s6.0509-0.86615 6.0509-0.86615v5.7838s-6.0509 0.78242-6.0509 0.78242v-5.7m2.4723 0.92377v3.2402s2.4894-0.32921 2.4894-0.32921v-3.2596s-2.4894 0.34868-2.4894 0.34868"/>
     <g transform="matrix(0 .35710 -.35710 0 165.67 19.225)">
      <path d="m-625.4-62.058l-6.1441-65.386h61.815l0.34236 8.1078h-50.508l1.9316 22.781h44.639l0.35526 7.6505h-44.346l1.654 19.506h46.554s0.32179 7.3409 0.32179 7.3409h-56.616" fill="#fff"/>
     </g>
     <g transform="matrix(0 .35710 -.35710 0 165.67 51.215)">
      <path d="m-641.33-62.058l-1.88-65.386h51.757s-0.11813 8.1078-0.11813 8.1078h-40.519l1.1213 57.278h-10.362" fill="#fff"/>
     </g>
     <path d="m211.18-154.16v3.9141l-23.349-0.87346v-3.6999l23.349 0.65926"/>
     <g transform="matrix(0 .35710 -.35710 0 165.67 89.63)">
      <path d="m-660.47-62.058s0.36381-7.3409 0.36381-7.3409h25.966s4.2026-58.045 4.2026-58.045h10.962s-4.7352 58.045-4.7352 58.045h26.072l-0.76724 7.3409h-62.065" fill="#fff"/>
     </g>
     <g transform="matrix(0 .35710 -.35710 0 165.67 121.88)">
      <path d="m-676.53-62.058l7.5385-65.386h61.816l-1.3543 8.1078h-50.508l-2.8354 22.781h44.639l-1.2457 7.6505h-44.346l-2.4279 19.506h46.554l-1.2144 7.3409h-56.616" fill="#fff"/>
     </g>
     <g transform="matrix(0 .35710 -.35710 0 214.97 -13.394)">
      <path d="m-624.76-21.313l3.9691 0.29468c-0.12107-2.0758 0.76578-4.1912 2.9065-5.1183 2.9216-1.3884 6.7982-1.5156 10.224-0.3543 2.315 0.72386 4.1358 2.8886 3.7107 4.8827-0.37413 2.0185-2.8607 2.7677-4.9055 3.2493-3.4061 0.90077-7.1627 1.2495-10.135 2.8737-2.3842 1.2621-3.4497 3.8893-2.5385 6.3782 0.83134 2.645 3.6078 4.8068 6.674 5.5807 3.7305 1.0058 7.7465 0.92305 11.079-0.25382 3.0911-1.0509 4.9208-3.8402 4.6035-6.7821-0.20025-0.32836-1.0262-0.12853-1.4861-0.23784-0.83865-0.05252-1.6774-0.10505-2.5162-0.15758 0.13284 2.0564-1.0708 4.0966-3.4162 4.6547-2.2902 0.57532-4.8953 0.55079-7.3524-0.048593-2.2622-0.53627-4.2619-2.5784-3.8025-4.504 0.33853-1.7518 2.5838-2.2348 4.3248-2.7038 3.4476-0.88946 7.2585-1.2137 10.316-2.8194 2.4188-1.2144 3.7416-3.6994 3.1802-6.2526-0.53527-3.1946-3.6736-6.0017-7.2708-7.05-3.6942-1.1449-7.6237-1.0055-11.107-0.21291-3.3752 0.77695-5.9612 3.1556-6.4218 6.165-0.13683 0.78624-0.14102 1.6012-0.0353 2.4162" fill="#fff"/>
     </g>
     <g transform="matrix(0 .35710 -.35710 0 219.01 1.0311)">
      <path d="m-630.23-18.723l3.5054 26.748h6.1694l5.0757-18.817c0.4737-1.7811 0.81761-3.118 1.0266-4.007 0.47709 0.98609 1.2076 2.4334 2.1879 4.338l9.5871 18.486h5.513l-2.8513-26.748h-4.0379l2.4685 22.468-11.668-22.468h-3.7824l-6.2375 22.844-2.9192-22.844h-4.037" fill="#fff"/>
     </g>
     <g transform="matrix(0 .35710 -.35710 0 213.85 20.156)">
      <path d="m-634.6-22.055h10.635s-2.6364 7.3912-2.6364 7.3912c-0.8012 2.2283-1.3766 4.0504-1.7308 5.4752-0.54743-1.6876-1.2537-3.3686-2.1246-5.0422 0 0-4.1428-7.8243-4.1428-7.8243m-10.162-11.126s14.558 26.748 14.558 26.748h4.4141l10.659-26.748h-4.7717s-3.0172 8.225-3.0172 8.225h-13.15l-4.2447-8.225h-4.4488" fill="#fff"/>
     </g>
     <g transform="matrix(0 .35710 -.35710 0 211.98 33.508)">
      <path d="m-638.41-23.306c3.5178 0.02335 7.0325-0.05198 10.553 0.04846 2.1834 0.0664 4.7136 0.75152 5.7153 2.6068 1.2426 1.9854 0.40017 4.6919-2.03 5.5359-2.362 0.84985-5.0351 0.4897-7.5673 0.56861h-6.1024c-0.18844-2.9059-0.37779-5.8258-0.56806-8.7598m-5.1683-15.089c0.61735 9.0468 1.2257 17.962 1.8253 26.749 5.1492-0.01837 10.305 0.03932 15.45-0.03391 2.7189-0.09452 5.7711-0.53245 7.3855-2.5352 2.5377-2.8634 2.0811-7.6131-1.556-9.9571-1.7445-1.146-3.9171-1.6552-6.0341-1.9051 3.2181-1.2201 5.0272-3.9344 6.7526-6.4382 1.3558-1.9535 2.716-3.9133 4.0804-5.8793h-5.2699c-2.3052 3.2633-4.3718 6.6421-6.9624 9.694-1.1855 1.4557-3.1478 2.4614-5.3187 2.3262-1.7936 0.01055-3.5886 0.0022-5.3828 0.0048-0.25824-3.9823-0.51817-7.9906-0.7798-12.025h-4.1898" fill="#fff"/>
     </g>
     <g transform="matrix(0 .35710 -.35710 0 219.01 49.898)">
      <path d="m-644.01-18.723l0.74353 23.651h-10.234l0.12352 3.0969h24.553l-0.0606-3.0969h-10.273l-0.66332-23.651h-4.1898" fill="#fff"/>
     </g>
     <g transform="matrix(0 .35710 -.35710 0 214.97 66.132)">
      <path d="m-648.6-21.313c1.3085 0.09824 2.6168 0.19647 3.9249 0.29468 0.20958-2.0771 1.444-4.1917 3.7348-5.1183 3.1464-1.3881 7.043-1.5158 10.28-0.3543 2.1986 0.723 3.6629 2.8894 2.9189 4.8827-0.70006 2.0192-3.3088 2.7671-5.4312 3.2493-3.5525 0.90153-7.3664 1.2494-10.602 2.8737-2.682 1.3004-4.1593 4.0676-3.5253 6.6188 0.51178 2.6007 2.9747 4.6549 5.8888 5.3882 3.5263 0.94966 7.4843 0.86023 10.953-0.30191 3.2644-1.05 5.5427-3.8398 5.7079-6.7821-0.14613-0.32836-1.0052-0.12852-1.4472-0.23783-0.83041-0.05253-1.6609-0.10506-2.4914-0.1576-0.2012 2.0567-1.7378 4.095-4.1725 4.6547-2.3832 0.57542-4.984 0.55072-7.3437-0.048593-2.1784-0.53461-3.8419-2.5779-3.0727-4.504 0.61936-1.7533 2.9466-2.2337 4.7624-2.7038 3.5915-0.89014 7.4551-1.2139 10.773-2.8194 2.7173-1.2535 4.4423-3.884 4.1839-6.5193-0.15812-3.0942-2.7897-5.7624-6.1192-6.7833-3.5083-1.1448-7.4599-1.0055-11.071-0.21291-3.5017 0.77607-6.4747 3.1547-7.4216 6.165-0.26404 0.78633-0.40045 1.6012-0.42803 2.4162" fill="#fff"/>
     </g>
     <g transform="matrix(0 .35710 -.35710 0 219.01 80.66)">
      <path d="m-652.69-18.723l-0.83644 26.748h4.0991l0.37583-10.843h16.246l-0.52027 10.843h4.0991s1.3742-26.748 1.3742-26.748h-4.1898l-0.61205 12.755h-16.288l0.44212-12.755h-4.1898" fill="#fff"/>
     </g>
     <g transform="matrix(0 .35710 -.35710 0 213.85 97.735)">
      <path d="m-658.24-22.055h10.636l-3.8054 7.3912c-1.151 2.2283-2.018 4.0504-2.5967 5.4752-0.2779-1.6876-0.7183-3.3686-1.3281-5.0422 0 0-2.9054-7.8243-2.9054-7.8243m-8.4017-11.126l10.327 26.748h4.4141l14.89-26.748h-4.7717s-4.3179 8.225-4.3179 8.225h-13.15s-2.9403-8.225-2.9403-8.225h-4.4515" fill="#fff"/>
     </g>
     <g transform="matrix(0 .35710 -.35710 0 217.53 111.06)">
      <path d="m-661.56-19.659c3.0692 0.03487 6.1599-0.08557 9.2088 0.09668 2.5154 0.1473 5.0436 1.1131 6.1037 3.0962 1.7569 2.993 1.4688 6.6279 0.70385 9.9605-0.65225 2.8499-2.8558 5.7911-6.2438 6.8099-3.0437 0.69823-6.1299 0.40504-9.1833 0.46913h-2.4944l1.9053-20.432m-3.889-3.2165c-0.81291 9.0466-1.614 17.962-2.4035 26.748 4.3815-0.022841 8.7557 0.052539 13.144-0.052365 3.1805-0.057789 6.5529-0.95166 8.929-3.0177 3.6656-3.0296 4.9314-7.4493 5.1012-11.493 0.16322-3.8703-1.0365-8.0353-4.6745-10.351-3.12-1.8834-7.2188-1.8677-11.052-1.8338h-9.0438" fill="#fff"/>
     </g>
     <g transform="matrix(0 .35710 -.35710 0 219.01 124.31)">
      <path d="m-665-18.723l-3.2167 26.748h22.399l0.42983-3.0969h-18.346l1.0026-8.1081h17.298l0.43219-3.1357h-17.342l1.1364-9.1907h19.387l0.44833-3.2165h-23.627" fill="#fff"/>
     </g>
     <g transform="matrix(0 .35710 -.35710 0 214.97 137.62)">
      <path d="m-670.04-21.313c1.2942 0.09824 2.5882 0.19647 3.8819 0.29468 0.51155-2.0772 2.054-4.1912 4.4794-5.1183 3.3484-1.3883 7.2642-1.5161 10.331-0.3543 2.0921 0.72402 3.2459 2.8887 2.2074 4.8827-0.99555 2.0192-3.7116 2.7681-5.9053 3.2493-3.6834 0.90168-7.5475 1.2494-11.02 2.8737-2.8716 1.3004-4.7519 4.0675-4.4911 6.6188 0.13155 2.6015 2.2981 4.6546 5.1051 5.3882 3.3878 0.94999 7.3589 0.85971 10.997-0.30191 3.4168-1.0504 6.1023-3.8397 6.6946-6.7821-0.0985-0.32835-0.98652-0.12848-1.4126-0.23776-0.82365-0.05255-1.6474-0.10511-2.4712-0.15766-0.49531 2.0579-2.3326 4.0959-4.8487 4.6547-2.467 0.57523-5.0643 0.55091-7.3365-0.048593-2.0992-0.53547-3.4648-2.5784-2.4147-4.504 0.87483-1.7528 3.2708-2.2341 5.155-2.7038 3.7216-0.88925 7.6321-1.2141 11.184-2.8194 2.9011-1.2526 5.0091-3.8838 5.1347-6.5193 0.29231-3.0941-1.9496-5.7623-5.1303-6.7833-3.3414-1.1446-7.3133-1.0057-11.04-0.21291-3.6154 0.77604-6.9336 3.1554-8.3214 6.165-0.37885 0.78623-0.6337 1.6012-0.77843 2.4162" fill="#fff"/>
     </g>
     <g transform="matrix(0 .35710 -.35710 0 204.19 149.36)">
      <path d="m-677.44-28.816l-0.79327 4.6301h-2.0543l-0.10434 0.6152h4.9416l0.10688-0.6152h-2.0622l0.79646-4.6301h-0.83086" fill="#fff"/>
     </g>
     <g transform="matrix(0 .35710 -.35710 0 204.19 151.33)">
      <path d="m-678.12-28.816l-0.91967 5.2453h1.2417s2.1326-3.7095 2.1326-3.7095c0.19902-0.3466 0.3443-0.60723 0.43975-0.77958 0.0343 0.19149 0.0952 0.4742 0.17982 0.84431l0.84472 3.6448h1.1082l0.94569-5.2453h-0.79668l-0.78897 4.3922-1.0305-4.3922h-0.74761s-2.598 4.4684-2.598 4.4684l0.7864-4.4684h-0.79756" fill="#fff"/>
     </g>
     <g transform="matrix(0 .35710 -.35710 0 183.04 -11.823)">
      <path d="m-615.04-45.889l6.823 4.5651-4.6765-30.77h36.718l3.7081 30.626 5.6816-4.5545-3.6398-31.456h-49.582l4.9677 31.589" fill="#fff"/>
     </g>
     <g transform="matrix(0 .35710 -.35710 0 169.08 .65014)">
      <path d="m-717.45 80.256s-0.13206 0.09543-0.13206 0.09543l-48.114 33.735 5.5871 5.3513 41.293-29.138 33.349 29.138 7.0457-5.3513-38.918-33.735-0.10605-0.09543-0.002 0.0013-0.003-0.0013h0.00003" transform="matrix(.8 0 0 -.8 -47.517 9.5476)" fill="#fff"/>
     </g>
     <g transform="matrix(0 .35710 -.35710 0 195.01 -2.0743)">
      <path d="m-622.48-35.856c-0.0867-0.63084 0.45758-1.1391 1.2185-1.1391 0.76177 0 1.4447 0.50974 1.5297 1.1391 0.0851 0.63017-0.45933 1.137-1.2196 1.137-0.74738 0-1.442-0.50679-1.5286-1.137" fill="#fff"/>
     </g>
     <g transform="matrix(0 .35710 -.35710 0 192.93 .79258)">
      <path style="color-rendering:auto;text-decoration-color:#000000;color:#000000;isolation:auto;mix-blend-mode:normal;shape-rendering:auto;solid-color:#000000;block-progression:tb;text-decoration-line:none;text-decoration-style:solid;image-rendering:auto;white-space:normal;text-indent:0;text-transform:none" d="m-624.76-38.936c-0.98141 0.95004-2.3314 1.4519-3.8106 1.4519-1.4608 0-2.9387-0.49485-4.176-1.4283l-1.2218 1.1149c1.6156 1.2168 3.6245 1.9014 5.614 1.9014 2.0107 0 3.8463-0.6961 5.1285-1.9347l-1.5343-1.1052" fill="#fff"/>
     </g>
     <path style="color-rendering:auto;text-decoration-color:#000000;color:#000000;isolation:auto;mix-blend-mode:normal;shape-rendering:auto;solid-color:#000000;block-progression:tb;text-decoration-line:none;text-decoration-style:solid;image-rendering:auto;white-space:normal;text-indent:0;text-transform:none" d="m205.26-226.79c-0.66863 0.98886-1.0347 2.1995-1.0347 3.404 0 1.2175 0.37323 2.3354 1.0527 3.1449 0 0 0.41564-0.51786 0.41564-0.51786-0.58542-0.69607-0.90479-1.6543-0.90479-2.7038 0-1.038 0.31408-2.075 0.88959-2.9247l-0.41837-0.40254"/>
     <g transform="matrix(0 .35710 -.35710 0 203.01 -13.096)" stroke="#191919">
      <path style="color-rendering:auto;text-decoration-color:#000000;color:#000000;isolation:auto;mix-blend-mode:normal;shape-rendering:auto;solid-color:#000000;block-progression:tb;text-decoration-line:none;text-decoration-style:solid;image-rendering:auto;white-space:normal;text-indent:0;text-transform:none" d="m-621.04-30.925l0.39447 2.4677h392.36l0.41218-2.4677h-393.17" fill="#fff"/>
     </g>
    </g>
   </g>
   <path d="m300.68 479.73c0.30142-1.2171-0.46176-2.335-1.9967-2.9373-1.5302-0.60039-3.6038-0.60039-5.4482 0-1.8501 0.60225-3.1984 1.7202-3.534 2.9373-0.33768 1.2247 0.40101 2.3633 1.9434 2.9821 1.5473 0.62076 3.6591 0.62076 5.5313 0 1.8663-0.61883 3.2008-1.7574 3.5042-2.9821"/>
   <path d="m505.87 479.73c-0.33707-1.2171-1.6867-2.335-3.5376-2.9373-1.8452-0.60039-3.9188-0.60039-5.4482 0-1.5342 0.60225-2.296 1.7202-1.9931 2.9373 0.3048 1.2247 1.6408 2.3633 3.5078 2.9821 1.8729 0.62076 3.9848 0.62076 5.5313 0 1.5417-0.61883 2.279-1.7574 1.9398-2.9821"/>
   <path d="m484.46 402.44c-0.21715-0.7841-1.2523-1.5052-2.7136-1.8939-1.4576-0.38782-3.1244-0.38782-4.3781 0-1.2568 0.38877-1.9128 1.1098-1.7177 1.8939 0.19611 0.78803 1.2218 1.5197 2.6929 1.9171 1.4748 0.39834 3.1662 0.39834 4.4316 0 1.2622-0.39735 1.9031-1.129 1.6849-1.9171"/>
   <path d="m319.82 402.44c0.19418-0.7841-0.46276-1.5052-1.72-1.8939-1.2541-0.38782-2.921-0.38782-4.3781 0-1.4608 0.38877-2.4951 1.1098-2.7112 1.8939-0.21728 0.78803 0.42457 1.5197 1.6872 1.9171 1.2658 0.39834 2.9573 0.39834 4.4316 0 1.4706-0.39735 2.4954-1.129 2.6906-1.9171"/>
  </g>
  <path d="m493.92 499.48h-192.75s-28.623-0.0895-28.623-14.256v14.167 10.261c0 10.161 7.8848 18.341 17.678 18.341h214.64c9.7929 0 17.678-8.1804 17.678-18.341v-10.261-14.167c0 14.167-28.623 14.256-28.623 14.256z"/>
 </g>
</svg>
