<?xml version="1.0" encoding="UTF-8" standalone="no"?>
<svg width="418px" height="347px" viewBox="0 0 418 347" version="1.1" xmlns="http://www.w3.org/2000/svg" xmlns:xlink="http://www.w3.org/1999/xlink" xmlns:sketch="http://www.bohemiancoding.com/sketch/ns">
    <!-- Generator: Sketch 3.3.3 (12081) - http://www.bohemiancoding.com/sketch -->
    <title>Untitled 4</title>
    <desc>Created with Sketch.</desc>
    <defs></defs>
    <g id="Page-1" stroke="none" stroke-width="1" sketch:type="MSPage">
        <g id="neobox" sketch:type="MSLayerGroup">
            <g id="layer1" transform="translate(0.000000, 0.273990)" sketch:type="MSShapeGroup">
                <path d="M138.25856,0.72601 L278.89656,0.72601 C311.16836,0.72601 342.37976,12.16399 349.50146,27.73671 L411.65736,163.65096 C428.52776,200.54088 396.66076,235.01173 337.49576,235.01173 L79.6594,235.01173 C20.49435,235.01173 -11.37261,200.54088 5.49778,163.65096 L67.65368,27.73671 C74.77535,12.16399 105.98672,0.72601 138.25856,0.72601 Z M138.295221,87.8973217 L122.927381,168.43242 L150.123169,168.43242 L158.349926,105.262243 L276.150898,168.43242 L303.349685,168.43242 L286.34512,87.8973217 L264.028958,87.8973217 L272.630192,145.027544 L160.703517,87.8973217 L160.621318,87.953729 L160.629011,87.8973217 L138.295573,87.8973217 L138.295221,87.8973217 Z M167.484376,49.7012253 C161.654288,50.0590378 155.835189,51.3939796 150.979697,53.761224 C146.056983,56.1568523 142.881469,59.2433699 141.550748,62.484343 L148.155813,62.484343 C149.235498,60.1472544 151.56177,57.9300581 155.114202,56.1757723 C158.626567,54.4423725 162.817941,53.422281 167.060491,53.0765171 L167.484376,49.7012253 Z M147.244395,51.5728654 C153.323464,48.6489675 160.611758,47.0274626 167.862161,46.6662963 L168.259397,43.4460879 C159.495062,43.8091377 150.623483,45.7061902 143.228385,49.2198113 C135.671462,52.8099686 130.823529,57.5249758 128.940318,62.484343 L135.490998,62.484343 C137.075667,58.4156469 141.061412,54.5499871 147.244395,51.5728654 L147.244395,51.5728654 Z M157.040458,60.2297027 C156.838928,61.5617925 158.6726,62.6507135 161.140732,62.6507135 C163.60505,62.6507135 165.7421,61.562208 165.909014,60.2297027 C166.074467,58.9087677 164.234904,57.8458746 161.805114,57.8458746 C159.372302,57.8458746 157.240307,58.9087677 157.040458,60.2297027 L157.040458,60.2297027 Z M259.844858,66.1996734 L211.919534,48.4705267 L120.005013,82.7305947 L304.53114,82.7305947 L282.60251,74.6187442 L278.692492,55.8656682 L258.316377,55.8656682 L259.844858,66.1996734 Z" id="rect3181"></path>
                <path d="M80.094113,344.4624 L337.93047,344.4624 C392.80976,344.4624 414.09207,361.124 414.09207,219.78632 C403.96642,224.00781 411.09547,257.6053 351.93047,257.6053 L66.094113,257.6053 C6.9290563,257.6053 7.4239403,222.10692 1.93248615,213.56259 C1.93248615,365.9752 20.929056,344.4624 80.094113,344.4624 L80.094113,344.4624 Z" id="rect3181-9-3"></path>
            </g>
        </g>
    </g>
</svg>
