<?xml version="1.0" encoding="UTF-8" standalone="no"?>
<!-- Created with Inkscape (http://www.inkscape.org/) -->

<svg
   xmlns:dc="http://purl.org/dc/elements/1.1/"
   xmlns:cc="http://creativecommons.org/ns#"
   xmlns:rdf="http://www.w3.org/1999/02/22-rdf-syntax-ns#"
   xmlns:svg="http://www.w3.org/2000/svg"
   xmlns="http://www.w3.org/2000/svg"
   xmlns:sodipodi="http://sodipodi.sourceforge.net/DTD/sodipodi-0.dtd"
   xmlns:inkscape="http://www.inkscape.org/namespaces/inkscape"
   width="415.15515"
   height="344.77902"
   id="svg2"
   version="1.1"
   inkscape:version="0.48.4 r9939"
   sodipodi:docname="neobox.svg">
  <sodipodi:namedview
     id="base"
     pagecolor="#ffffff"
     bordercolor="#666666"
     borderopacity="1.0"
     inkscape:pageopacity="0.0"
     inkscape:pageshadow="2"
     inkscape:zoom="0.7"
     inkscape:cx="717.85714"
     inkscape:cy="28.646863"
     inkscape:document-units="px"
     inkscape:current-layer="layer1"
     showgrid="false"
     showguides="true"
     inkscape:guide-bbox="true"
     inkscape:window-width="1616"
     inkscape:window-height="800"
     inkscape:window-x="192"
     inkscape:window-y="109"
     inkscape:window-maximized="0"
     fit-margin-top="0"
     fit-margin-left="0"
     fit-margin-right="0"
     fit-margin-bottom="0" />
  <defs
     id="defs4" />
  <metadata
     id="metadata7">
    <rdf:RDF>
      <cc:Work
         rdf:about="">
        <dc:format>image/svg+xml</dc:format>
        <dc:type
           rdf:resource="http://purl.org/dc/dcmitype/StillImage" />
        <dc:title />
      </cc:Work>
    </rdf:RDF>
  </metadata>
  <g
     inkscape:label="Layer 1"
     inkscape:groupmode="layer"
     id="layer1"
     transform="translate(3.4887688e-7,-754.72601)">
    <path
       inkscape:connector-curvature="0"
       id="rect3181"
       d="m 137.25856,754.72601 c 0,0 140.638,0 140.638,0 32.2718,0 63.4832,11.43798 70.6049,27.0107 0,0 62.1559,135.91425 62.1559,135.91425 16.8704,36.88992 -14.9966,71.36077 -74.1616,71.36077 0,0 -257.83636,0 -257.83636,0 -59.16505,0 -91.03201,-34.47085 -74.16162,-71.36077 0,0 62.1559,-135.91425 62.1559,-135.91425 7.12167,-15.57272 38.33304,-27.0107 70.60488,-27.0107 0,0 0,0 0,0"
       style="fill:#808080;fill-opacity:1" />
    <g
       id="g3036"
       transform="matrix(1.0989156,0,0,1.0989156,-554.00167,826.43)">
      <path
         id="polygon3016"
         d="m 629.07187,14.075077 c 0,0 -13.98455,73.285972 -13.98455,73.285972 0,0 24.74784,0 24.74784,0 0,0 7.48625,-57.484102 7.48625,-57.484102 0,0 107.19747,57.484102 107.19747,57.484102 0,0 24.75057,0 24.75057,0 0,0 -15.47395,-73.285972 -15.47395,-73.285972 0,0 -20.30744,0 -20.30744,0 0,0 7.82702,51.987816 7.82702,51.987816 0,0 -101.85193,-51.987816 -101.85193,-51.987816 0,0 -0.0748,0.05133 -0.0748,0.05133 0,0 0.007,-0.05133 0.007,-0.05133 0,0 -20.32316,0 -20.32316,0"
         style="fill:#ffffff"
         inkscape:connector-curvature="0" />
      <g
         id="g3018">
        <path
           id="path3020"
           d="m 655.63365,-20.682912 c -5.30531,0.325605 -10.60062,1.540386 -15.01906,3.69455 -4.47961,2.179993 -7.36929,4.988687 -8.58023,7.9379336 0,0 6.01053,0 6.01053,0 0.9825,-2.1267226 3.09938,-4.1443446 6.33205,-5.7407236 3.19621,-1.577373 7.01031,-2.505644 10.87098,-2.820285 0,0 0.38573,-3.071475 0.38573,-3.071475 0,0 0,0 0,0"
           inkscape:connector-curvature="0"
           style="fill:#ffffff" />
        <path
           id="path3022"
           d="m 637.21551,-18.979742 c 5.53188,-2.660712 12.16414,-4.136262 18.76192,-4.464919 0,0 0.36148,-2.930351 0.36148,-2.930351 -7.97544,0.330371 -16.04847,2.056666 -22.77792,5.254019 -6.87671,3.267 -11.28827,7.5576 -13.00197,12.0705646 0,0 5.96104,0 5.96104,0 1.44203,-3.7024646 5.06901,-7.2201686 10.69545,-9.9293136 0,0 0,0 0,0"
           inkscape:connector-curvature="0"
           style="fill:#ffffff" />
        <path
           id="path3024"
           d="m 646.12981,-11.102124 c -0.18339,1.2121857 1.48523,2.2030907 3.7312,2.2030907 2.2425,0 4.18719,-0.9905269 4.33908,-2.2030907 0.15056,-1.202035 -1.52342,-2.169255 -3.7345,-2.169255 -2.21383,0 -4.15392,0.96722 -4.33578,2.169255 0,0 0,0 0,0"
           inkscape:connector-curvature="0"
           style="fill:#ffffff" />
        <path
           id="polygon3026"
           d="m 739.68058,-5.6695224 c 0,0 -43.61147,-16.1333106 -43.61147,-16.1333106 0,0 -83.64111,31.1762505 -83.64111,31.1762505 0,0 167.91656,0 167.91656,0 0,0 -19.95479,-7.3816866 -19.95479,-7.3816866 0,0 -3.55807,-17.0650739 -3.55807,-17.0650739 0,0 -18.54202,0 -18.54202,0 0,0 1.3909,9.4038206 1.3909,9.4038206"
           style="fill:#ffffff"
           inkscape:connector-curvature="0" />
      </g>
    </g>
    <path
       style="fill:#808080;fill-opacity:1"
       d="m 79.094113,1098.4624 257.836357,0 c 54.87929,0 76.1616,16.6616 76.1616,-124.67608 -10.12565,4.22149 -2.9966,37.81898 -62.1616,37.81898 l -285.836357,0 c -59.1650567,0 -58.6701727,-35.49838 -64.16162685,-44.04271 0,152.41261 18.99656985,130.89981 78.16162685,130.89981 z"
       id="rect3181-9-3"
       inkscape:connector-curvature="0"
       sodipodi:nodetypes="sscsscs" />
  </g>
</svg>
