<?xml version="1.0" encoding="UTF-8" standalone="no"?>
<svg xmlns:rdf="http://www.w3.org/1999/02/22-rdf-syntax-ns#" xmlns="http://www.w3.org/2000/svg" viewBox="0 0 250.0046 135.00299" height="38.101mm" width="70.557mm" version="1.1" xmlns:cc="http://creativecommons.org/ns#" xmlns:dc="http://purl.org/dc/elements/1.1/">
 <g transform="translate(173.57 -379.15)">
  <path d="m-120.79 379.15h144.44c14.471 0 27.978 5.7507 30.386 13.204 0 0 21.733 67.273 21.733 67.273 3.7294 11.544-8.6486 21.353-27.96 21.353h-192.75c-19.312 0-31.69-9.8092-27.96-21.353 0 0 21.733-67.273 21.733-67.273 2.4078-7.4531 15.915-13.204 30.386-13.204"/>
  <g fill="#fff">
   <path d="m-145.44 465.89c0.30142-1.2171-0.46176-2.335-1.9967-2.9373-1.5302-0.60039-3.6038-0.60039-5.4482 0-1.8501 0.60225-3.1984 1.7202-3.534 2.9373-0.33768 1.2247 0.40101 2.3633 1.9434 2.9821 1.5473 0.62076 3.6591 0.62076 5.5313 0 1.8663-0.61883 3.2008-1.7574 3.5042-2.9821"/>
   <path d="m59.749 465.89c-0.33707-1.2171-1.6867-2.335-3.5376-2.9373-1.8452-0.60039-3.9188-0.60039-5.4482 0-1.5342 0.60225-2.296 1.7202-1.9931 2.9373 0.3048 1.2247 1.6408 2.3633 3.5078 2.9821 1.8729 0.62076 3.9848 0.62076 5.5313 0 1.5417-0.61883 2.279-1.7574 1.9398-2.9821"/>
   <path d="m38.339 388.6c-0.21715-0.7841-1.2523-1.5052-2.7136-1.8939-1.4576-0.38782-3.1244-0.38782-4.3781 0-1.2568 0.38877-1.9128 1.1098-1.7177 1.8939 0.19611 0.78803 1.2218 1.5197 2.6929 1.9171 1.4748 0.39834 3.1662 0.39834 4.4316 0 1.2622-0.39735 1.9031-1.129 1.6849-1.9171"/>
   <path d="m-126.3 388.6c0.19418-0.7841-0.46276-1.5052-1.72-1.8939-1.2541-0.38782-2.921-0.38782-4.3781 0-1.4608 0.38877-2.4951 1.1098-2.7112 1.8939-0.21728 0.78803 0.42457 1.5197 1.6872 1.9171 1.2658 0.39834 2.9573 0.39834 4.4316 0 1.4706-0.39735 2.4954-1.129 2.6906-1.9171"/>
  </g>
  <path d="m47.799 485.64h-192.75s-28.623-0.0895-28.623-14.256v14.167 10.261c0 10.161 7.8848 18.341 17.678 18.341h214.64c9.7929 0 17.678-8.1804 17.678-18.341v-10.261-14.167c0 14.167-28.623 14.256-28.623 14.256z"/>
  <g transform="matrix(0 1 -1 0 292.46 58.514)" fill="#fff">
   <g fill="#fff" transform="matrix(0 -.59383 .59383 0 219.36 517.42)">
    <g transform="matrix(1.25 0 0 -1.25 146 492.3)">
     <path d="m318.73 46.307l-146.3 29.711s-1.61 6.622-1.61 6.622l1.54-0.308s53.22-10.572 120.73-14.048c0.71 1.002 1.42 2.003 2.13 3.019-1.2 0.036-2.41 0.073-3.61 0.114-0.31 1.542-1.11 2.883-3.06 4.898-1.98 2.03-3.97 4.069-5.98 6.116-1.32-2.095-2.64-4.159-3.96-6.191-0.69-1.046-1.1-2.265-0.94-4.229-6.65 0.341-13.31 0.766-19.98 1.275 1.81 1.159 2.37 1.546 4.45 4.497 3.34 4.865 6.73 9.966 10.16 15.277-3.58 3.635-7.2 7.27-10.85 10.9-3.12-10.745-6.17-20.84-9.16-30.244-5.37 0.446-10.75 0.946-16.14 1.502 0.43 0.565 0.86 1.135 1.29 1.71-5.7 9.064-11.54 18.12-17.5 27.062-0.82 1.24-1.46 2.12-2.15 2.98 0.04-0.72 0.13-1.56 0.32-2.61 1.32-7.588 2.61-14.973 3.86-22.159 0.54-3.071 1.2-4.318 2.15-5.653-6.14 0.725-12.29 1.521-18.46 2.39-3.67 6.04-7.39 12.027-11.15 17.931-0.04 0.003-0.08 0.005-0.12 0.007-1.04-5.577-2.1-10.836-3.17-15.775-6.41 1.016-12.83 2.112-19.28 3.287 0.88 0.948 0.91 1.441 0.1 4.296-1.56 5.507-3.15 11.128-4.77 16.866-0.87 3.07-1.2 3.64-2.8 4.92h9.04c-0.88-1.36-0.89-1.93-0.04-5.13l4.46-16.685c0.04-0.006 0.07-0.011 0.11-0.015 1.46 6.615 2.88 13.89 4.27 21.83h9.91c5.27-8.36 10.45-16.891 15.53-25.515 0.04-0.003 0.08-0.008 0.12-0.012l-3.98 19.747c-0.64 3.19-1.37 4.47-2.34 5.78h13 3.72 6.9c-0.56-1.27-0.6-1.38-0.4-2.64 0.12-0.74 0.42-1.48 0.87-2.17 1.1-1.67 2.2-3.34 3.29-5.02 5.43-0.16 10.85-0.31 16.27-0.45 0.47 1.59 0.94 3.2 1.42 4.83 0.24 0.83 0.27 1.98 0.16 2.89-0.1 0.85-0.25 1.1-1.14 2.56h12.95 1.34 5.2c0.4-1.71 1.39-3.03 3.51-5.19 2.32-2.35 4.62-4.7 6.9-7.052 1.2 1.922 2.4 3.862 3.61 5.832 1.67 2.73 1.98 3.24 1.7 6.41h1.79 14.82 3.93c-1.14-0.93-1.97-1.92-2.77-3.07-0.56-0.79-1.1-1.67-1.72-2.67-1.05-1.69-2.1-3.36-3.14-5.021-2.63-4.191-5.23-8.288-7.8-12.278 3.41-3.554 6.79-7.084 10.13-10.578 0.58-0.607 1.17-1.195 1.76-1.768 2.63 3.793 5.29 7.677 7.98 11.644-3.77 3.992-7.59 8.043-11.45 12.128 1.04 1.653 2.09 3.323 3.14 5.003 0.62 1 1.16 1.87 1.72 2.66 0.71-1.2 1.11-1.6 2.57-3.21 2.92-3.2 5.81-6.385 8.68-9.531 1.73 2.62 3.47 5.273 5.23 7.951 2.43 3.72 2.88 4.42 2.76 8.74h13.41 9.03 5.01c-2.73-2.1-4.27-4.36-6.51-7.65l-0.06-0.09c-2.1-3.056-4.18-6.092-6.25-9.101-3.25-4.748-6.47-9.427-9.64-14.018 3.8-4.109 7.56-8.118 11.27-12.02 79.91 4.15 126.06 13.988 126.06 13.988l1.57 0.334-1.4-6.629-142.24-28.977m-0.01 1.54s140.17 28.646 140.17 28.646l0.66 3.192c-3.94-0.814-47.89-9.634-123.36-13.614 2.44-2.53 4.94-4.804 7.84-6.658-4.8-0.202-9.59-0.346-14.39-0.433-0.28 1.976-1.22 3.656-3.62 6.165-2.44 2.534-4.91 5.109-7.4 7.723-1.9-2.818-3.79-5.599-5.66-8.34-0.99-1.408-1.6-3.028-1.54-5.601-8.68 0.107-17.37 0.4-26.07 0.884 2.43 1.597 3.2 2.134 6.09 6.129 0.19 0.267 0.38 0.537 0.57 0.804-64.34 3.373-114.25 12.905-118.31 13.695l0.76-3.209 144.26-29.383m-78.68 34.62c1.17 3.774 2.35 7.665 3.54 11.67-3.62 0.149-7.24 0.309-10.86 0.479 2.47-4.048 4.9-8.099 7.32-12.149" transform="matrix(.8 0 0 -.8 -139.2 261.84)" fill="#fff"/>
    </g>
    <g transform="matrix(1.25 0 0 -1.25 378.28 517.47)">
     <path d="m331.55 71.063c1.18 1.739 1.35 2.494 1.39 6.687l0.16 14.13c2.05 2.989 4.13 6.007 6.22 9.05l-0.44-21.844 0.11 0.001c3.47 10.131 7.05 20.605 10.73 31.383h9.92c2.85-10.661 5.63-20.792 8.34-30.377 0.03 0.002 0.07 0.004 0.11 0.006 0.51 7.593 1.04 15.406 1.58 23.451 0.26 3.82-0.1 5.33-0.7 6.92h16.72 7.31c-0.91-1.33-0.97-1.46-1.11-2.79-0.08-0.78 0.01-1.56 0.29-2.28 0.65-1.73 1.3-3.45 1.94-5.14 5.42 0.14 10.84 0.3 16.27 0.47 0.88 1.55 1.77 3.09 2.66 4.64 0.47 0.79 0.79 1.86 0.91 2.71 0.11 0.8 0.02 1.02-0.49 2.39h15.64 3.2 13.46c-0.95-1.25-1.66-2.46-2.26-5.49 0 0-1.63-8.176-1.63-8.176 1.45 0.098 2.89 0.199 4.34 0.301 3.17 4.545 6.37 9.005 9.59 13.365h16.02c-1.5-1.02-2.57-2.45-4.19-4.25-2.34-2.62-4.67-5.3-6.99-8.041 2.97 0.063 5.59 0.066 4.6-3.804-0.41-1.61-0.82-3.21-1.22-4.8-1.09-4.248-4.53-6.176-10.94-7.279-9.97-1.679-19.9-3.166-29.79-4.464 1.21 1.337 1.86 2.543 2.36 5.499 1.18 6.91 2.39 14.002 3.63 21.279 0.22 1.28 0.31 2.25 0.31 3.04-0.49-0.61-0.96-1.24-1.37-1.9-5.97-9.699-11.8-19.564-17.49-29.468-5.39-0.623-10.77-1.189-16.14-1.701 0.59 0.68 1.18 1.358 1.78 2.037-3.4 8.294-6.86 17.236-10.39 26.782-0.57 1.6-1.03 2.67-1.63 3.78-0.21-0.9-0.38-2.01-0.51-3.45-0.76-8.344-1.49-16.444-2.2-24.306-0.31-3.355 0.02-4.629 0.62-5.924-6.05-0.483-12.09-0.896-18.13-1.241-2.01 6.679-4.05 13.624-6.13 20.831-0.04-0.001-0.08-0.002-0.12-0.002-2.65-7.309-5.25-14.484-7.79-21.507-6.19-0.245-12.37-0.417-18.55-0.517v-0.001m68.95 11.681c2.2 4.008 4.43 8.019 6.68 12.027-3.62-0.178-7.24-0.344-10.85-0.5 1.4-3.964 2.79-7.806 4.17-11.527m39 2.053c2.62 0.332 5.25 0.678 7.87 1.032 1.78 0.242 2.34 0.529 2.64 1.884 0.25 1.143 0.5 2.29 0.76 3.442 0.31 1.377-0.16 1.551-1.95 1.375-2.65-0.262-5.29-0.517-7.94-0.763-0.46-2.343-0.93-4.667-1.38-6.97" transform="matrix(.8 0 0 -.8 -325.02 281.97)" fill="#fff"/>
    </g>
    <g transform="matrix(1.25 0 0 -1.25 180.39 549.61)" stroke-width="0.6">
     <path style="color-rendering:auto;text-decoration-color:#000000;color:#000000;isolation:auto;mix-blend-mode:normal;shape-rendering:auto;solid-color:#000000;block-progression:tb;text-decoration-line:none;text-decoration-style:solid;image-rendering:auto;white-space:normal;text-indent:0;text-transform:none" d="m5.6349 205.59c-1.4887-0.04-2.7863 0.72-3.0372 1.81-0.21 0.79 0.1202 1.63 0.2433 2.44l0.9706 4.91h1.2115c-0.3995-2.08-0.8298-4.18-1.2188-6.31-0.1266-0.63 0.0636-1.29 0.7223-1.63 0.9929-0.55 2.7339-0.33 3.5664 0.58 0.7337 0.74 0.6842 1.64 0.8774 2.47l0.9024 4.89h1.2112c-0.368-2.06-0.769-4.15-1.1241-6.25-0.1065-0.62 0.1191-1.23 0.7141-1.59 1.047-0.73 3.198-0.43 3.961 0.7 0.46 0.76 0.447 1.58 0.616 2.36l0.816 4.78h1.211c-0.357-2.08-0.687-4.18-1.072-6.31-0.14-0.79-0.593-1.63-1.521-2.13-1.374-0.83-3.344-0.97-4.624-0.32-0.5311 0.26-0.8269 0.7-1.0221 1.15-0.4193-0.57-1.0547-1.07-1.8519-1.31-0.5023-0.16-1.0356-0.25-1.5521-0.24" fill="#fff"/>
    </g>
    <path style="color-rendering:auto;text-decoration-color:#000000;color:#000000;isolation:auto;mix-blend-mode:normal;shape-rendering:auto;solid-color:#000000;block-progression:tb;text-decoration-line:none;text-decoration-style:solid;image-rendering:auto;white-space:normal;text-indent:0;text-transform:none" d="m207.2 281.16l-1.78 11.25h1.54l1.76-11.25h-1.52"/>
    <g transform="matrix(1.25 0 0 -1.25 204.3 549.61)" stroke-width="0.6">
     <path style="color-rendering:auto;text-decoration-color:#000000;color:#000000;isolation:auto;mix-blend-mode:normal;shape-rendering:auto;solid-color:#000000;block-progression:tb;text-decoration-line:none;text-decoration-style:solid;image-rendering:auto;white-space:normal;text-indent:0;text-transform:none" d="m13.442 205.69c-0.663-0.03-1.004 0.43-1.183 0.84-1.114 2.4-2.2 4.78-3.2892 7.12l-1.1344-7.9h-1.2356c0.3976 2.7 0.7779 5.37 1.1744 8 0.0564 0.4 0.2874 0.91 0.8911 1.02 0.5668 0.13 1.1175-0.11 1.3098-0.49 0.4189-0.76 0.7389-1.55 1.1129-2.33 0.782-1.68 1.564-3.38 2.362-5.09l1.04 7.89h1.212c-0.349-2.66-0.685-5.36-1.052-8.09-0.045-0.41-0.368-0.89-0.953-0.95-0.085-0.01-0.17-0.02-0.255-0.02" fill="#fff"/>
    </g>
    <path style="color-rendering:auto;text-decoration-color:#000000;color:#000000;isolation:auto;mix-blend-mode:normal;shape-rendering:auto;solid-color:#000000;block-progression:tb;text-decoration-line:none;text-decoration-style:solid;image-rendering:auto;white-space:normal;text-indent:0;text-transform:none" d="m227.78 292.41l1.35-11.25c1.37 0.02 2.76-0.04 4.13 0.05 2.59 0.17 4.82 1.53 5.6 3.41 0.86 1.92 0.15 4.29-1.81 5.9-1.31 1.13-3.22 1.83-5.12 1.88-0.77 0.03-1.53 0.01-2.29 0.01l0.13-1.15c1.46-0.02 3.01 0.14 4.39-0.47 1.91-0.72 3.29-2.25 3.45-3.83 0.25-1.66-0.73-3.32-2.54-4.11-1.31-0.66-2.99-0.57-4.56-0.58l-1.19 10.14h-1.54"/>
    <g stroke-width="0.6">
     <g transform="matrix(1.25 0 0 -1.25 234.32 550.17)">
      <path style="color-rendering:auto;text-decoration-color:#000000;color:#000000;isolation:auto;mix-blend-mode:normal;shape-rendering:auto;solid-color:#000000;block-progression:tb;text-decoration-line:none;text-decoration-style:solid;image-rendering:auto;white-space:normal;text-indent:0;text-transform:none" d="m12.082 206.03c-2.3559-0.02-4.5171 1.14-5.2926 2.8-0.8022 1.6-0.2612 3.59 1.3489 4.91 1.4753 1.26 3.8157 1.88 5.8797 1.54 2.259-0.33 4.079-1.78 4.397-3.54 0.378-1.83-0.803-3.88-2.936-4.92-1.018-0.51-2.216-0.79-3.397-0.79m0.042 0.94c2.205-0.03 4.338 1.29 4.905 2.94 0.61 1.58-0.231 3.36-2.053 4.12-1.786 0.79-4.344 0.49-5.8411-0.76-1.8044-1.41-1.9439-3.82-0.2963-5.19 0.8096-0.7 2.0224-1.12 3.2854-1.11" fill="#fff"/>
     </g>
     <g transform="matrix(1.25 0 0 -1.25 263.79 549.61)">
      <path style="color-rendering:auto;text-decoration-color:#000000;color:#000000;isolation:auto;mix-blend-mode:normal;shape-rendering:auto;solid-color:#000000;block-progression:tb;text-decoration-line:none;text-decoration-style:solid;image-rendering:auto;white-space:normal;text-indent:0;text-transform:none" d="m1.3763 205.59c-1.4842-0.04-2.8839 0.72-3.2829 1.81-0.3162 0.79-0.0998 1.63-0.0863 2.44 0 0 0.3066 4.91 0.3066 4.91h1.2116c-0.1179-2.08-0.26392-4.18-0.36615-6.31-0.04118-0.63 0.23868-1.29 0.94358-1.63 1.0668-0.55 2.7782-0.33 3.4876 0.58 0.6333 0.74 0.4625 1.64 0.5444 2.47 0 0 0.2403 4.89 0.2403 4.89h1.2115c-0.0886-2.06-0.2075-4.15-0.2786-6.25-0.0237-0.62 0.2851-1.23 0.9286-1.59 1.1449-0.73 3.2555-0.43 3.8665 0.7 0.357 0.76 0.234 1.58 0.297 2.36l0.169 4.78h1.211c-0.075-2.08-0.121-4.18-0.219-6.31-0.033-0.79-0.372-1.63-1.232-2.13-1.2619-0.83-3.2127-0.97-4.5815-0.32-0.5656 0.26-0.9208 0.7-1.1774 1.15-0.3424-0.57-0.91-1.07-1.675-1.31-0.4799-0.16-1.0023-0.25-1.5188-0.24" fill="#fff"/>
     </g>
     <g transform="matrix(1.25 0 0 -1.25 280.47 564.61)">
      <path style="color-rendering:auto;text-decoration-color:#000000;color:#000000;isolation:auto;mix-blend-mode:normal;shape-rendering:auto;solid-color:#000000;block-progression:tb;text-decoration-line:none;text-decoration-style:solid;image-rendering:auto;white-space:normal;text-indent:0;text-transform:none" d="m8.7219 217.76c0.025 2.12 0.0332 4.23 0.0683 6.31 0.0362 0.9 0.5615 1.83 1.6218 2.27 0.949 0.43 2.069 0.43 3.132 0.42h1.367s0.003-0.89 0.003-0.89c-0.909-0.01-1.82 0.02-2.728-0.02-0.79-0.04-1.609-0.36-1.916-0.94-0.3808-0.69-0.242-1.44-0.2769-2.16 0.1179-0.04 0.3239-0.01 0.4749-0.02h4.458l0.003-0.9h-4.9424s-0.0291-4.07-0.0291-4.07h-1.2356" fill="#fff"/>
     </g>
     <g transform="matrix(1.25 0 0 -1.25 301.84 564.61)">
      <path style="color-rendering:auto;text-decoration-color:#000000;color:#000000;isolation:auto;mix-blend-mode:normal;shape-rendering:auto;solid-color:#000000;block-progression:tb;text-decoration-line:none;text-decoration-style:solid;image-rendering:auto;white-space:normal;text-indent:0;text-transform:none" d="m0.78713 217.76c-0.01483 1.94-0.0481 3.87-0.05054 5.78 0.01589 0.95 0.34271 1.96 1.2946 2.61 1.4875 1.09 4.1248 1.01 5.5519-0.16 0.8553-0.67 1.124-1.65 1.1197-2.55 0.0556-1.88 0.1042-3.77 0.1577-5.68h-1.2356l-0.1031 4.16h-5.2764l-0.012 0.9h5.266c-0.0395 0.73 0.0366 1.52-0.4298 2.18-0.473 0.63-1.389 1.05-2.3352 1.02-1.132 0.03-2.2881-0.52-2.5798-1.38-0.3205-0.8-0.1723-1.64-0.1914-2.47l0.0559-4.41h-1.232" fill="#fff"/>
     </g>
     <g transform="matrix(1.25 0 0 -1.25 307.42 564.61)">
      <path style="color-rendering:auto;text-decoration-color:#000000;color:#000000;isolation:auto;mix-blend-mode:normal;shape-rendering:auto;solid-color:#000000;block-progression:tb;text-decoration-line:none;text-decoration-style:solid;image-rendering:auto;white-space:normal;text-indent:0;text-transform:none" d="m8.0112 217.76s-0.0325 0.92-0.0325 0.92c1.5634 0.01 3.1283-0.01 4.6903 0.01 0.684 0.01 1.461 0.2 1.721 0.73 0.408 0.68 0.022 1.59-0.87 1.94-0.873 0.35-1.836 0.52-2.757 0.76-1.0764 0.26-2.2453 0.67-2.748 1.5-0.4975 0.86-0.3611 1.99 0.5986 2.59 0.9107 0.56 2.1454 0.56 3.2764 0.55h2.994s0.045-0.89 0.045-0.89c-1.404-0.01-2.809 0.02-4.212-0.01-0.637-0.01-1.3398-0.2-1.5926-0.68-0.3676-0.64 0.0115-1.49 0.8744-1.79 1.2992-0.48 2.7612-0.63 4.0472-1.15 1.234-0.48 1.96-1.61 1.735-2.64-0.166-0.94-1.193-1.71-2.416-1.8-1.012-0.07-2.037-0.03-3.056-0.04h-2.2978" fill="#fff"/>
     </g>
     <g transform="matrix(1.25 0 0 -1.25 333.29 564.61)">
      <path style="color-rendering:auto;text-decoration-color:#000000;color:#000000;isolation:auto;mix-blend-mode:normal;shape-rendering:auto;solid-color:#000000;block-progression:tb;text-decoration-line:none;text-decoration-style:solid;image-rendering:auto;white-space:normal;text-indent:0;text-transform:none" d="m-0.96463 217.76s-0.54617 9-0.54617 9h1.2115c0.00002 0 0.24321-3.84 0.24321-3.84h5.6734s-0.2909 3.84-0.2909 3.84h1.2133s0.7062-9 0.7062-9h-1.2375l-0.3227 4.26h-5.6846c0.0000102 0 0.26986-4.26 0.26986-4.26h-1.2356" fill="#fff"/>
     </g>
    </g>
    <path style="color-rendering:auto;text-decoration-color:#000000;color:#000000;isolation:auto;mix-blend-mode:normal;shape-rendering:auto;solid-color:#000000;block-progression:tb;text-decoration-line:none;text-decoration-style:solid;image-rendering:auto;white-space:normal;text-indent:0;text-transform:none" d="m346.93 281.16l0.99 11.25h1.55l-0.03-0.27-0.99-10.98h-1.52"/>
    <g stroke-width="0.6">
     <g transform="matrix(1.25 0 0 -1.25 354.19 550.17)">
      <path style="color-rendering:auto;text-decoration-color:#000000;color:#000000;isolation:auto;mix-blend-mode:normal;shape-rendering:auto;solid-color:#000000;block-progression:tb;text-decoration-line:none;text-decoration-style:solid;image-rendering:auto;white-space:normal;text-indent:0;text-transform:none" d="m5.9616 206.03c-3.3705 0-6.304 2.13-6.5612 4.74-0.24969 2.53 2.229 4.6 5.4853 4.6 3.3153 0 6.2233-2.02 6.5413-4.56 0.33-2.65-2.0958-4.78-5.4654-4.78m-0.1372 0.94c2.652 0 4.6066 1.7 4.3526 3.78-0.255 2.09-2.5423 3.72-5.2086 3.72-2.6296 0-4.5226-1.62-4.312-3.7 0.21368-2.11 2.514-3.8 5.168-3.8" fill="#fff"/>
     </g>
     <g transform="matrix(1.25 0 0 -1.25 376.24 549.61)">
      <path style="color-rendering:auto;text-decoration-color:#000000;color:#000000;isolation:auto;mix-blend-mode:normal;shape-rendering:auto;solid-color:#000000;block-progression:tb;text-decoration-line:none;text-decoration-style:solid;image-rendering:auto;white-space:normal;text-indent:0;text-transform:none" d="m4.6339 205.69c-0.6182-0.03-1.0894 0.39-1.3718 0.78-1.801 2.42-3.5591 4.82-5.3191 7.18l1.0663-7.9h-1.2356c-0.3536 2.7-0.7158 5.37-1.0532 8-0.055 0.4 0.0326 0.91 0.6069 1.02 0.5299 0.13 1.148-0.11 1.4467-0.49 0.62889-0.76 1.1708-1.55 1.7612-2.33 1.25-1.68 2.5151-3.4 3.7801-5.09l-1.1589 7.89h1.2116c0.3948-2.66 0.8102-5.36 1.2044-8.09 0.0675-0.41-0.1228-0.88-0.6885-0.95-0.0812-0.01-0.1652-0.02-0.2501-0.02" fill="#fff"/>
     </g>
     <g transform="matrix(1.25 0 0 -1.25 382.99 564.61)">
      <path style="color-rendering:auto;text-decoration-color:#000000;color:#000000;isolation:auto;mix-blend-mode:normal;shape-rendering:auto;solid-color:#000000;block-progression:tb;text-decoration-line:none;text-decoration-style:solid;image-rendering:auto;white-space:normal;text-indent:0;text-transform:none" d="m4.1316 217.76c-0.0485 0.31-0.0969 0.61-0.1453 0.92 1.5622 0.01 3.1285-0.01 4.6877 0.01 0.6822 0.01 1.438 0.2 1.633 0.73 0.325 0.68-0.172 1.59-1.1078 1.94-0.9337 0.36-1.9362 0.52-2.9054 0.78-1.0901 0.25-2.2828 0.67-2.8763 1.48-0.6025 0.86-0.6051 1.99 0.2815 2.59 0.8422 0.56 2.0768 0.56 3.2087 0.55h2.9943c0.0513-0.3 0.103-0.59 0.154-0.89-1.4028-0.01-2.8116 0.02-4.2105-0.01-0.6365-0.01-1.3146-0.2-1.5088-0.68-0.2944-0.64 0.1927-1.49 1.0923-1.79 1.359-0.48 2.8386-0.63 4.1891-1.15 1.2609-0.47 2.1139-1.56 2.0609-2.57-0.008-0.95-0.918-1.75-2.139-1.86-0.974-0.09-1.9795-0.04-2.9698-0.05h-2.4386" fill="#fff"/>
     </g>
    </g>
    <g transform="matrix(1.25 0 0 -1.25 461.75 509.02)">
     <path d="m-7.5301 203.4l-1.1235 2.97c-0.1428 0.38-0.242 0.84-0.3955 1.31h-0.051c-0.0397-0.45-0.096-0.96-0.177-1.39l-0.6102-2.82h-0.7877s-2.186 2.9-2.186 2.9c-0.279 0.39-0.58 0.86-0.856 1.31h-0.051c0.112-0.46 0.242-0.87 0.33-1.31l0.561-2.97h-0.991l-0.81 4.89h1.334s2.056-2.64 2.056-2.64c0.275-0.37 0.524-0.77 0.824-1.23h0.033c0.025 0.46 0.057 0.89 0.127 1.25l0.5735 2.62h1.3173l1.9248-4.89h-1.0417m-7.9089 4.89s0.169-0.62 0.169-0.62h-2.063s1.142-4.27 1.142-4.27h-1.025l-1.132 4.27h-2.047s-0.162 0.62-0.162 0.62h5.118" fill="#fff"/>
    </g>
   </g>
  </g>
 </g>
</svg>
